<svg width="159" height="68" fill="none" xmlns="http://www.w3.org/2000/svg"><path d="M16.692 65.18c-.624 0-1.184-.096-1.68-.288a3.355 3.355 0 01-1.26-.84 3.848 3.848 0 01-.792-1.368c-.184-.536-.276-1.152-.276-1.848 0-.696.104-1.312.312-1.848.216-.536.508-.988.876-1.356.368-.376.8-.66 1.296-.852a4.383 4.383 0 011.596-.288c.344 0 .656.028.936.084.28.048.524.104.732.168.208.064.38.132.516.204.136.072.232.124.288.156l-.444 1.236c-.192-.12-.468-.232-.828-.336a3.782 3.782 0 00-1.152-.168c-.36 0-.696.064-1.008.192-.312.12-.584.304-.816.552-.224.248-.4.56-.528.936a4.058 4.058 0 00-.192 1.308c0 .44.048.844.144 1.212.104.368.26.688.468.96.208.264.472.472.792.624.32.144.704.216 1.152.216.536 0 .972-.052 1.308-.156.336-.112.596-.216.78-.312l.408 1.236a2.036 2.036 0 01-.396.192c-.16.064-.352.128-.576.192-.224.056-.476.1-.756.132-.28.04-.58.06-.9.06zm7.46-5.148c-.12-.04-.288-.08-.504-.12a3.285 3.285 0 00-1.248-.024c-.176.032-.3.06-.372.084V65h-1.452v-5.976c.28-.104.628-.2 1.044-.288a6.364 6.364 0 011.404-.144c.096 0 .208.008.336.024.128.008.256.024.384.048.128.016.252.04.372.072.12.024.216.048.288.072l-.252 1.224zm6.6-1.308c-.649 2.384-1.4 4.544-2.257 6.48-.16.36-.324.668-.492.924a2.74 2.74 0 01-.564.636c-.208.168-.44.288-.696.36-.256.08-.552.12-.888.12-.224 0-.448-.024-.672-.072-.216-.048-.38-.1-.492-.156l.264-1.164c.288.112.572.168.852.168.376 0 .668-.092.876-.276.216-.176.404-.452.564-.828-.456-.88-.896-1.84-1.32-2.88a32.776 32.776 0 01-1.116-3.312h1.548c.08.336.176.7.288 1.092a36.02 36.02 0 00.816 2.4c.152.4.304.772.456 1.116.256-.712.496-1.468.72-2.268.224-.808.428-1.588.612-2.34h1.5zm5.262 3.168c0-.648-.148-1.152-.444-1.512-.288-.36-.756-.54-1.404-.54-.136 0-.28.008-.432.024a2.031 2.031 0 00-.432.072v3.588c.128.088.296.172.504.252.216.072.444.108.684.108.528 0 .912-.18 1.152-.54.248-.36.372-.844.372-1.452zm1.488-.024c0 .48-.064.92-.192 1.32-.12.4-.296.744-.528 1.032a2.36 2.36 0 01-.876.672c-.344.16-.736.24-1.176.24a3.05 3.05 0 01-1.428-.348v2.436H31.85v-8.292c.296-.08.66-.156 1.092-.228a8.318 8.318 0 011.368-.108c.496 0 .94.076 1.332.228.392.152.724.372.996.66.28.28.492.624.636 1.032.152.4.228.852.228 1.356zm1.424-4.8l1.452-.24v1.896h2.232v1.212h-2.232v2.556c0 .504.08.864.24 1.08.16.216.432.324.816.324.264 0 .496-.028.696-.084a4.61 4.61 0 00.492-.156l.24 1.152a4.919 4.919 0 01-.66.216 3.42 3.42 0 01-.96.12c-.448 0-.824-.06-1.128-.18a1.681 1.681 0 01-.708-.516 2.12 2.12 0 01-.372-.828 5.229 5.229 0 01-.108-1.116v-5.436zm10.623 4.788c0 .496-.072.948-.216 1.356a3.002 3.002 0 01-.612 1.044 2.738 2.738 0 01-.96.672c-.368.16-.776.24-1.224.24-.448 0-.856-.08-1.224-.24a2.766 2.766 0 01-.948-.672 3.154 3.154 0 01-.624-1.044 4.052 4.052 0 01-.216-1.356c0-.496.072-.944.216-1.344.152-.408.36-.756.624-1.044.272-.288.592-.508.96-.66.368-.16.772-.24 1.212-.24.44 0 .844.08 1.212.24.376.152.696.372.96.66.264.288.468.636.612 1.044.152.4.228.848.228 1.344zm-1.488 0c0-.624-.136-1.116-.408-1.476-.264-.368-.636-.552-1.116-.552-.48 0-.856.184-1.128.552-.264.36-.396.852-.396 1.476 0 .632.132 1.132.396 1.5.272.368.648.552 1.128.552.48 0 .852-.184 1.116-.552.272-.368.408-.868.408-1.5zm9.553 3.324c-.624 0-1.184-.096-1.68-.288a3.355 3.355 0 01-1.26-.84 3.848 3.848 0 01-.792-1.368c-.184-.536-.276-1.152-.276-1.848 0-.696.104-1.312.312-1.848.216-.536.508-.988.876-1.356.368-.376.8-.66 1.296-.852a4.383 4.383 0 011.596-.288c.344 0 .656.028.936.084.28.048.524.104.732.168.208.064.38.132.516.204.136.072.232.124.288.156l-.444 1.236c-.192-.12-.468-.232-.828-.336a3.782 3.782 0 00-1.152-.168c-.36 0-.696.064-1.008.192-.312.12-.584.304-.816.552-.224.248-.4.56-.528.936a4.058 4.058 0 00-.192 1.308c0 .44.048.844.144 1.212.104.368.26.688.468.96.208.264.472.472.792.624.32.144.704.216 1.152.216.536 0 .972-.052 1.308-.156.336-.112.596-.216.78-.312l.408 1.236a2.036 2.036 0 01-.396.192c-.16.064-.352.128-.576.192-.224.056-.476.1-.756.132-.28.04-.58.06-.9.06zm9.408-3.324c0 .496-.072.948-.216 1.356a3.002 3.002 0 01-.612 1.044 2.738 2.738 0 01-.96.672c-.368.16-.776.24-1.224.24-.448 0-.856-.08-1.224-.24a2.766 2.766 0 01-.948-.672 3.154 3.154 0 01-.624-1.044 4.052 4.052 0 01-.216-1.356c0-.496.072-.944.216-1.344.152-.408.36-.756.624-1.044.272-.288.592-.508.96-.66.368-.16.772-.24 1.212-.24.44 0 .844.08 1.212.24.376.152.696.372.96.66.264.288.468.636.612 1.044.152.4.228.848.228 1.344zm-1.488 0c0-.624-.136-1.116-.408-1.476-.264-.368-.636-.552-1.116-.552-.48 0-.856.184-1.128.552-.264.36-.396.852-.396 1.476 0 .632.132 1.132.396 1.5.272.368.648.552 1.128.552.48 0 .852-.184 1.116-.552.272-.368.408-.868.408-1.5zm7.148.036c0-.648-.148-1.152-.444-1.512-.288-.36-.756-.54-1.404-.54-.136 0-.28.008-.432.024a2.031 2.031 0 00-.432.072v3.588c.128.088.296.172.504.252.216.072.444.108.684.108.528 0 .912-.18 1.152-.54.248-.36.372-.844.372-1.452zm1.488-.024c0 .48-.064.92-.192 1.32-.12.4-.296.744-.528 1.032a2.36 2.36 0 01-.876.672c-.344.16-.736.24-1.176.24a3.05 3.05 0 01-1.428-.348v2.436h-1.452v-8.292c.296-.08.66-.156 1.092-.228a8.318 8.318 0 011.368-.108c.496 0 .94.076 1.332.228.392.152.724.372.996.66.28.28.492.624.636 1.032.152.4.228.852.228 1.356zm6.48-3.144c-.648 2.384-1.4 4.544-2.256 6.48-.16.36-.324.668-.492.924a2.74 2.74 0 01-.564.636c-.208.168-.44.288-.696.36-.256.08-.552.12-.888.12-.224 0-.448-.024-.672-.072-.216-.048-.38-.1-.492-.156l.264-1.164c.288.112.572.168.852.168.376 0 .668-.092.876-.276.216-.176.404-.452.564-.828-.456-.88-.896-1.84-1.32-2.88a32.776 32.776 0 01-1.116-3.312h1.548c.08.336.176.7.288 1.092a36.02 36.02 0 00.816 2.4c.152.4.304.772.456 1.116.256-.712.496-1.468.72-2.268.224-.808.428-1.588.612-2.34h1.5zm9.767-2.04v1.308h-2.556V65h-1.524v-7.008h-2.556v-1.308h6.636zm4.224 3.348c-.12-.04-.288-.08-.504-.12a3.285 3.285 0 00-1.248-.024c-.176.032-.3.06-.372.084V65h-1.452v-5.976c.28-.104.628-.2 1.044-.288a6.364 6.364 0 011.404-.144c.096 0 .208.008.336.024.128.008.256.024.384.048.128.016.252.04.372.072.12.024.216.048.288.072l-.252 1.224zm3.471 3.948c.449 0 .788-.024 1.02-.072V62.3a3.244 3.244 0 00-.852-.108c-.16 0-.323.012-.492.036a1.59 1.59 0 00-.444.132.798.798 0 00-.311.276.726.726 0 00-.12.432c0 .344.108.584.324.72.216.128.508.192.876.192zm-.12-5.412c.48 0 .884.06 1.212.18.329.12.589.288.78.504.2.216.34.48.42.792.088.304.132.64.132 1.008v3.804a15.77 15.77 0 01-1.02.168 9.674 9.674 0 01-1.523.108c-.376 0-.72-.036-1.032-.108a2.23 2.23 0 01-.805-.348 1.718 1.718 0 01-.516-.624c-.12-.256-.18-.572-.18-.948 0-.36.069-.664.205-.912.143-.248.335-.448.575-.6.24-.16.517-.272.829-.336.32-.072.651-.108.995-.108.16 0 .329.012.505.036.175.016.364.048.563.096v-.24c0-.168-.02-.328-.06-.48a.914.914 0 00-.216-.396.906.906 0 00-.395-.276 1.664 1.664 0 00-.612-.096c-.337 0-.645.024-.925.072-.28.048-.508.104-.684.168l-.18-1.176c.184-.064.453-.128.805-.192a6.305 6.305 0 011.128-.096zm5.463 3.276c0 .64.152 1.144.456 1.512.304.36.724.54 1.26.54.232 0 .428-.008.588-.024a5.08 5.08 0 00.408-.072v-3.6a2.082 2.082 0 00-.516-.24 1.856 1.856 0 00-.672-.12c-.528 0-.916.18-1.164.54-.24.36-.36.848-.36 1.464zm4.164 2.964a8.563 8.563 0 01-1.092.24 8.318 8.318 0 01-1.368.108c-.496 0-.94-.076-1.332-.228a2.876 2.876 0 01-1.008-.648 3.073 3.073 0 01-.636-1.032 4.09 4.09 0 01-.216-1.368c0-.496.06-.944.18-1.344.128-.408.312-.756.552-1.044.24-.288.532-.508.876-.66.344-.16.74-.24 1.188-.24.304 0 .572.036.804.108.232.072.432.152.6.24v-3.012l1.452-.24v9.12zm1.496-2.916c0-.552.08-1.036.24-1.452.168-.416.388-.76.66-1.032a2.6 2.6 0 01.936-.624 2.828 2.828 0 011.08-.216c.864 0 1.536.268 2.016.804.488.536.732 1.336.732 2.4 0 .08-.004.172-.012.276 0 .096-.004.184-.012.264h-4.14c.04.504.216.896.528 1.176.32.272.78.408 1.38.408.352 0 .672-.032.96-.096a3.96 3.96 0 00.696-.204l.192 1.188a2.68 2.68 0 01-.336.132c-.136.04-.296.076-.48.108a5.545 5.545 0 01-1.212.132c-.552 0-1.032-.08-1.44-.24a2.777 2.777 0 01-1.008-.684 2.869 2.869 0 01-.588-1.032 4.271 4.271 0 01-.192-1.308zm4.212-.648c0-.2-.028-.388-.084-.564a1.254 1.254 0 00-.252-.468 1.013 1.013 0 00-.396-.312 1.172 1.172 0 00-.552-.12c-.224 0-.42.044-.588.132-.168.08-.312.188-.432.324-.112.136-.2.292-.264.468a2.535 2.535 0 00-.132.54h2.7zm7.88 2.628c.544 0 .94-.092 1.188-.276.248-.184.372-.444.372-.78a.97.97 0 00-.132-.516c-.08-.144-.2-.272-.36-.384a2.49 2.49 0 00-.564-.324 7.358 7.358 0 00-.768-.3 13.121 13.121 0 01-.84-.336 3.108 3.108 0 01-.708-.468 2.26 2.26 0 01-.492-.66c-.12-.256-.18-.564-.18-.924 0-.752.26-1.34.78-1.764.52-.432 1.228-.648 2.124-.648.52 0 .98.06 1.38.18.408.112.728.236.96.372l-.468 1.224a3.568 3.568 0 00-.9-.348c-.32-.08-.652-.12-.996-.12-.408 0-.728.084-.96.252-.224.168-.336.404-.336.708 0 .184.036.344.108.48.08.128.188.244.324.348.144.104.308.2.492.288.192.088.4.172.624.252.392.144.74.292 1.044.444.312.144.572.32.78.528.216.2.38.44.492.72.112.272.168.604.168.996 0 .752-.268 1.336-.804 1.752-.528.408-1.304.612-2.328.612-.344 0-.66-.024-.948-.072a5.697 5.697 0 01-.756-.156 6.53 6.53 0 01-.564-.192 4.242 4.242 0 01-.384-.192l.444-1.236c.216.12.508.24.876.36s.812.18 1.332.18zm4.045-1.98c0-.552.08-1.036.24-1.452.168-.416.388-.76.66-1.032a2.6 2.6 0 01.936-.624 2.828 2.828 0 011.08-.216c.864 0 1.536.268 2.016.804.488.536.732 1.336.732 2.4 0 .08-.004.172-.012.276 0 .096-.004.184-.012.264h-4.14c.04.504.216.896.528 1.176.32.272.78.408 1.38.408.352 0 .672-.032.96-.096a3.96 3.96 0 00.696-.204l.192 1.188a2.68 2.68 0 01-.336.132c-.136.04-.296.076-.48.108a5.545 5.545 0 01-1.212.132c-.552 0-1.032-.08-1.44-.24a2.777 2.777 0 01-1.008-.684 2.869 2.869 0 01-.588-1.032 4.271 4.271 0 01-.192-1.308zm4.212-.648c0-.2-.028-.388-.084-.564a1.254 1.254 0 00-.252-.468 1.013 1.013 0 00-.396-.312 1.172 1.172 0 00-.552-.12c-.224 0-.42.044-.588.132-.168.08-.312.188-.432.324-.112.136-.2.292-.264.468a2.535 2.535 0 00-.132.54h2.7zm6.567-1.212c-.12-.04-.288-.08-.504-.12a3.285 3.285 0 00-1.248-.024c-.176.032-.3.06-.372.084V65h-1.452v-5.976c.28-.104.628-.2 1.044-.288a6.364 6.364 0 011.404-.144c.096 0 .208.008.336.024.128.008.256.024.384.048.128.016.252.04.372.072.12.024.216.048.288.072l-.252 1.224zM139.114 65c-.4-.824-.812-1.768-1.236-2.832a37.778 37.778 0 01-1.14-3.444h1.548c.088.352.188.732.3 1.14.12.4.244.804.372 1.212.136.4.272.792.408 1.176.144.376.276.716.396 1.02.12-.304.248-.644.384-1.02.136-.384.268-.776.396-1.176.136-.408.264-.812.384-1.212.12-.408.224-.788.312-1.14h1.5a35.43 35.43 0 01-1.152 3.444A39.295 39.295 0 01140.362 65h-1.248zm6.172 0h-1.452v-6.276h1.452V65zm.156-8.112c0 .272-.088.488-.264.648a.897.897 0 01-.624.24.912.912 0 01-.636-.24c-.176-.16-.264-.376-.264-.648 0-.28.088-.5.264-.66a.912.912 0 01.636-.24c.24 0 .448.08.624.24.176.16.264.38.264.66zm1.349 4.98c0-.464.072-.896.216-1.296.144-.408.348-.76.612-1.056.272-.296.6-.528.984-.696a3.201 3.201 0 011.296-.252c.592 0 1.152.108 1.68.324l-.312 1.188a3.26 3.26 0 00-1.248-.252c-.568 0-1 .18-1.296.54-.296.352-.444.852-.444 1.5 0 .624.14 1.12.42 1.488.28.36.752.54 1.416.54.248 0 .492-.024.732-.072a3.44 3.44 0 00.624-.18l.204 1.2c-.16.08-.404.152-.732.216-.32.064-.652.096-.996.096-.536 0-1.004-.08-1.404-.24a2.82 2.82 0 01-.984-.684 2.95 2.95 0 01-.576-1.044 4.388 4.388 0 01-.192-1.32zm5.66.024c0-.552.08-1.036.24-1.452.168-.416.388-.76.66-1.032a2.6 2.6 0 01.936-.624 2.828 2.828 0 011.08-.216c.864 0 1.536.268 2.016.804.488.536.732 1.336.732 2.4 0 .08-.004.172-.012.276 0 .096-.004.184-.012.264h-4.14c.04.504.216.896.528 1.176.32.272.78.408 1.38.408.352 0 .672-.032.96-.096a3.96 3.96 0 00.696-.204l.192 1.188a2.68 2.68 0 01-.336.132c-.136.04-.296.076-.48.108a5.545 5.545 0 01-1.212.132c-.552 0-1.032-.08-1.44-.24a2.777 2.777 0 01-1.008-.684 2.869 2.869 0 01-.588-1.032 4.271 4.271 0 01-.192-1.308zm4.212-.648c0-.2-.028-.388-.084-.564a1.254 1.254 0 00-.252-.468 1.013 1.013 0 00-.396-.312 1.172 1.172 0 00-.552-.12c-.224 0-.42.044-.588.132-.168.08-.312.188-.432.324-.112.136-.2.292-.264.468a2.535 2.535 0 00-.132.54h2.7z" fill="#979797"/><path d="M51.927 41.275v2.343h-8.509v3.002H20.664v-3.002h-8.455v-2.343h8.455v-3.172h22.754v3.172h8.509z" fill="#0080FF"/><path d="M51.927 9.059V39.36H45.28v-3.173H18.802v3.172h-6.593V9.06h6.59v25.595h26.484V9.06h6.644z" fill="url(#paint0_linear)"/><path d="M45.28 45.535h6.647v4.408H12.209v-4.408h6.593v3.002H45.28v-3.002z" fill="url(#paint1_linear)"/><path d="M51.927 41.275v2.343h-8.509v3.002H20.664v-3.002h-8.538v-2.343h8.538v-3.172h22.754v3.172h8.509z" fill="#606060"/><path d="M51.927 41.275v2.343h-8.509v3.002H20.664v-3.002h-8.538v-2.343h8.538v-3.172h22.754v3.172h8.509z" fill="url(#paint2_linear)"/><path d="M43.42 9.059v23.679H20.66V9.058l.677 2.168 4.871 15.592 5.12-15.592.713-2.167.668 2.167 4.808 15.592L42.7 11.226l.72-2.167z" fill="url(#paint3_linear)"/><path d="M63.737 26.384h-3.852V9.486h4.575c.991 0 1.823.075 2.495.225 1.006.225 1.743.616 2.21 1.171.409.481.7 1.052.876 1.712.131.51.197 1.164.197 1.96 0 1.082-.14 1.99-.416 2.726-.35.932-.934 1.592-1.752 1.983a4.63 4.63 0 01-1.389.428 11.86 11.86 0 01-1.74.112h-1.204v6.58zm0-13.857v4.236h.547c.35 0 .653-.026.908-.079.255-.052.493-.169.711-.349.19-.21.318-.454.383-.732.066-.278.099-.605.099-.98 0-.465-.037-.834-.11-1.104-.116-.435-.32-.72-.612-.856a1.95 1.95 0 00-.537-.113 10.579 10.579 0 00-.755-.022h-.634zm11.928 7.188v6.669h-3.852V9.486h5.626c1.619 0 2.812.364 3.578 1.093.766.728 1.15 1.918 1.15 3.571 0 .991-.132 1.765-.395 2.32-.307.647-.854 1.158-1.641 1.533.569.15 1.028.42 1.379.811.35.39.525.864.525 1.42 0 .81.033 1.768.099 2.872.065 1.104.15 1.927.251 2.467.103.256.227.451.373.586v.225h-4.182a8.356 8.356 0 01-.163-.518 1.748 1.748 0 01-.054-.45v-2.209c0-.706-.03-1.315-.089-1.825-.058-.51-.184-.916-.375-1.217-.191-.3-.507-.45-.949-.45h-1.28zm0-7.188v4.146h1.314c.51 0 .868-.199 1.072-.597.205-.398.307-.898.307-1.499 0-.93-.212-1.524-.635-1.78-.306-.18-.992-.27-2.058-.27zm18.715 1.577v6.872c0 1.983-.373 3.425-1.117 4.326-.817.977-2.174 1.465-4.071 1.465-1.897 0-3.262-.488-4.094-1.465-.773-.901-1.16-2.343-1.16-4.326v-6.872c0-1.621.453-2.868 1.358-3.74.904-.87 2.203-1.307 3.896-1.307 1.678 0 2.961.436 3.852 1.307.89.872 1.335 2.118 1.335 3.74zm-3.853 7.21v-6.939c0-.69-.066-1.202-.197-1.532-.204-.495-.59-.743-1.16-.743-.54 0-.919.248-1.137.743-.161.36-.24.872-.24 1.532v6.94c0 .675.072 1.193.218 1.554.233.57.627.856 1.182.856.554 0 .933-.278 1.138-.834.13-.36.196-.886.196-1.577zm9.631 5.07h-3.852V9.486h9.061v3.38h-5.209v2.973h4.793v3.38h-4.793v7.165zm10.987 0h-3.852V9.486h3.852v16.898zm1.598-13.518v-3.38h9.981v3.38h-3.109v13.518h-3.852V12.866h-3.02zM63.737 42.89v6.67h-3.852V32.662h5.625c1.62 0 2.812.364 3.578 1.093.767.729 1.15 1.919 1.15 3.571 0 .992-.132 1.765-.394 2.321-.307.646-.854 1.157-1.642 1.532.57.15 1.029.42 1.38.811.35.39.525.864.525 1.42 0 .811.033 1.768.098 2.872.066 1.104.15 1.927.252 2.468.102.255.226.45.372.585v.225h-4.181a8.366 8.366 0 01-.164-.518 1.747 1.747 0 01-.054-.45v-2.208c0-.707-.03-1.315-.088-1.826-.059-.51-.184-.916-.375-1.216-.192-.3-.508-.451-.95-.451h-1.28zm0-7.187v4.146h1.313c.51 0 .868-.198 1.073-.597.204-.397.306-.897.306-1.498 0-.931-.211-1.524-.634-1.78-.307-.18-.994-.27-2.058-.27zM75.206 49.56h-3.874l3.59-16.898h4.64L83.13 49.56h-3.896l-.547-3.29h-3.02l-.461 3.29zm3.108-6.264l-1.072-7.593-1.16 7.593h2.232zm11.184 6.264h-5.187V32.662h4.18c.92 0 1.73.049 2.43.147a5.19 5.19 0 011.904.642c.671.406 1.146 1.007 1.423 1.803.204.6.306 1.39.306 2.365v7.503c0 1.727-.547 2.944-1.64 3.65a4.052 4.052 0 01-1.522.63c-.548.105-1.179.157-1.894.157zm-1.335-13.857v10.815c1.196 0 1.94-.24 2.233-.72.204-.33.306-1.142.306-2.434v-5.52c0-.93-.167-1.52-.503-1.768-.336-.25-1.014-.373-2.036-.373zm17.401 13.857h-9.083V32.662h8.821v3.38h-4.968v3.109h4.815v3.38h-4.815v3.649h5.231v3.38h-.001zm5.625-6.67v6.67h-3.852V32.662h5.625c1.62 0 2.812.364 3.579 1.093.766.729 1.149 1.919 1.149 3.571 0 .992-.131 1.765-.394 2.321-.307.646-.854 1.157-1.641 1.532.568.15 1.028.42 1.379.811.35.39.525.864.525 1.42 0 .811.033 1.768.098 2.872.066 1.104.15 1.927.252 2.468.102.255.226.45.372.585v.225H114.1a8.423 8.423 0 01-.164-.518 1.793 1.793 0 01-.054-.45v-2.208c0-.707-.029-1.315-.088-1.826-.058-.51-.184-.916-.375-1.216-.192-.3-.508-.451-.949-.451h-1.281zm0-7.187v4.146h1.314c.51 0 .867-.198 1.072-.597.204-.397.306-.897.306-1.498 0-.931-.211-1.524-.634-1.78-.307-.18-.993-.27-2.058-.27zm7.748 8.202h3.568v1.185c0 .552.113.991.339 1.32.226.327.624.491 1.193.491.423 0 .744-.16.963-.484.219-.323.328-.724.328-1.205a2.11 2.11 0 00-.678-1.577c-.189-.18-.678-.518-1.466-1.014a21.762 21.762 0 01-1.62-1.036 6.677 6.677 0 01-1.302-1.194 4.882 4.882 0 01-.81-1.464c-.196-.556-.295-1.187-.295-1.893 0-1.562.426-2.752 1.28-3.571.854-.819 2.039-1.228 3.557-1.228 1.619 0 2.852.513 3.699 1.538.788.966 1.182 2.286 1.182 3.96h-3.546c0-.744-.051-1.274-.154-1.592-.192-.577-.567-.865-1.125-.865-.898 0-1.347.361-1.347 1.082v.315c0 .376.102.703.305.98.204.278.495.552.872.822.931.571 1.592.977 1.985 1.216.683.421 1.214.812 1.593 1.172a4.43 4.43 0 011.068 1.61c.232.609.349 1.417.349 2.423 0 1.621-.423 2.869-1.267 3.74-.845.871-2.068 1.307-3.669 1.307-1.66 0-2.934-.426-3.822-1.28-.786-.763-1.179-1.75-1.179-2.963v-1.795h-.001z" fill="#fff"/><defs><linearGradient id="paint0_linear" x1="32.068" y1="9.059" x2="32.068" y2="39.36" gradientUnits="userSpaceOnUse"><stop stop-color="#A1CA2E"/><stop offset="1" stop-color="#2BA040"/></linearGradient><linearGradient id="paint1_linear" x1="32.068" y1="45.535" x2="32.068" y2="49.943" gradientUnits="userSpaceOnUse"><stop stop-color="#A1CA2E"/><stop offset="1" stop-color="#2BA040"/></linearGradient><linearGradient id="paint2_linear" x1="32.026" y1="46.62" x2="32.026" y2="38.103" gradientUnits="userSpaceOnUse"><stop stop-color="#FF3D22"/><stop offset="1" stop-color="#FF8516"/></linearGradient><linearGradient id="paint3_linear" x1="32.041" y1="32.738" x2="32.041" y2="9.059" gradientUnits="userSpaceOnUse"><stop stop-color="#FF3D22"/><stop offset="1" stop-color="#FF8516"/></linearGradient></defs></svg>