<svg width="159" height="68" viewBox="0 0 159 68" fill="none" xmlns="http://www.w3.org/2000/svg">
<path d="M16.692 65.18C16.068 65.18 15.508 65.084 15.012 64.892C14.516 64.7 14.096 64.42 13.752 64.052C13.408 63.676 13.144 63.22 12.96 62.684C12.776 62.148 12.684 61.532 12.684 60.836C12.684 60.14 12.788 59.524 12.996 58.988C13.212 58.452 13.504 58 13.872 57.632C14.24 57.256 14.672 56.972 15.168 56.78C15.664 56.588 16.196 56.492 16.764 56.492C17.108 56.492 17.42 56.52 17.7 56.576C17.98 56.624 18.224 56.68 18.432 56.744C18.64 56.808 18.812 56.876 18.948 56.948C19.084 57.02 19.18 57.072 19.236 57.104L18.792 58.34C18.6 58.22 18.324 58.108 17.964 58.004C17.612 57.892 17.228 57.836 16.812 57.836C16.452 57.836 16.116 57.9 15.804 58.028C15.492 58.148 15.22 58.332 14.988 58.58C14.764 58.828 14.588 59.14 14.46 59.516C14.332 59.892 14.268 60.328 14.268 60.824C14.268 61.264 14.316 61.668 14.412 62.036C14.516 62.404 14.672 62.724 14.88 62.996C15.088 63.26 15.352 63.468 15.672 63.62C15.992 63.764 16.376 63.836 16.824 63.836C17.36 63.836 17.796 63.784 18.132 63.68C18.468 63.568 18.728 63.464 18.912 63.368L19.32 64.604C19.224 64.668 19.092 64.732 18.924 64.796C18.764 64.86 18.572 64.924 18.348 64.988C18.124 65.044 17.872 65.088 17.592 65.12C17.312 65.16 17.012 65.18 16.692 65.18ZM24.1523 60.032C24.0323 59.992 23.8643 59.952 23.6483 59.912C23.4403 59.864 23.1963 59.84 22.9163 59.84C22.7563 59.84 22.5843 59.856 22.4003 59.888C22.2243 59.92 22.1003 59.948 22.0283 59.972V65H20.5763V59.024C20.8563 58.92 21.2043 58.824 21.6203 58.736C22.0443 58.64 22.5123 58.592 23.0243 58.592C23.1203 58.592 23.2323 58.6 23.3603 58.616C23.4883 58.624 23.6163 58.64 23.7443 58.664C23.8723 58.68 23.9963 58.704 24.1163 58.736C24.2363 58.76 24.3323 58.784 24.4043 58.808L24.1523 60.032ZM30.7511 58.724C30.1031 61.108 29.3511 63.268 28.4951 65.204C28.3351 65.564 28.1711 65.872 28.0031 66.128C27.8351 66.384 27.6471 66.596 27.4391 66.764C27.2311 66.932 26.9991 67.052 26.7431 67.124C26.4871 67.204 26.1911 67.244 25.8551 67.244C25.6311 67.244 25.4071 67.22 25.1831 67.172C24.9671 67.124 24.8031 67.072 24.6911 67.016L24.9551 65.852C25.2431 65.964 25.5271 66.02 25.8071 66.02C26.1831 66.02 26.4751 65.928 26.6831 65.744C26.8991 65.568 27.0871 65.292 27.2471 64.916C26.7911 64.036 26.3511 63.076 25.9271 62.036C25.5111 60.996 25.1391 59.892 24.8111 58.724H26.3591C26.4391 59.06 26.5351 59.424 26.6471 59.816C26.7671 60.208 26.8951 60.608 27.0311 61.016C27.1671 61.416 27.3111 61.816 27.4631 62.216C27.6151 62.616 27.7671 62.988 27.9191 63.332C28.1751 62.62 28.4151 61.864 28.6391 61.064C28.8631 60.256 29.0671 59.476 29.2511 58.724H30.7511ZM36.0138 61.892C36.0138 61.244 35.8658 60.74 35.5698 60.38C35.2818 60.02 34.8138 59.84 34.1658 59.84C34.0298 59.84 33.8858 59.848 33.7338 59.864C33.5898 59.872 33.4458 59.896 33.3018 59.936V63.524C33.4298 63.612 33.5978 63.696 33.8058 63.776C34.0218 63.848 34.2498 63.884 34.4898 63.884C35.0178 63.884 35.4018 63.704 35.6418 63.344C35.8898 62.984 36.0138 62.5 36.0138 61.892ZM37.5018 61.868C37.5018 62.348 37.4378 62.788 37.3098 63.188C37.1898 63.588 37.0138 63.932 36.7818 64.22C36.5498 64.508 36.2578 64.732 35.9058 64.892C35.5618 65.052 35.1698 65.132 34.7298 65.132C34.4338 65.132 34.1618 65.096 33.9138 65.024C33.6658 64.952 33.4618 64.872 33.3018 64.784V67.22H31.8498V58.928C32.1458 58.848 32.5098 58.772 32.9418 58.7C33.3738 58.628 33.8298 58.592 34.3098 58.592C34.8058 58.592 35.2498 58.668 35.6418 58.82C36.0338 58.972 36.3658 59.192 36.6378 59.48C36.9178 59.76 37.1298 60.104 37.2738 60.512C37.4258 60.912 37.5018 61.364 37.5018 61.868ZM38.9262 57.068L40.3782 56.828V58.724H42.6102V59.936H40.3782V62.492C40.3782 62.996 40.4582 63.356 40.6182 63.572C40.7782 63.788 41.0502 63.896 41.4342 63.896C41.6982 63.896 41.9302 63.868 42.1302 63.812C42.3382 63.756 42.5022 63.704 42.6222 63.656L42.8622 64.808C42.6942 64.88 42.4742 64.952 42.2022 65.024C41.9302 65.104 41.6102 65.144 41.2422 65.144C40.7942 65.144 40.4182 65.084 40.1142 64.964C39.8182 64.844 39.5822 64.672 39.4062 64.448C39.2302 64.216 39.1062 63.94 39.0342 63.62C38.9622 63.292 38.9262 62.92 38.9262 62.504V57.068ZM49.5492 61.856C49.5492 62.352 49.4772 62.804 49.3332 63.212C49.1892 63.62 48.9852 63.968 48.7212 64.256C48.4572 64.544 48.1372 64.768 47.7612 64.928C47.3932 65.088 46.9852 65.168 46.5372 65.168C46.0892 65.168 45.6812 65.088 45.3132 64.928C44.9452 64.768 44.6292 64.544 44.3652 64.256C44.1012 63.968 43.8932 63.62 43.7412 63.212C43.5972 62.804 43.5252 62.352 43.5252 61.856C43.5252 61.36 43.5972 60.912 43.7412 60.512C43.8932 60.104 44.1012 59.756 44.3652 59.468C44.6372 59.18 44.9572 58.96 45.3252 58.808C45.6932 58.648 46.0972 58.568 46.5372 58.568C46.9772 58.568 47.3812 58.648 47.7492 58.808C48.1252 58.96 48.4452 59.18 48.7092 59.468C48.9732 59.756 49.1772 60.104 49.3212 60.512C49.4732 60.912 49.5492 61.36 49.5492 61.856ZM48.0612 61.856C48.0612 61.232 47.9252 60.74 47.6532 60.38C47.3892 60.012 47.0172 59.828 46.5372 59.828C46.0572 59.828 45.6812 60.012 45.4092 60.38C45.1452 60.74 45.0132 61.232 45.0132 61.856C45.0132 62.488 45.1452 62.988 45.4092 63.356C45.6812 63.724 46.0572 63.908 46.5372 63.908C47.0172 63.908 47.3892 63.724 47.6532 63.356C47.9252 62.988 48.0612 62.488 48.0612 61.856ZM57.6139 65.18C56.9899 65.18 56.4299 65.084 55.9339 64.892C55.4379 64.7 55.0179 64.42 54.6739 64.052C54.3299 63.676 54.0659 63.22 53.8819 62.684C53.6979 62.148 53.6059 61.532 53.6059 60.836C53.6059 60.14 53.7099 59.524 53.9179 58.988C54.1339 58.452 54.4259 58 54.7939 57.632C55.1619 57.256 55.5939 56.972 56.0899 56.78C56.5859 56.588 57.1179 56.492 57.6859 56.492C58.0299 56.492 58.3419 56.52 58.6219 56.576C58.9019 56.624 59.1459 56.68 59.3539 56.744C59.5619 56.808 59.7339 56.876 59.8699 56.948C60.0059 57.02 60.1019 57.072 60.1579 57.104L59.7139 58.34C59.5219 58.22 59.2459 58.108 58.8859 58.004C58.5339 57.892 58.1499 57.836 57.7339 57.836C57.3739 57.836 57.0379 57.9 56.7259 58.028C56.4139 58.148 56.1419 58.332 55.9099 58.58C55.6859 58.828 55.5099 59.14 55.3819 59.516C55.2539 59.892 55.1899 60.328 55.1899 60.824C55.1899 61.264 55.2379 61.668 55.3339 62.036C55.4379 62.404 55.5939 62.724 55.8019 62.996C56.0099 63.26 56.2739 63.468 56.5939 63.62C56.9139 63.764 57.2979 63.836 57.7459 63.836C58.2819 63.836 58.7179 63.784 59.0539 63.68C59.3899 63.568 59.6499 63.464 59.8339 63.368L60.2419 64.604C60.1459 64.668 60.0139 64.732 59.8459 64.796C59.6859 64.86 59.4939 64.924 59.2699 64.988C59.0459 65.044 58.7939 65.088 58.5139 65.12C58.2339 65.16 57.9339 65.18 57.6139 65.18ZM67.0219 61.856C67.0219 62.352 66.9499 62.804 66.8059 63.212C66.6619 63.62 66.4579 63.968 66.1939 64.256C65.9299 64.544 65.6099 64.768 65.2339 64.928C64.8659 65.088 64.4579 65.168 64.0099 65.168C63.5619 65.168 63.1539 65.088 62.7859 64.928C62.4179 64.768 62.1019 64.544 61.8379 64.256C61.5739 63.968 61.3659 63.62 61.2139 63.212C61.0699 62.804 60.9979 62.352 60.9979 61.856C60.9979 61.36 61.0699 60.912 61.2139 60.512C61.3659 60.104 61.5739 59.756 61.8379 59.468C62.1099 59.18 62.4299 58.96 62.7979 58.808C63.1659 58.648 63.5699 58.568 64.0099 58.568C64.4499 58.568 64.8539 58.648 65.2219 58.808C65.5979 58.96 65.9179 59.18 66.1819 59.468C66.4459 59.756 66.6499 60.104 66.7939 60.512C66.9459 60.912 67.0219 61.36 67.0219 61.856ZM65.5339 61.856C65.5339 61.232 65.3979 60.74 65.1259 60.38C64.8619 60.012 64.4899 59.828 64.0099 59.828C63.5299 59.828 63.1539 60.012 62.8819 60.38C62.6179 60.74 62.4859 61.232 62.4859 61.856C62.4859 62.488 62.6179 62.988 62.8819 63.356C63.1539 63.724 63.5299 63.908 64.0099 63.908C64.4899 63.908 64.8619 63.724 65.1259 63.356C65.3979 62.988 65.5339 62.488 65.5339 61.856ZM72.6818 61.892C72.6818 61.244 72.5338 60.74 72.2378 60.38C71.9498 60.02 71.4818 59.84 70.8338 59.84C70.6978 59.84 70.5538 59.848 70.4018 59.864C70.2578 59.872 70.1138 59.896 69.9698 59.936V63.524C70.0978 63.612 70.2658 63.696 70.4738 63.776C70.6898 63.848 70.9178 63.884 71.1578 63.884C71.6858 63.884 72.0698 63.704 72.3098 63.344C72.5578 62.984 72.6818 62.5 72.6818 61.892ZM74.1698 61.868C74.1698 62.348 74.1058 62.788 73.9778 63.188C73.8578 63.588 73.6818 63.932 73.4498 64.22C73.2178 64.508 72.9258 64.732 72.5738 64.892C72.2298 65.052 71.8378 65.132 71.3978 65.132C71.1018 65.132 70.8298 65.096 70.5818 65.024C70.3338 64.952 70.1298 64.872 69.9698 64.784V67.22H68.5178V58.928C68.8138 58.848 69.1778 58.772 69.6098 58.7C70.0418 58.628 70.4978 58.592 70.9778 58.592C71.4738 58.592 71.9178 58.668 72.3098 58.82C72.7018 58.972 73.0338 59.192 73.3058 59.48C73.5858 59.76 73.7978 60.104 73.9418 60.512C74.0938 60.912 74.1698 61.364 74.1698 61.868ZM80.6496 58.724C80.0016 61.108 79.2496 63.268 78.3936 65.204C78.2336 65.564 78.0696 65.872 77.9016 66.128C77.7336 66.384 77.5456 66.596 77.3376 66.764C77.1296 66.932 76.8976 67.052 76.6416 67.124C76.3856 67.204 76.0896 67.244 75.7536 67.244C75.5296 67.244 75.3056 67.22 75.0816 67.172C74.8656 67.124 74.7016 67.072 74.5896 67.016L74.8536 65.852C75.1416 65.964 75.4256 66.02 75.7056 66.02C76.0816 66.02 76.3736 65.928 76.5816 65.744C76.7976 65.568 76.9856 65.292 77.1456 64.916C76.6896 64.036 76.2496 63.076 75.8256 62.036C75.4096 60.996 75.0376 59.892 74.7096 58.724H76.2576C76.3376 59.06 76.4336 59.424 76.5456 59.816C76.6656 60.208 76.7936 60.608 76.9296 61.016C77.0656 61.416 77.2096 61.816 77.3616 62.216C77.5136 62.616 77.6656 62.988 77.8176 63.332C78.0736 62.62 78.3136 61.864 78.5376 61.064C78.7616 60.256 78.9656 59.476 79.1496 58.724H80.6496ZM90.417 56.684V57.992H87.861V65H86.337V57.992H83.781V56.684H90.417ZM94.6406 60.032C94.5206 59.992 94.3526 59.952 94.1366 59.912C93.9286 59.864 93.6846 59.84 93.4046 59.84C93.2446 59.84 93.0726 59.856 92.8886 59.888C92.7126 59.92 92.5886 59.948 92.5166 59.972V65H91.0646V59.024C91.3446 58.92 91.6926 58.824 92.1086 58.736C92.5326 58.64 93.0006 58.592 93.5126 58.592C93.6086 58.592 93.7206 58.6 93.8486 58.616C93.9766 58.624 94.1046 58.64 94.2326 58.664C94.3606 58.68 94.4846 58.704 94.6046 58.736C94.7246 58.76 94.8206 58.784 94.8926 58.808L94.6406 60.032ZM98.1125 63.98C98.5605 63.98 98.9005 63.956 99.1325 63.908V62.3C99.0525 62.276 98.9365 62.252 98.7845 62.228C98.6325 62.204 98.4645 62.192 98.2805 62.192C98.1205 62.192 97.9565 62.204 97.7885 62.228C97.6285 62.252 97.4805 62.296 97.3445 62.36C97.2165 62.424 97.1125 62.516 97.0325 62.636C96.9525 62.748 96.9125 62.892 96.9125 63.068C96.9125 63.412 97.0205 63.652 97.2365 63.788C97.4525 63.916 97.7445 63.98 98.1125 63.98ZM97.9925 58.568C98.4725 58.568 98.8765 58.628 99.2045 58.748C99.5325 58.868 99.7925 59.036 99.9845 59.252C100.184 59.468 100.324 59.732 100.404 60.044C100.492 60.348 100.536 60.684 100.536 61.052V64.856C100.312 64.904 99.9725 64.96 99.5165 65.024C99.0685 65.096 98.5605 65.132 97.9925 65.132C97.6165 65.132 97.2725 65.096 96.9605 65.024C96.6485 64.952 96.3805 64.836 96.1565 64.676C95.9405 64.516 95.7685 64.308 95.6405 64.052C95.5205 63.796 95.4605 63.48 95.4605 63.104C95.4605 62.744 95.5285 62.44 95.6645 62.192C95.8085 61.944 96.0005 61.744 96.2405 61.592C96.4805 61.432 96.7565 61.32 97.0685 61.256C97.3885 61.184 97.7205 61.148 98.0645 61.148C98.2245 61.148 98.3925 61.16 98.5685 61.184C98.7445 61.2 98.9325 61.232 99.1325 61.28V61.04C99.1325 60.872 99.1125 60.712 99.0725 60.56C99.0325 60.408 98.9605 60.276 98.8565 60.164C98.7605 60.044 98.6285 59.952 98.4605 59.888C98.3005 59.824 98.0965 59.792 97.8485 59.792C97.5125 59.792 97.2045 59.816 96.9245 59.864C96.6445 59.912 96.4165 59.968 96.2405 60.032L96.0605 58.856C96.2445 58.792 96.5125 58.728 96.8645 58.664C97.2165 58.6 97.5925 58.568 97.9925 58.568ZM103.455 61.844C103.455 62.484 103.607 62.988 103.911 63.356C104.215 63.716 104.635 63.896 105.171 63.896C105.403 63.896 105.599 63.888 105.759 63.872C105.927 63.848 106.063 63.824 106.167 63.8V60.2C106.039 60.112 105.867 60.032 105.651 59.96C105.443 59.88 105.219 59.84 104.979 59.84C104.451 59.84 104.063 60.02 103.815 60.38C103.575 60.74 103.455 61.228 103.455 61.844ZM107.619 64.808C107.331 64.896 106.967 64.976 106.527 65.048C106.095 65.12 105.639 65.156 105.159 65.156C104.663 65.156 104.219 65.08 103.827 64.928C103.435 64.776 103.099 64.56 102.819 64.28C102.547 63.992 102.335 63.648 102.183 63.248C102.039 62.84 101.967 62.384 101.967 61.88C101.967 61.384 102.027 60.936 102.147 60.536C102.275 60.128 102.459 59.78 102.699 59.492C102.939 59.204 103.231 58.984 103.575 58.832C103.919 58.672 104.315 58.592 104.763 58.592C105.067 58.592 105.335 58.628 105.567 58.7C105.799 58.772 105.999 58.852 106.167 58.94V55.928L107.619 55.688V64.808ZM109.115 61.892C109.115 61.34 109.195 60.856 109.355 60.44C109.523 60.024 109.743 59.68 110.015 59.408C110.287 59.128 110.599 58.92 110.951 58.784C111.303 58.64 111.663 58.568 112.031 58.568C112.895 58.568 113.567 58.836 114.047 59.372C114.535 59.908 114.779 60.708 114.779 61.772C114.779 61.852 114.775 61.944 114.767 62.048C114.767 62.144 114.763 62.232 114.755 62.312H110.615C110.655 62.816 110.831 63.208 111.143 63.488C111.463 63.76 111.923 63.896 112.523 63.896C112.875 63.896 113.195 63.864 113.483 63.8C113.779 63.736 114.011 63.668 114.179 63.596L114.371 64.784C114.291 64.824 114.179 64.868 114.035 64.916C113.899 64.956 113.739 64.992 113.555 65.024C113.379 65.064 113.187 65.096 112.979 65.12C112.771 65.144 112.559 65.156 112.343 65.156C111.791 65.156 111.311 65.076 110.903 64.916C110.495 64.748 110.159 64.52 109.895 64.232C109.631 63.936 109.435 63.592 109.307 63.2C109.179 62.8 109.115 62.364 109.115 61.892ZM113.327 61.244C113.327 61.044 113.299 60.856 113.243 60.68C113.187 60.496 113.103 60.34 112.991 60.212C112.887 60.076 112.755 59.972 112.595 59.9C112.443 59.82 112.259 59.78 112.043 59.78C111.819 59.78 111.623 59.824 111.455 59.912C111.287 59.992 111.143 60.1 111.023 60.236C110.911 60.372 110.823 60.528 110.759 60.704C110.695 60.88 110.651 61.06 110.627 61.244H113.327ZM121.207 63.872C121.751 63.872 122.147 63.78 122.395 63.596C122.643 63.412 122.767 63.152 122.767 62.816C122.767 62.616 122.723 62.444 122.635 62.3C122.555 62.156 122.435 62.028 122.275 61.916C122.123 61.796 121.935 61.688 121.711 61.592C121.487 61.488 121.231 61.388 120.943 61.292C120.655 61.188 120.375 61.076 120.103 60.956C119.839 60.828 119.603 60.672 119.395 60.488C119.195 60.304 119.031 60.084 118.903 59.828C118.783 59.572 118.723 59.264 118.723 58.904C118.723 58.152 118.983 57.564 119.503 57.14C120.023 56.708 120.731 56.492 121.627 56.492C122.147 56.492 122.607 56.552 123.007 56.672C123.415 56.784 123.735 56.908 123.967 57.044L123.499 58.268C123.227 58.116 122.927 58 122.599 57.92C122.279 57.84 121.947 57.8 121.603 57.8C121.195 57.8 120.875 57.884 120.643 58.052C120.419 58.22 120.307 58.456 120.307 58.76C120.307 58.944 120.343 59.104 120.415 59.24C120.495 59.368 120.603 59.484 120.739 59.588C120.883 59.692 121.047 59.788 121.231 59.876C121.423 59.964 121.631 60.048 121.855 60.128C122.247 60.272 122.595 60.42 122.899 60.572C123.211 60.716 123.471 60.892 123.679 61.1C123.895 61.3 124.059 61.54 124.171 61.82C124.283 62.092 124.339 62.424 124.339 62.816C124.339 63.568 124.071 64.152 123.535 64.568C123.007 64.976 122.231 65.18 121.207 65.18C120.863 65.18 120.547 65.156 120.259 65.108C119.979 65.068 119.727 65.016 119.503 64.952C119.287 64.888 119.099 64.824 118.939 64.76C118.779 64.688 118.651 64.624 118.555 64.568L118.999 63.332C119.215 63.452 119.507 63.572 119.875 63.692C120.243 63.812 120.687 63.872 121.207 63.872ZM125.252 61.892C125.252 61.34 125.332 60.856 125.492 60.44C125.66 60.024 125.88 59.68 126.152 59.408C126.424 59.128 126.736 58.92 127.088 58.784C127.44 58.64 127.8 58.568 128.168 58.568C129.032 58.568 129.704 58.836 130.184 59.372C130.672 59.908 130.916 60.708 130.916 61.772C130.916 61.852 130.912 61.944 130.904 62.048C130.904 62.144 130.9 62.232 130.892 62.312H126.752C126.792 62.816 126.968 63.208 127.28 63.488C127.6 63.76 128.06 63.896 128.66 63.896C129.012 63.896 129.332 63.864 129.62 63.8C129.916 63.736 130.148 63.668 130.316 63.596L130.508 64.784C130.428 64.824 130.316 64.868 130.172 64.916C130.036 64.956 129.876 64.992 129.692 65.024C129.516 65.064 129.324 65.096 129.116 65.12C128.908 65.144 128.696 65.156 128.48 65.156C127.928 65.156 127.448 65.076 127.04 64.916C126.632 64.748 126.296 64.52 126.032 64.232C125.768 63.936 125.572 63.592 125.444 63.2C125.316 62.8 125.252 62.364 125.252 61.892ZM129.464 61.244C129.464 61.044 129.436 60.856 129.38 60.68C129.324 60.496 129.24 60.34 129.128 60.212C129.024 60.076 128.892 59.972 128.732 59.9C128.58 59.82 128.396 59.78 128.18 59.78C127.956 59.78 127.76 59.824 127.592 59.912C127.424 59.992 127.28 60.1 127.16 60.236C127.048 60.372 126.96 60.528 126.896 60.704C126.832 60.88 126.788 61.06 126.764 61.244H129.464ZM136.031 60.032C135.911 59.992 135.743 59.952 135.527 59.912C135.319 59.864 135.075 59.84 134.795 59.84C134.635 59.84 134.463 59.856 134.279 59.888C134.103 59.92 133.979 59.948 133.907 59.972V65H132.455V59.024C132.735 58.92 133.083 58.824 133.499 58.736C133.923 58.64 134.391 58.592 134.903 58.592C134.999 58.592 135.111 58.6 135.239 58.616C135.367 58.624 135.495 58.64 135.623 58.664C135.751 58.68 135.875 58.704 135.995 58.736C136.115 58.76 136.211 58.784 136.283 58.808L136.031 60.032ZM139.114 65C138.714 64.176 138.302 63.232 137.878 62.168C137.462 61.096 137.082 59.948 136.738 58.724H138.286C138.374 59.076 138.474 59.456 138.586 59.864C138.706 60.264 138.83 60.668 138.958 61.076C139.094 61.476 139.23 61.868 139.366 62.252C139.51 62.628 139.642 62.968 139.762 63.272C139.882 62.968 140.01 62.628 140.146 62.252C140.282 61.868 140.414 61.476 140.542 61.076C140.678 60.668 140.806 60.264 140.926 59.864C141.046 59.456 141.15 59.076 141.238 58.724H142.738C142.394 59.948 142.01 61.096 141.586 62.168C141.17 63.232 140.762 64.176 140.362 65H139.114ZM145.286 65H143.834V58.724H145.286V65ZM145.442 56.888C145.442 57.16 145.354 57.376 145.178 57.536C145.002 57.696 144.794 57.776 144.554 57.776C144.306 57.776 144.094 57.696 143.918 57.536C143.742 57.376 143.654 57.16 143.654 56.888C143.654 56.608 143.742 56.388 143.918 56.228C144.094 56.068 144.306 55.988 144.554 55.988C144.794 55.988 145.002 56.068 145.178 56.228C145.354 56.388 145.442 56.608 145.442 56.888ZM146.791 61.868C146.791 61.404 146.863 60.972 147.007 60.572C147.151 60.164 147.355 59.812 147.619 59.516C147.891 59.22 148.219 58.988 148.603 58.82C148.987 58.652 149.419 58.568 149.899 58.568C150.491 58.568 151.051 58.676 151.579 58.892L151.267 60.08C151.099 60.008 150.907 59.948 150.691 59.9C150.483 59.852 150.259 59.828 150.019 59.828C149.451 59.828 149.019 60.008 148.723 60.368C148.427 60.72 148.279 61.22 148.279 61.868C148.279 62.492 148.419 62.988 148.699 63.356C148.979 63.716 149.451 63.896 150.115 63.896C150.363 63.896 150.607 63.872 150.847 63.824C151.087 63.776 151.295 63.716 151.471 63.644L151.675 64.844C151.515 64.924 151.271 64.996 150.943 65.06C150.623 65.124 150.291 65.156 149.947 65.156C149.411 65.156 148.943 65.076 148.543 64.916C148.151 64.748 147.823 64.52 147.559 64.232C147.303 63.936 147.111 63.588 146.983 63.188C146.855 62.78 146.791 62.34 146.791 61.868ZM152.451 61.892C152.451 61.34 152.531 60.856 152.691 60.44C152.859 60.024 153.079 59.68 153.351 59.408C153.623 59.128 153.935 58.92 154.287 58.784C154.639 58.64 154.999 58.568 155.367 58.568C156.231 58.568 156.903 58.836 157.383 59.372C157.871 59.908 158.115 60.708 158.115 61.772C158.115 61.852 158.111 61.944 158.103 62.048C158.103 62.144 158.099 62.232 158.091 62.312H153.951C153.991 62.816 154.167 63.208 154.479 63.488C154.799 63.76 155.259 63.896 155.859 63.896C156.211 63.896 156.531 63.864 156.819 63.8C157.115 63.736 157.347 63.668 157.515 63.596L157.707 64.784C157.627 64.824 157.515 64.868 157.371 64.916C157.235 64.956 157.075 64.992 156.891 65.024C156.715 65.064 156.523 65.096 156.315 65.12C156.107 65.144 155.895 65.156 155.679 65.156C155.127 65.156 154.647 65.076 154.239 64.916C153.831 64.748 153.495 64.52 153.231 64.232C152.967 63.936 152.771 63.592 152.643 63.2C152.515 62.8 152.451 62.364 152.451 61.892ZM156.663 61.244C156.663 61.044 156.635 60.856 156.579 60.68C156.523 60.496 156.439 60.34 156.327 60.212C156.223 60.076 156.091 59.972 155.931 59.9C155.779 59.82 155.595 59.78 155.379 59.78C155.155 59.78 154.959 59.824 154.791 59.912C154.623 59.992 154.479 60.1 154.359 60.236C154.247 60.372 154.159 60.528 154.095 60.704C154.031 60.88 153.987 61.06 153.963 61.244H156.663Z" fill="#979797"/>
<path d="M51.927 41.2753V43.6179H43.4183V46.6202H20.6637V43.6179H12.2087V41.2753H20.6637V38.1025H43.4183V41.2753H51.927Z" fill="#0080FF"/>
<path d="M51.927 9.05859V39.3605H45.2802V36.1877H18.8018V39.3605H12.2087V9.05859H18.799V34.6543H45.283V9.05859H51.927Z" fill="url(#paint0_linear)"/>
<path d="M45.2802 45.5347H51.927V49.9426H12.2087V45.5347H18.8018V48.5369H45.2802V45.5347Z" fill="url(#paint1_linear)"/>
<path d="M51.9268 41.2753V43.6179H43.4182V46.6202H20.6636V43.6179H12.126V41.2753H20.6636V38.1025H43.4182V41.2753H51.9268Z" fill="#606060"/>
<path d="M51.9268 41.2753V43.6179H43.4182V46.6202H20.6636V43.6179H12.126V41.2753H20.6636V38.1025H43.4182V41.2753H51.9268Z" fill="url(#paint2_linear)"/>
<path d="M43.4209 9.05859V32.7377H20.6607V9.05859L21.3375 11.2256L26.2084 26.8181L31.3288 11.2256L32.0408 9.05859L32.7092 11.2256L37.5173 26.8181L42.7004 11.2256L43.4209 9.05859Z" fill="url(#paint3_linear)"/>
<path d="M63.7369 26.3839H59.8848V9.48584H64.4595C65.4514 9.48584 66.2833 9.56131 66.9545 9.71081C67.9612 9.93578 68.698 10.3269 69.1654 10.8821C69.5736 11.3632 69.8654 11.9336 70.041 12.594C70.1721 13.1049 70.2377 13.7581 70.2377 14.5542C70.2377 15.6355 70.0988 16.5448 69.8217 17.2799C69.4713 18.2117 68.8876 18.8721 68.0705 19.2626C67.6468 19.473 67.1843 19.616 66.681 19.6907C66.1776 19.7662 65.5974 19.8032 64.941 19.8032H63.7369V26.3839ZM63.7369 12.5273V16.7632H64.284C64.6343 16.7632 64.9368 16.7371 65.192 16.6841C65.4472 16.6319 65.6848 16.515 65.9033 16.3351C66.093 16.1246 66.2206 15.8808 66.2862 15.6028C66.3517 15.3249 66.3849 14.9983 66.3849 14.6231C66.3849 14.1579 66.3482 13.7893 66.2756 13.5193C66.1586 13.0839 65.9548 12.7987 65.6629 12.663C65.5022 12.6028 65.3238 12.5657 65.1264 12.5505C64.9297 12.536 64.6781 12.528 64.3714 12.528H64.1528H63.7369V12.5273Z" fill="white"/>
<path d="M75.6654 19.7147V26.3839H71.8133V9.48584H77.4385C79.0579 9.48584 80.2507 9.85014 81.0171 10.5788C81.7834 11.3074 82.1662 12.4975 82.1662 14.15C82.1662 15.1413 82.0351 15.9149 81.7721 16.4708C81.4654 17.1166 80.9184 17.6275 80.1309 18.0027C80.6998 18.153 81.1595 18.4236 81.5099 18.8141C81.8602 19.2045 82.0351 19.6777 82.0351 20.2336C82.0351 21.0449 82.0682 22.0021 82.1338 23.1059C82.1993 24.2097 82.2832 25.0327 82.3855 25.5733C82.4877 25.8288 82.6118 26.024 82.7577 26.159V26.3839H78.5764C78.5037 26.1735 78.4495 26.0008 78.4128 25.8658C78.3768 25.7308 78.3585 25.5806 78.3585 25.4151V23.7932V23.4775V23.2068C78.3585 22.5007 78.3289 21.8925 78.2704 21.3816C78.2119 20.8715 78.0864 20.4658 77.8953 20.1653C77.7036 19.8649 77.3877 19.7147 76.9464 19.7147H75.6654ZM75.6654 12.5273V16.6732H76.9788C77.4892 16.6732 77.8467 16.4744 78.0511 16.076C78.2556 15.6783 78.3578 15.1783 78.3578 14.5774C78.3578 13.6463 78.1463 13.0534 77.7233 12.7972C77.4166 12.6173 76.7307 12.5273 75.6654 12.5273Z" fill="white"/>
<path d="M94.3791 14.1044V20.9762C94.3791 22.9588 94.0068 24.4008 93.2631 25.3021C92.446 26.2789 91.0888 26.7666 89.1917 26.7666C87.2945 26.7666 85.9303 26.2789 85.0984 25.3021C84.3251 24.4008 83.9387 22.9588 83.9387 20.9762V14.1044C83.9387 12.4825 84.3906 11.2357 85.2958 10.3641C86.2004 9.49328 87.499 9.05713 89.1917 9.05713C90.8696 9.05713 92.1534 9.49328 93.0438 10.3641C93.9342 11.2357 94.3791 12.4825 94.3791 14.1044ZM90.5269 21.3143V14.3751C90.5269 13.6842 90.4614 13.1733 90.3303 12.8431C90.1258 12.3475 89.7395 12.1 89.1705 12.1C88.6305 12.1 88.2512 12.3475 88.0327 12.8431C87.8719 13.2038 87.7923 13.7147 87.7923 14.3751V21.3143C87.7923 21.99 87.8649 22.5081 88.0108 22.8688C88.2442 23.4399 88.6383 23.7251 89.1931 23.7251C89.7472 23.7251 90.1265 23.4472 90.331 22.8913C90.4614 22.5313 90.5269 22.0052 90.5269 21.3143Z" fill="white"/>
<path d="M100.158 26.3839H96.3057V9.48584H105.367V12.8655H100.158V15.8394H104.951V19.219H100.158V26.3839Z" fill="white"/>
<path d="M111.145 26.3839H107.293V9.48584H111.145V26.3839Z" fill="white"/>
<path d="M112.743 12.8655V9.48584H122.724V12.8655H119.615V26.3839H115.763V12.8655H112.743Z" fill="white"/>
<path d="M63.7369 42.8902V49.5595H59.8848V32.6621H65.51C67.1293 32.6621 68.3222 33.0264 69.0885 33.755C69.8549 34.4836 70.2377 35.6738 70.2377 37.3262C70.2377 38.3175 70.1065 39.0911 69.8436 39.647C69.5369 40.2929 68.9898 40.8038 68.2023 41.179C68.7713 41.3292 69.2309 41.5999 69.5813 41.9903C69.9317 42.3808 70.1065 42.8539 70.1065 43.4098C70.1065 44.2212 70.1397 45.1784 70.2052 46.2822C70.2708 47.386 70.3547 48.2089 70.4569 48.7496C70.5592 49.005 70.6832 49.2003 70.8292 49.3352V49.5602H66.6478C66.5752 49.3497 66.5209 49.177 66.4843 49.042C66.4483 48.9071 66.43 48.7568 66.43 48.5914V46.9694V46.6537V46.3831C66.43 45.6769 66.4004 45.0688 66.3419 44.5579C66.2833 44.0477 66.1578 43.6421 65.9668 43.3416C65.775 43.0412 65.4592 42.891 65.0179 42.891H63.7369V42.8902ZM63.7369 35.7035V39.8495H65.0503C65.5607 39.8495 65.9181 39.6507 66.1226 39.2523C66.327 38.8546 66.4293 38.3546 66.4293 37.7537C66.4293 36.8226 66.2178 36.2297 65.7948 35.9735C65.4881 35.7935 64.8014 35.7035 63.7369 35.7035Z" fill="white"/>
<path d="M75.2058 49.5597H71.3318L74.9216 32.6616H79.5619L83.1299 49.5597H79.2341L78.687 46.2701H75.6668L75.2058 49.5597ZM78.3141 43.2961L77.2418 35.7031L76.0821 43.2961H78.3141Z" fill="white"/>
<path d="M89.4982 49.5595H84.3109V32.6621H88.4915C89.4108 32.6621 90.2209 32.7107 90.9209 32.8087C91.621 32.9067 92.2562 33.1208 92.8251 33.451C93.4963 33.8566 93.9708 34.4575 94.2478 35.2536C94.4523 35.8545 94.5545 36.6433 94.5545 37.6194V45.1218C94.5545 46.849 94.0074 48.066 92.9133 48.7714C92.4458 49.087 91.9389 49.2975 91.3919 49.402C90.8441 49.5072 90.2131 49.5595 89.4982 49.5595ZM88.163 35.7035V46.518C89.3594 46.518 90.1031 46.2778 90.3957 45.7974C90.6001 45.4672 90.7024 44.6559 90.7024 43.3641V37.8444C90.7024 36.9133 90.5346 36.3233 90.199 36.0758C89.8627 35.8269 89.1845 35.7035 88.163 35.7035Z" fill="white"/>
<path d="M105.564 49.5595H96.4808V32.6621H105.302V36.0417H100.334V39.1507H105.149V42.5303H100.334V46.1799H105.565V49.5595H105.564Z" fill="white"/>
<path d="M111.189 42.8902V49.5595H107.337V32.6621H112.962C114.582 32.6621 115.774 33.0264 116.541 33.755C117.307 34.4836 117.69 35.6738 117.69 37.3262C117.69 38.3175 117.559 39.0911 117.296 39.647C116.989 40.2929 116.442 40.8038 115.655 41.179C116.223 41.3292 116.683 41.5999 117.034 41.9903C117.384 42.3808 117.559 42.8539 117.559 43.4098C117.559 44.2212 117.592 45.1784 117.657 46.2822C117.723 47.386 117.807 48.2089 117.909 48.7496C118.011 49.005 118.135 49.2003 118.281 49.3352V49.5602H114.1C114.027 49.3497 113.973 49.177 113.936 49.042C113.901 48.9071 113.882 48.7568 113.882 48.5914V46.9694V46.6537V46.3831C113.882 45.6769 113.853 45.0688 113.794 44.5579C113.736 44.0477 113.61 43.6421 113.419 43.3416C113.227 43.0412 112.911 42.891 112.47 42.891H111.189V42.8902ZM111.189 35.7035V39.8495H112.503C113.013 39.8495 113.37 39.6507 113.575 39.2523C113.779 38.8546 113.881 38.3546 113.881 37.7537C113.881 36.8226 113.67 36.2297 113.247 35.9735C112.94 35.7935 112.254 35.7035 111.189 35.7035Z" fill="white"/>
<path d="M118.937 43.905H122.505V45.09C122.505 45.6416 122.618 46.0814 122.844 46.4094C123.07 46.7374 123.468 46.9014 124.037 46.9014C124.46 46.9014 124.781 46.7403 125 46.4174C125.219 46.0944 125.328 45.6931 125.328 45.212C125.328 44.5966 125.102 44.0704 124.65 43.635C124.461 43.455 123.972 43.1168 123.184 42.6212C122.498 42.2155 121.958 41.8701 121.564 41.5849C121.039 41.2097 120.605 40.8113 120.262 40.3911C119.919 39.9709 119.65 39.4825 119.452 38.9266C119.256 38.3707 119.157 37.7401 119.157 37.034C119.157 35.4722 119.583 34.2821 120.437 33.4628C121.291 32.6442 122.476 32.2349 123.994 32.2349C125.613 32.2349 126.846 32.7479 127.693 33.7734C128.481 34.7386 128.875 36.0586 128.875 37.7321H125.329C125.329 36.989 125.278 36.4585 125.175 36.1406C124.983 35.5644 124.608 35.2763 124.05 35.2763C123.152 35.2763 122.703 35.637 122.703 36.3576C122.703 36.5078 122.703 36.6131 122.703 36.6733C122.703 37.0492 122.805 37.3758 123.008 37.653C123.212 37.9309 123.503 38.2053 123.88 38.4752C124.811 39.0464 125.472 39.452 125.865 39.6915C126.548 40.1124 127.079 40.5028 127.458 40.8628C127.937 41.3287 128.294 41.8657 128.526 42.4739C128.758 43.082 128.875 43.8897 128.875 44.8956C128.875 46.5175 128.452 47.765 127.608 48.6358C126.763 49.5074 125.54 49.9428 123.939 49.9428C122.279 49.9428 121.005 49.5169 120.117 48.6634C119.331 47.9 118.938 46.913 118.938 45.7004V43.905H118.937Z" fill="white"/>
<defs>
<linearGradient id="paint0_linear" x1="32.068" y1="9.0587" x2="32.068" y2="39.3602" gradientUnits="userSpaceOnUse">
<stop stop-color="#A1CA2E"/>
<stop offset="1" stop-color="#2BA040"/>
</linearGradient>
<linearGradient id="paint1_linear" x1="32.068" y1="45.5346" x2="32.068" y2="49.9425" gradientUnits="userSpaceOnUse">
<stop stop-color="#A1CA2E"/>
<stop offset="1" stop-color="#2BA040"/>
</linearGradient>
<linearGradient id="paint2_linear" x1="32.0265" y1="46.6205" x2="32.0265" y2="38.1028" gradientUnits="userSpaceOnUse">
<stop stop-color="#FF3D22"/>
<stop offset="1" stop-color="#FF8516"/>
</linearGradient>
<linearGradient id="paint3_linear" x1="32.0409" y1="32.7379" x2="32.0409" y2="9.0587" gradientUnits="userSpaceOnUse">
<stop stop-color="#FF3D22"/>
<stop offset="1" stop-color="#FF8516"/>
</linearGradient>
</defs>
</svg>
