<svg width="133" height="133" fill="none" xmlns="http://www.w3.org/2000/svg"><path d="M55.417 59.85h22.167a6.65 6.65 0 006.65-6.65V31.033h4.433a4.433 4.433 0 003.134-7.567L69.635 1.299a4.433 4.433 0 00-6.269 0L41.199 23.466a4.433 4.433 0 003.135 7.567h4.433V53.2a6.65 6.65 0 006.65 6.65zM44.334 26.6L66.5 4.433 88.69 26.6h-6.673a2.217 2.217 0 00-2.217 2.217V53.2a2.217 2.217 0 01-2.216 2.217H55.417A2.217 2.217 0 0153.2 53.2V28.817a2.217 2.217 0 00-2.216-2.217h-6.65z" fill="url(#paint0_linear)"/><path d="M37.684 64.283V35.467a2.217 2.217 0 10-4.434 0v28.816a2.217 2.217 0 104.434 0z" fill="url(#paint1_linear)"/><path d="M24.384 77.583V48.767a2.217 2.217 0 10-4.434 0v28.816a2.217 2.217 0 104.434 0z" fill="url(#paint2_linear)"/><path d="M99.75 64.283V35.467a2.217 2.217 0 10-4.433 0v28.816a2.217 2.217 0 104.433 0z" fill="url(#paint3_linear)"/><path d="M113.05 77.583V48.767a2.216 2.216 0 10-4.433 0v28.816a2.216 2.216 0 104.433 0z" fill="url(#paint4_linear)"/><path d="M2.217 103.075v15.517C2.217 127.95 19.35 133 35.467 133c12.666 0 25.922-3.132 31.033-9.009C71.612 129.868 84.868 133 97.534 133c16.117 0 33.25-5.05 33.25-14.408v-15.517c0-8.931-15.599-13.925-31.034-14.366v-7.8c0-9.36-17.132-14.41-33.25-14.41a76.198 76.198 0 00-12.947 1.074 2.217 2.217 0 10.758 4.369 71.626 71.626 0 0112.19-1.009c16.491 0 28.816 5.267 28.816 9.975 0 1.898-2.124 3.99-5.828 5.764A56.454 56.454 0 0166.5 90.883a56.453 56.453 0 01-22.989-4.211c-3.704-1.774-5.827-3.866-5.827-5.764 0-1.995 2.414-4.258 6.457-6.04a2.217 2.217 0 10-1.787-4.057c-5.872 2.585-9.104 6.171-9.104 10.097v7.8c-15.434.442-31.033 5.436-31.033 14.367zm33.25 25.492c-16.492 0-28.817-5.267-28.817-9.975v-8.08c1.23.9 2.544 1.676 3.926 2.316a60.952 60.952 0 0024.891 4.655 60.924 60.924 0 0024.907-4.655 24.128 24.128 0 003.524-2.044h.386v7.808c0 4.708-12.325 9.975-28.817 9.975zm62.067 0c-16.492 0-28.817-5.267-28.817-9.975v-7.801h.386a24.496 24.496 0 003.546 2.053 60.964 60.964 0 0024.885 4.639 60.955 60.955 0 0024.891-4.655 22.967 22.967 0 003.925-2.316v8.08c0 4.708-12.324 9.975-28.816 9.975zm28.816-25.492c0 1.897-2.123 3.99-5.827 5.763a56.46 56.46 0 01-22.99 4.212 61.783 61.783 0 01-20.011-3.017c12.045-1.756 22.228-6.395 22.228-13.608v-3.28c15.364.445 26.6 5.437 26.6 9.93zM41.61 90.662a60.96 60.96 0 0024.89 4.655 60.96 60.96 0 0024.891-4.655 23.05 23.05 0 003.926-2.317v8.08c0 4.708-12.325 9.975-28.817 9.975s-28.816-5.267-28.816-9.975v-8.08a23.05 23.05 0 003.925 2.317zm-8.36 2.482v3.28c0 7.212 10.181 11.853 22.227 13.609a61.77 61.77 0 01-20.01 3.017 56.458 56.458 0 01-22.99-4.212c-3.703-1.773-5.827-3.866-5.827-5.763 0-4.493 11.237-9.485 26.6-9.93z" fill="url(#paint5_linear)"/><defs><linearGradient id="paint0_linear" x1="87.746" y1="3.477" x2="18.066" y2="79.029" gradientUnits="userSpaceOnUse"><stop stop-color="#FF3D22"/><stop offset="1" stop-color="#FF8516"/></linearGradient><linearGradient id="paint1_linear" x1="37.237" y1="35.181" x2="24.93" y2="37.183" gradientUnits="userSpaceOnUse"><stop stop-color="#FF3D22"/><stop offset="1" stop-color="#FF8516"/></linearGradient><linearGradient id="paint2_linear" x1="23.938" y1="48.481" x2="11.63" y2="50.483" gradientUnits="userSpaceOnUse"><stop stop-color="#FF3D22"/><stop offset="1" stop-color="#FF8516"/></linearGradient><linearGradient id="paint3_linear" x1="99.304" y1="35.181" x2="86.996" y2="37.183" gradientUnits="userSpaceOnUse"><stop stop-color="#FF3D22"/><stop offset="1" stop-color="#FF8516"/></linearGradient><linearGradient id="paint4_linear" x1="112.604" y1="48.481" x2="100.296" y2="50.483" gradientUnits="userSpaceOnUse"><stop stop-color="#FF3D22"/><stop offset="1" stop-color="#FF8516"/></linearGradient><linearGradient id="paint5_linear" x1="117.846" y1="70.362" x2="62.01" y2="202.041" gradientUnits="userSpaceOnUse"><stop stop-color="#FF3D22"/><stop offset="1" stop-color="#FF8516"/></linearGradient></defs></svg>