<svg width="133" height="133" fill="none" xmlns="http://www.w3.org/2000/svg"><g clip-path="url(#clip0)"><path d="M106.4 53.2c14.669 0 26.6-11.932 26.6-26.6C133 11.932 121.069 0 106.4 0 95.749 0 86.565 6.307 82.321 15.37l-7.123-2.628c.085-.546.17-1.092.17-1.659C75.367 4.973 70.394 0 64.283 0S53.2 4.972 53.2 11.083s4.973 11.084 11.084 11.084c3.97 0 7.432-2.117 9.39-5.263l7.11 2.625A26.437 26.437 0 0079.8 26.6c0 2.904.483 5.692 1.348 8.31L56.769 45.243c-4.464-8.44-13.324-14.21-23.518-14.21-3.304 0-6.456.635-9.377 1.739l-6.131-12.886c2.67-2.026 4.424-5.2 4.424-8.803C22.167 4.973 17.195 0 11.084 0S0 4.972 0 11.083s4.973 11.084 11.084 11.084c.922 0 1.806-.147 2.665-.362l6.124 12.873C11.979 39.298 6.65 47.844 6.65 57.633c0 9.195 4.691 17.31 11.803 22.09l-4.055 7.288c-1.055-.333-2.153-.561-3.314-.561C4.973 86.45 0 91.422 0 97.533s4.973 11.084 11.084 11.084c6.11 0 11.083-4.973 11.083-11.084 0-3.356-1.531-6.332-3.894-8.365l4.063-7.304a26.395 26.395 0 0010.915 2.37c6.082 0 11.677-2.075 16.163-5.525l8.725 9.598c-4.424 4.753-7.155 11.102-7.155 18.093 0 1.356.135 2.678.33 3.979l-10.265 2.436c-1.767-3.777-5.578-6.415-10.015-6.415-6.111 0-11.083 4.972-11.083 11.083s4.972 11.084 11.083 11.084c6.11 0 11.083-4.973 11.083-11.084 0-.122-.033-.237-.036-.359l10.246-2.429C55.821 125.31 65.813 133 77.584 133c14.668 0 26.6-11.932 26.6-26.6 0-4.548-1.151-8.83-3.173-12.577l13.021-8.466a11.051 11.051 0 007.885 3.31c6.111 0 11.083-4.973 11.083-11.084 0-6.11-4.972-11.083-11.083-11.083s-11.083 4.972-11.083 11.083c0 1.432.294 2.793.791 4.05l-13.051 8.485a26.748 26.748 0 00-9.907-7.869l10.82-29.993c2.207.596 4.519.944 6.913.944zM64.284 17.733a6.659 6.659 0 01-6.65-6.65 6.659 6.659 0 016.65-6.65 6.659 6.659 0 016.65 6.65 6.659 6.659 0 01-6.65 6.65zm-59.85-6.65a6.659 6.659 0 016.65-6.65 6.659 6.659 0 016.65 6.65 6.659 6.659 0 01-6.65 6.65 6.659 6.659 0 01-6.65-6.65zm6.65 93.1a6.659 6.659 0 01-6.65-6.65 6.659 6.659 0 016.65-6.65 6.659 6.659 0 016.65 6.65 6.659 6.659 0 01-6.65 6.65zm19.95 19.95a6.659 6.659 0 01-6.65-6.65 6.659 6.659 0 016.65-6.65 6.659 6.659 0 016.65 6.65 6.659 6.659 0 01-6.65 6.65zm90.883-53.2a6.659 6.659 0 016.65 6.65 6.659 6.659 0 01-6.65 6.65 6.659 6.659 0 01-6.65-6.65 6.659 6.659 0 016.65-6.65zm-28.57-26.458c.989-5.127 5.508-9.008 10.837-9.008h4.433c5.329 0 9.849 3.881 10.838 9.008-3.667 2.684-8.171 4.292-13.055 4.292-4.883 0-9.387-1.608-13.054-4.292zM106.4 31.033a6.659 6.659 0 01-6.65-6.65 6.659 6.659 0 016.65-6.65 6.659 6.659 0 016.65 6.65 6.659 6.659 0 01-6.65 6.65zm0-26.6c12.224 0 22.167 9.944 22.167 22.167 0 5.542-2.06 10.605-5.435 14.495a15.705 15.705 0 00-8.827-8.966 11.03 11.03 0 003.179-7.746c0-6.11-4.973-11.083-11.084-11.083-6.11 0-11.083 4.972-11.083 11.083 0 3.015 1.217 5.745 3.179 7.746a15.702 15.702 0 00-8.827 8.966c-3.376-3.89-5.435-8.953-5.435-14.495 0-12.223 9.943-22.167 22.166-22.167zm-95.316 53.2c0-12.223 9.943-22.166 22.167-22.166 12.223 0 22.166 9.943 22.166 22.166 0 5.56-2.073 10.636-5.466 14.531a15.705 15.705 0 00-8.838-9.002c1.96-2 3.176-4.731 3.176-7.745 0-6.111-4.972-11.084-11.083-11.084-6.11 0-11.083 4.973-11.083 11.084 0 3.014 1.216 5.745 3.179 7.745a15.698 15.698 0 00-8.816 8.93c-3.357-3.885-5.402-8.932-5.402-14.459zm15.472-2.216a6.659 6.659 0 016.65-6.65 6.659 6.659 0 016.65 6.65 6.659 6.659 0 01-6.65 6.65 6.659 6.659 0 01-6.65-6.65zM20.16 75.479c1-5.113 5.513-8.979 10.83-8.979h4.434c5.338 0 9.866 3.894 10.842 9.038-3.66 2.668-8.15 4.262-13.014 4.262-4.901 0-9.42-1.618-13.092-4.32zm44.334 48.767c.999-5.113 5.512-8.979 10.83-8.979h4.433c5.338 0 9.867 3.894 10.842 9.037-3.66 2.668-8.149 4.263-13.014 4.263-4.901 0-9.419-1.618-13.091-4.321zm13.046-13.413a6.659 6.659 0 01-6.65-6.65 6.658 6.658 0 016.65-6.65 6.658 6.658 0 016.65 6.65 6.659 6.659 0 01-6.65 6.65zm22.212-4.433c0 5.559-2.073 10.635-5.466 14.531a15.703 15.703 0 00-8.839-9.002 11.038 11.038 0 003.177-7.746c0-6.11-4.973-11.083-11.084-11.083-6.11 0-11.083 4.972-11.083 11.083a11.03 11.03 0 003.179 7.746 15.697 15.697 0 00-8.816 8.93c-3.356-3.885-5.402-8.932-5.402-14.459 0-12.223 9.944-22.167 22.167-22.167S99.75 94.177 99.75 106.4zM84.498 80.744c-2.208-.596-4.52-.944-6.914-.944-6.083 0-11.678 2.075-16.164 5.524l-8.725-9.598c4.425-4.753 7.155-11.102 7.155-18.093 0-2.904-.482-5.692-1.347-8.31l24.379-10.332a26.743 26.743 0 0012.437 11.76L84.498 80.744z" fill="url(#paint0_linear)"/></g><defs><linearGradient id="paint0_linear" x1="119.617" y1="7.726" x2="-32.72" y2="193.548" gradientUnits="userSpaceOnUse"><stop stop-color="#FF3D22"/><stop offset="1" stop-color="#FF8516"/></linearGradient><clipPath id="clip0"><path fill="#fff" d="M0 0h133v133H0z"/></clipPath></defs></svg>