<svg width="613" height="462" fill="none" xmlns="http://www.w3.org/2000/svg"><g clip-path="url(#clip0)"><path opacity=".18" d="M280.361 8.304a178.572 178.572 0 0148.281 14.658c21.244 10.177 38.78 25.8 58.749 37.967 34.029 20.722 74.778 32.445 113.461 40.556 15.45 3.263 31.093 6.295 44.999 13.653 21.243 11.278 36.462 31.73 47.045 53.417 23.175 47.604 27.404 105.347 6.779 154.206-20.163 47.488-66.223 87.599-118.56 92.697-66.049 6.779-132.079 19.718-198.244 27.906-45.944 6.798-92.082 13.518-138.529 14.117-19.312.212-39.127-.734-57.532-6.972-34.53-11.761-65.72-35.997-79.24-70.604a112.647 112.647 0 012.647-87.58c7.725-16.782 19.737-31.594 25.357-49.207 5.08-15.913 4.52-32.714 3.747-49.187a122.358 122.358 0 015.697-45.345c9.154-29.914 23.58-58.515 43.955-82.307 25.107-29.45 59.676-51.505 97.741-58.612a232.746 232.746 0 0144.593-3.148 318.498 318.498 0 0149.054 3.785z" fill="url(#paint0_linear)"/><path d="M177.116 335.333a13.23 13.23 0 001.062 5.639 9.44 9.44 0 004.094 3.862 16.28 16.28 0 0011.993 1.178 2.408 2.408 0 001.391-.83c.192-.368.273-.784.232-1.197a8.868 8.868 0 00-3.129-5.64 19.432 19.432 0 01-4.326-4.943c-1.931-3.708-.464-13.519-7.455-12.012-5.832 1.216-4.017 9.752-3.862 13.943z" fill="#FFBAA8"/><path d="M176.15 341.957s-.985 2.433.232 3.862c1.216 1.429 13.77 9.231 22.229 2.955 8.458-6.277-11.472-7.107-11.472-7.107l-10.989.29z" fill="url(#paint1_linear)"/><path d="M176.652 336.26a1.792 1.792 0 012.26.598 7.362 7.362 0 006.721 2.337c2.742-.656 3.862-3.862 5.214-3.862 1.352 0 8.691 6.218 9.096 8.883.406 2.665-3.322 4.635-7.454 4.886-4.133.251-13.519-2.588-15.238-4.77a8.74 8.74 0 01-.599-8.072z" fill="#fff"/><path d="M153.149 339.079a13.23 13.23 0 001.062 5.639 9.39 9.39 0 004.114 3.863 16.223 16.223 0 0011.973 1.178 2.417 2.417 0 001.43-.908c.192-.368.273-.784.231-1.197a8.862 8.862 0 00-3.128-5.639 19.453 19.453 0 01-4.326-4.944c-1.835-3.708-.464-13.519-7.455-11.993-5.871 1.352-4.056 9.888-3.901 14.001z" fill="#FFBAA8"/><path d="M152.183 345.78s-.985 2.434.232 3.863c1.217 1.429 13.77 9.231 22.229 2.955 8.459-6.277-11.472-7.107-11.472-7.107l-10.989.289z" fill="url(#paint2_linear)"/><path d="M152.685 340.103a1.775 1.775 0 012.26.579 7.375 7.375 0 006.721 2.376c2.742-.657 3.862-3.863 5.233-3.863 1.371 0 8.672 6.219 9.077 8.884.406 2.665-3.322 4.634-7.454 4.886-4.133.251-13.519-2.588-15.238-4.771a8.701 8.701 0 01-.599-8.091z" fill="#fff"/><path d="M148.166 235.915s-1.313 71.782 3.998 95.729l13.519 1.661 9.347-98.278-26.864.888z" fill="#473F47"/><path d="M189.843 228.074s6.354 38.624-1.352 100.905l-13.519 1.68-9.347-98.298 24.218-4.287z" fill="#473F47"/><path d="M188.607 197.793c0 1.294.174 2.607.174 3.863 0 7.164-1.661 14.541.482 21.571a7.838 7.838 0 01.58 4.789 5.798 5.798 0 01-2.994 2.878c-6.315 3.457-13.518 4.519-20.741 5.523-5.35.753-12.959 2.337-17.903-.541a8.98 8.98 0 01-3.515-5.793 110.086 110.086 0 01-3.341-22.595c0-1.004-.135-1.931-.193-2.974a261.594 261.594 0 01-.425-20.587c0-4.982.502-10.37 3.747-14.136 4.326-5.002 12.688-8.324 19.042-9.482a21.42 21.42 0 016.276-.309 26.593 26.593 0 018.459 2.877c3.168 1.564 5.968 2.878 7.513 5.987a42.735 42.735 0 013.534 11.375c.567 3.688.632 7.437.193 11.143-.193 1.815-.656 3.611-.83 5.426-.039.329-.039.657-.058.985z" fill="#fff"/><path d="M182.62 165.388l18.907 10.08 40.015-14.213 6.953 17.11s-36.694 18.771-43.782 18.849c-7.087.077-25.724-5.079-25.724-5.079l3.631-26.747z" fill="#fff"/><path opacity=".1" d="M199.209 186.283c-2.143-.251-12.862-5.581-14.04-6.469 1.642 3.457 3.862 14.194 4.229 14.406a34.898 34.898 0 0012.94 3.573 26.022 26.022 0 0013.132-2.472 64.949 64.949 0 016.2-3.186c1.274-.483 2.607-.753 3.862-1.178a37.38 37.38 0 009.328-5.157 3.714 3.714 0 001.931-2.298c.194-1.274-.946-2.356-2.105-2.916a14.44 14.44 0 00-5.793-1.216 26.256 26.256 0 00-7.88.173c-1.641.464-2.858 1.932-4.461 2.723-4.635 2.028-12.322 4.597-17.343 4.017zm-39.822 52.085c-2.086.598-6.876-1.294-8.459-1.584-.966-.154-1.931-.637-2.762-.869-4.751-1.178-5.311-14.503-5.794-18.095-1.236-9.482-3.128-19.312-3.244-28.814a32.006 32.006 0 011.255-10.853 12.6 12.6 0 017.127-7.918 3.596 3.596 0 012.105-.212c2.877.734 3.476 5.504 3.978 7.724.869 4.056 2.839 5.91 4.847 9.154 2.009 3.245 2.144 7.3 4.056 10.641a7.7 7.7 0 001.931 2.433 8.77 8.77 0 005.408 1.14h13.634a4.311 4.311 0 013.11.772 4.466 4.466 0 01.811 3.67l-.831 10.08c.014.442-.1.878-.328 1.256a2.41 2.41 0 01-1.468.714 36.545 36.545 0 00-10.757 3.303 62.183 62.183 0 01-10.467 5.793 10.052 10.052 0 00-2.858 1.931 6.298 6.298 0 00-1.372 4.307c0 .985 1.256 4.017.889 4.731a1.366 1.366 0 01-.811.696z" fill="#020202"/><path d="M173.968 154.399a4.517 4.517 0 01-2.916 1.468c-.938.087-1.882.087-2.82 0h-.521a.639.639 0 00-.387 0 .553.553 0 00-.173.425 32.181 32.181 0 000 5.639v1.023a1.94 1.94 0 010 1.063c-.27.384-.679.647-1.14.733-.821.28-1.681.43-2.549.445a11.245 11.245 0 01-5.253-1.739 51.456 51.456 0 00-.502-9.655c-.599-4.114-1.681-8.227-1.236-12.36a7.95 7.95 0 011.738-4.423 8.094 8.094 0 016.122-2.201 15.677 15.677 0 018.401 2.298c.927.637 1.023 1.448 1.236 2.491.328 1.622.579 3.264.772 4.905.193 1.642.309 3.747.348 5.64a6.337 6.337 0 01-1.12 4.248z" fill="#FFBAA8"/><path d="M170.685 138.042c-1.932.521-4.423 0-6.373.85a6.236 6.236 0 00-3.052 7.589c-.792.29-.946-1.158-1.564-1.738-.618-.579-1.931.193-2.105 1.198a6.24 6.24 0 00.869 2.858 8.516 8.516 0 01.386 5.62c-.135.444-.463.965-.888.849-.425-.116-.753-.869-1.024-1.197-.43-.514-.902-.992-1.41-1.429-.965-.85-2.047-1.603-3.051-2.433-1.004-.831-1.371-1.623-2.53-1.932a22.082 22.082 0 00-3.322-.405 4.815 4.815 0 01-3.719-3.426 4.813 4.813 0 011.402-4.859c.382-.265.704-.607.946-1.004.146-.449.185-.925.116-1.391a7.377 7.377 0 013.438-6.083 12.55 12.55 0 016.913-1.931 4.234 4.234 0 001.565-.193c.466-.239.89-.552 1.255-.927a9.143 9.143 0 017.561-2.011 9.133 9.133 0 016.344 4.579 6.678 6.678 0 01.869 4.403 3.438 3.438 0 01-2.626 3.013z" fill="#FF681C"/><path d="M168.232 155.925h-.521a.639.639 0 00-.387 0 .553.553 0 00-.174.425 32.377 32.377 0 000 5.639 7.556 7.556 0 01-5.214-7.995 32.048 32.048 0 006.354 1.931h-.058z" fill="#E0A091"/><path d="M159.269 176.699c-1.89-5.327-7.741-8.114-13.069-6.224-5.328 1.889-8.115 7.74-6.225 13.068l9.265 26.118c1.89 5.328 7.741 8.115 13.068 6.225 5.328-1.89 8.115-7.741 6.225-13.068l-9.264-26.119z" fill="#fff"/><path d="M440.172 177.477c-8.285 155.306-112.225 195.9-112.225 195.9-115.393-68.75-114.813-203.007-114.813-203.007 73.542-19.853 115.605-60.466 116.918-61.798 27.424 39.956 110.12 68.905 110.12 68.905z" fill="url(#paint3_linear)"/><path d="M440.172 176.859c-8.285 155.307-112.225 195.9-112.225 195.9-115.393-68.75-114.813-203.007-114.813-203.007 73.58-19.814 115.643-60.369 116.956-61.721 27.386 39.976 110.082 68.828 110.082 68.828z" fill="url(#paint4_linear)"/><path d="M202.628 190.493a29.484 29.484 0 002.742-2.279 28.324 28.324 0 017.03-4.654 13.638 13.638 0 018.246-1.043c.599.116 1.313.483 1.236 1.101-.077.618-.425.657-.792.85-1.624.9-3.34 1.626-5.117 2.163-.734.212-1.584.483-1.932 1.197a3.866 3.866 0 001.758-.212 19.317 19.317 0 016.74-.483c.212 0 .463 0 .579.27.116.271 0 .58-.347.753-2.163 1.719-5.408 1.603-7.474 3.457-.367.309-.638.966-.232 1.217a.815.815 0 00.521 0c.889 0 1.758-.367 2.646-.521a12.897 12.897 0 014.307-.116.701.701 0 01.502.231c.212.329-.232.696-.579.869l-7.474 3.264c1.028.088 2.062.088 3.09 0a4.25 4.25 0 012.897.927.213.213 0 01.115.174c0 .135 0 .212-.212.27a9.958 9.958 0 01-3.863 1.159c-.804.061-1.599.204-2.375.425-.471.174-.929.381-1.371.618a14.865 14.865 0 01-4.597 1.545 7.355 7.355 0 01-4.712-.773 7.173 7.173 0 00-1.217-.618c-1.545-.424-3.263 1.178-4.692.425a3.33 3.33 0 01-1.121-1.294c-.772-1.274-3.36-4.828-1.274-6.006a31.177 31.177 0 013.592-1.158 16.495 16.495 0 003.38-1.758z" fill="#FFBAA8"/><path d="M170.298 194.607l25.57-2.453 4.133 12.476s-37.37 15.198-44.631 10.969c-7.262-4.23-.522-11.124-.522-11.124s.85-10.119 15.45-9.868z" fill="#fff"/><path d="M426.75 185.009c-7.32 136.883-98.919 172.668-98.919 172.668-101.7-60.601-101.198-178.926-101.198-178.926 64.832-17.496 101.893-53.301 103.052-54.401 24.141 35.244 97.065 60.659 97.065 60.659z" fill="url(#paint5_linear)"/><path d="M329.704 124.33l-1.931 233.347c-101.7-60.601-101.198-178.926-101.198-178.926 64.833-17.496 101.893-53.3 103.052-54.401l.077-.02z" fill="url(#paint6_linear)"/><path d="M327.831 242.307c9.909 0 17.941-8.032 17.941-17.941 0-9.908-8.032-17.94-17.941-17.94-9.909 0-17.942 8.032-17.942 17.94 0 9.909 8.033 17.941 17.942 17.941z" fill="#473F47"/><path d="M317.035 269.112h19.332l-5.485-28.736h-7.049l-6.798 28.736z" fill="#473F47"/><path opacity=".18" d="M231.519 217.8h23.079v-16.743h18.289m-36.849 34.684h30.051v36.538h18.81m139.939-65.853h-38.046v-21.572h-33.971m64.929 57.453h-37.061v37.987H354.56m-81.673 28.871h31.093v-14.6h18.81" stroke="#fff" stroke-width="1.228" stroke-miterlimit="10"/><path d="M250.252 163.012c.369.138.769.169 1.155.09a2.099 2.099 0 001.028-.534c.849-.985.173-2.472-.522-3.573.657-.502 1.603.136 2.105.812.502.675 1.101 1.487 1.932 1.39.83-.097 1.293-1.236 1.081-2.086a12.56 12.56 0 00-1.255-2.356c.367-.502 1.178 0 1.506.483.328.483.773 1.217 1.371 1.082a1.082 1.082 0 00.599-1.275 10.74 10.74 0 01-.328-1.526c1.023-.328 2.201.734 3.148.232a1.465 1.465 0 00.51-1.657 1.472 1.472 0 00-.317-.525 3.859 3.859 0 00-2.241-1.062 9.657 9.657 0 00-6.18.734c-2.22.888-4.538 1.351-6.701 2.471a13.186 13.186 0 00-5.118 3.863.87.87 0 00.251 1.139c.288.097.6.097.889 0a6.59 6.59 0 014.48.753c.73.512 1.491.976 2.279 1.391l.328.154z" fill="#FFBAA8"/><path d="M538.319 175.044C517.307 130.24 420.667 96.29 304.984 96.29c-131.016 0-237.544 43.529-237.544 97.042 0 53.514 106.586 97.043 237.544 97.043 89.302 0 167.247-20.22 207.842-50.038a98.688 98.688 0 0015.991-14.445 53.882 53.882 0 0012.881-24.14c.585-2.768.883-5.59.889-8.42a42.734 42.734 0 00-4.268-18.288zm-11.375 50.674a97.243 97.243 0 01-13.712 12.437c-39.746 30.088-118.193 50.597-208.286 50.597-130.109 0-235.98-42.795-235.98-95.42s105.871-95.44 236.018-95.44c114.215 0 209.735 32.985 231.384 76.63a42.019 42.019 0 014.597 18.81 36.76 36.76 0 01-.619 6.817c-1.583 8.922-6.18 17.497-13.402 25.569z" fill="#fff"/><path opacity=".18" d="M545.542 188.929a42.466 42.466 0 00-.696-4.654 47.256 47.256 0 00-2.472-8.015l-.347-.115c-1.217-.387-2.472-.734-3.708-1.101C517.307 130.24 420.667 96.29 304.984 96.29c-131.016 0-237.544 43.529-237.544 97.042 0 53.514 106.586 97.043 237.544 97.043 89.302 0 167.247-20.22 207.842-50.038a4.393 4.393 0 001.101 3.206 99.061 99.061 0 0019.641-18.288 56.957 56.957 0 0010.274-18.984 44.092 44.092 0 001.931-12.92 42.14 42.14 0 00-.231-4.422zm-240.558 99.823c-130.108 0-235.98-42.795-235.98-95.42s105.833-95.44 235.98-95.44c114.215 0 209.735 32.985 231.384 76.63a4.714 4.714 0 00-3.283.56 39.606 39.606 0 014.654 18.25 37.237 37.237 0 01-.27 4.403c-1.139 9.309-5.794 18.424-13.905 27.037a87.453 87.453 0 01-9.811 8.98 4.647 4.647 0 010 2.53c-.174.618-.367 1.236-.541 1.931-39.726 30.03-118.173 50.539-208.228 50.539z" fill="url(#paint7_linear)"/><path opacity=".18" d="M536.329 174.522a4.714 4.714 0 00-3.283.56c-8.884-17.207-30.34-33.197-62.534-46.213-44.245-17.883-103.052-27.732-165.528-27.732-62.476 0-121.341 9.849-165.586 27.732-43.356 17.516-67.207 40.381-67.207 64.463 0 24.082 23.85 46.928 67.169 64.444 44.245 17.902 103.051 27.751 165.585 27.751 62.535 0 121.322-9.849 165.567-27.751 17.787-7.184 32.271-15.256 43.202-24.005a4.647 4.647 0 010 2.53c-.174.618-.367 1.236-.541 1.931-39.745 30.088-118.192 50.598-208.285 50.598-130.109 0-235.98-42.796-235.98-95.421 0-52.625 105.929-95.516 236.076-95.516 114.176 0 209.696 32.984 231.345 76.629z" fill="url(#paint8_linear)"/><path opacity=".18" d="M542.374 176.26l-.347-.116c-1.217-.386-2.472-.733-3.708-1.1C517.306 130.24 420.666 96.29 304.984 96.29c-131.016 0-237.544 43.529-237.544 97.042s106.586 97.043 237.544 97.043c89.301 0 167.247-20.22 207.842-50.038a4.374 4.374 0 001.101 3.206 192.09 192.09 0 01-39.803 21.378c-45.327 18.501-105.408 28.679-169.14 28.679-63.731 0-123.851-10.178-169.139-28.679-46.234-18.887-71.689-44.32-71.689-71.589 0-27.268 25.416-52.702 71.65-71.57 45.288-18.52 105.447-28.698 169.178-28.698 63.732 0 123.852 10.178 169.14 28.698 36.384 14.87 59.907 33.796 68.25 54.498z" fill="url(#paint9_linear)"/><path opacity=".35" d="M294.498 384.81c102.639 0 185.844-13.713 185.844-30.629 0-16.916-83.205-30.629-185.844-30.629-102.64 0-185.845 13.713-185.845 30.629 0 16.916 83.205 30.629 185.845 30.629z" fill="url(#paint10_linear)"/><path d="M253.613 125.315h-45.52V69.118h39.243l6.277 8.014v48.183z" fill="#fff"/><path d="M249.576 128.637h-45.519V72.439H243.3l6.276 8.015v48.183z" fill="#fff"/><path d="M249.19 129.023h-45.52V72.825h39.244l6.276 8.015v48.183z" fill="url(#paint11_linear)"/><path d="M245.193 133.678h-45.52V77.46h39.243l6.277 8.015v48.203z" fill="#fff"/><path d="M238.916 77.46v7.938h6.277l-6.277-7.938z" fill="url(#paint12_linear)"/><path d="M242.914 72.825v8.17h6.276l-6.276-8.17z" fill="url(#paint13_linear)"/><path d="M247.336 69.118v8.169h6.277l-6.277-8.17z" fill="url(#paint14_linear)"/><path d="M542.393 243.64a4.54 4.54 0 01-2.858-2.221c-.463-.792-.888-1.622-1.352-2.414a4.187 4.187 0 00-4.384-2.26 4.287 4.287 0 00-3.862 3.167c-.29.947-.522 1.932-.85 2.839a4.67 4.67 0 01-5.794 3.071l-5.311-1.564a4.711 4.711 0 01-3.456-4.046 4.702 4.702 0 01.173-1.864c.251-.965.58-1.931.811-2.858a4.167 4.167 0 00-1.564-4.577 4.07 4.07 0 00-4.731-.463c-.831.405-1.623.888-2.434 1.313a4.81 4.81 0 01-6.585-1.931c-.927-1.681-1.932-3.341-2.762-5.022a4.626 4.626 0 01-.617-1.799 4.648 4.648 0 012.548-4.747c.773-.444 1.584-.831 2.337-1.275a4.15 4.15 0 002.24-4.21 4.184 4.184 0 00-2.993-3.862c-.927-.309-1.931-.541-2.839-.85a4.718 4.718 0 01-2.979-2.377 4.714 4.714 0 01-.246-3.803c.482-1.68.965-3.36 1.467-5.04a4.638 4.638 0 015.543-3.341c1.004.193 1.931.521 2.955.792a4.417 4.417 0 004.888-1.44 4.425 4.425 0 00.288-5.088c-.425-.753-.85-1.506-1.236-2.259a4.603 4.603 0 01.513-5.141 4.609 4.609 0 011.418-1.136c1.796-1.023 3.611-1.931 5.465-2.935a4.807 4.807 0 016.296 1.931c.483.83.908 1.68 1.391 2.511a4.117 4.117 0 004.249 2.143 4.17 4.17 0 003.765-3.051c.29-.869.522-1.777.792-2.646a4.79 4.79 0 016.238-3.321l4.944 1.448a4.757 4.757 0 013.006 2.277 4.768 4.768 0 01.413 3.748c-.232.85-.503 1.719-.754 2.569a4.23 4.23 0 001.449 4.789 4.282 4.282 0 005.002.406c.753-.406 1.506-.85 2.259-1.236a4.793 4.793 0 011.794-.559 4.798 4.798 0 014.734 2.49 270.47 270.47 0 012.858 5.195 4.64 4.64 0 01.395 3.616 4.657 4.657 0 01-2.326 2.795c-.83.464-1.699.869-2.53 1.352a4.032 4.032 0 00-2.163 3.863 4.111 4.111 0 002.646 3.862c.966.386 1.931.637 3.013.946a4.352 4.352 0 013.372 3.828 4.34 4.34 0 01-.205 1.792 109.176 109.176 0 01-1.68 5.794 4.46 4.46 0 01-2.26 2.85 4.473 4.473 0 01-3.631.22c-.888-.251-1.757-.54-2.665-.753a4.135 4.135 0 00-4.461 1.622 4.014 4.014 0 00-.406 4.654c.445.85.947 1.681 1.391 2.511.306.547.498 1.149.566 1.772a4.662 4.662 0 01-1.048 3.492c-.4.482-.893.879-1.449 1.167a194.698 194.698 0 01-5.195 2.839 4.623 4.623 0 01-3.593.425zm-26.091-38.161a15.298 15.298 0 0021.974 17.773 15.288 15.288 0 007.905-15.045 15.294 15.294 0 00-10.875-13.06 15.264 15.264 0 00-11.649 1.217 15.245 15.245 0 00-7.355 9.115z" fill="url(#paint15_linear)"/><path opacity=".27" d="M542.393 243.64a4.54 4.54 0 01-2.858-2.221c-.463-.792-.888-1.622-1.352-2.414a4.187 4.187 0 00-4.384-2.26 4.287 4.287 0 00-3.862 3.167c-.29.947-.522 1.932-.85 2.839a4.67 4.67 0 01-5.794 3.071l-5.311-1.564a4.711 4.711 0 01-3.456-4.046 4.702 4.702 0 01.173-1.864c.251-.965.58-1.931.811-2.858a4.167 4.167 0 00-1.564-4.577 4.07 4.07 0 00-4.731-.463c-.831.405-1.623.888-2.434 1.313a4.81 4.81 0 01-6.585-1.931c-.927-1.681-1.932-3.341-2.762-5.022a4.626 4.626 0 01-.617-1.799 4.648 4.648 0 012.548-4.747c.773-.444 1.584-.831 2.337-1.275a4.15 4.15 0 002.24-4.21 4.184 4.184 0 00-2.993-3.862c-.927-.309-1.931-.541-2.839-.85a4.718 4.718 0 01-2.979-2.377 4.714 4.714 0 01-.246-3.803c.482-1.68.965-3.36 1.467-5.04a4.638 4.638 0 015.543-3.341c1.004.193 1.931.521 2.955.792a4.417 4.417 0 004.888-1.44 4.425 4.425 0 00.288-5.088c-.425-.753-.85-1.506-1.236-2.259a4.603 4.603 0 01.513-5.141 4.609 4.609 0 011.418-1.136c1.796-1.023 3.611-1.931 5.465-2.935a4.807 4.807 0 016.296 1.931c.483.83.908 1.68 1.391 2.511a4.117 4.117 0 004.249 2.143 4.17 4.17 0 003.765-3.051c.29-.869.522-1.777.792-2.646a4.79 4.79 0 016.238-3.321l4.944 1.448a4.757 4.757 0 013.006 2.277 4.768 4.768 0 01.413 3.748c-.232.85-.503 1.719-.754 2.569a4.23 4.23 0 001.449 4.789 4.282 4.282 0 005.002.406c.753-.406 1.506-.85 2.259-1.236a4.793 4.793 0 011.794-.559 4.798 4.798 0 014.734 2.49 270.47 270.47 0 012.858 5.195 4.64 4.64 0 01.395 3.616 4.657 4.657 0 01-2.326 2.795c-.83.464-1.699.869-2.53 1.352a4.032 4.032 0 00-2.163 3.863 4.111 4.111 0 002.646 3.862c.966.386 1.931.637 3.013.946a4.352 4.352 0 013.372 3.828 4.34 4.34 0 01-.205 1.792 109.176 109.176 0 01-1.68 5.794 4.46 4.46 0 01-2.26 2.85 4.473 4.473 0 01-3.631.22c-.888-.251-1.757-.54-2.665-.753a4.135 4.135 0 00-4.461 1.622 4.014 4.014 0 00-.406 4.654c.445.85.947 1.681 1.391 2.511.306.547.498 1.149.566 1.772a4.662 4.662 0 01-1.048 3.492c-.4.482-.893.879-1.449 1.167a194.698 194.698 0 01-5.195 2.839 4.623 4.623 0 01-3.593.425zm-26.091-38.161a15.298 15.298 0 0021.974 17.773 15.288 15.288 0 007.905-15.045 15.294 15.294 0 00-10.875-13.06 15.264 15.264 0 00-11.649 1.217 15.245 15.245 0 00-7.355 9.115z" fill="#020202"/><path d="M561.841 212.296c-.985-.309-2.028-.54-2.993-.946a4.111 4.111 0 01-2.646-3.862 4.058 4.058 0 012.182-3.863c.811-.463 1.68-.888 2.511-1.351a4.648 4.648 0 002.326-2.796 4.658 4.658 0 00-.395-3.616c-.927-1.738-1.931-3.476-2.858-5.176a4.802 4.802 0 00-2.863-2.319 4.823 4.823 0 00-3.665.388l-2.259 1.236a4.293 4.293 0 01-5.002-.386 8.462 8.462 0 01-.599-.599 4.185 4.185 0 01-.85-4.21c0-.135.097-.309.155-.444.193-.714.405-1.41.579-2.124a4.712 4.712 0 00-3.051-5.89l-.348-.116c-1.217-.387-2.472-.734-3.708-1.101l-1.255-.367-.734-.154a4.702 4.702 0 00-3.283.56 4.922 4.922 0 00-2.144 2.838c-.29.889-.521 1.777-.792 2.665a4.206 4.206 0 01-3.862 3.032 4.131 4.131 0 01-4.249-2.124c-.502-.83-.908-1.68-1.39-2.53a4.772 4.772 0 00-6.277-1.931c-1.931.908-3.689 1.931-5.485 2.916a4.581 4.581 0 00-2.284 2.733 4.585 4.585 0 00.353 3.544c.386.772.83 1.506 1.236 2.259a4.308 4.308 0 01-.29 5.098 4.34 4.34 0 01-4.886 1.449c-.985-.29-1.931-.618-2.955-.811a4.636 4.636 0 00-5.542 3.341c-.483 1.68-.985 3.36-1.468 5.059a4.686 4.686 0 00.254 3.801 4.698 4.698 0 002.99 2.36c.927.328 1.932.521 2.82.85a4.229 4.229 0 012.993 3.862 4.112 4.112 0 01-2.22 4.21c-.773.444-1.584.85-2.357 1.275a4.651 4.651 0 00-1.931 6.546 408.923 408.923 0 002.762 5.021 4.837 4.837 0 004.779 2.5 4.859 4.859 0 001.806-.568c.812-.445 1.603-.908 2.434-1.333a4.112 4.112 0 014.731.464 4.416 4.416 0 011.526 2.066 4.647 4.647 0 010 2.53c-.174.618-.367 1.236-.541 1.931l-.289.985a5.072 5.072 0 00.946 4.403 4.639 4.639 0 002.337 1.526l5.311 1.545a4.696 4.696 0 005.793-3.071c.329-.927.561-1.931.85-2.839a4.329 4.329 0 013.863-3.167 4.205 4.205 0 014.364 2.26c.464.791.889 1.622 1.333 2.433a4.87 4.87 0 006.489 1.931c1.738-.946 3.476-1.931 5.195-2.839a4.659 4.659 0 002.327-2.796 4.656 4.656 0 00-.396-3.615c-.463-.85-.965-1.661-1.39-2.511a3.977 3.977 0 01.386-4.654 4.172 4.172 0 014.461-1.642c.908.213 1.777.522 2.665.773a4.447 4.447 0 005.794-3.071 94.514 94.514 0 001.7-5.793 4.36 4.36 0 00-1.364-4.963 4.362 4.362 0 00-1.63-.812zm-17.96 2.588a15.45 15.45 0 01-15.103 11.008 11.526 11.526 0 01-1.835-.174 15.828 15.828 0 01-2.066-.444 11.15 11.15 0 01-1.352-.483 15.274 15.274 0 0110.004-28.832 14.901 14.901 0 013.862 1.776 13.536 13.536 0 012.878 2.414c.492.498.944 1.034 1.352 1.603a15.635 15.635 0 012.182 4.5c.867 2.808.893 5.809.078 8.632z" fill="url(#paint16_linear)"/></g><defs><linearGradient id="paint0_linear" x1="551.283" y1="30.76" x2="82.185" y2="804.954" gradientUnits="userSpaceOnUse"><stop stop-color="#239D42"/><stop offset="1" stop-color="#E1E224"/></linearGradient><linearGradient id="paint1_linear" x1="198.194" y1="342.22" x2="191.856" y2="362.469" gradientUnits="userSpaceOnUse"><stop stop-color="#239D42"/><stop offset="1" stop-color="#E1E224"/></linearGradient><linearGradient id="paint2_linear" x1="174.227" y1="346.044" x2="167.889" y2="366.293" gradientUnits="userSpaceOnUse"><stop stop-color="#239D42"/><stop offset="1" stop-color="#E1E224"/></linearGradient><linearGradient id="paint3_linear" x1="417.325" y1="123.954" x2="108.323" y2="447.122" gradientUnits="userSpaceOnUse"><stop stop-color="#239D42"/><stop offset="1" stop-color="#E1E224"/></linearGradient><linearGradient id="paint4_linear" x1="606.183" y1="95.382" x2="342.879" y2="233.315" gradientUnits="userSpaceOnUse"><stop/><stop offset="1" stop-opacity="0"/></linearGradient><linearGradient id="paint5_linear" x1="406.612" y1="137.903" x2="134.346" y2="422.746" gradientUnits="userSpaceOnUse"><stop stop-color="#239D42"/><stop offset="1" stop-color="#E1E224"/></linearGradient><linearGradient id="paint6_linear" x1="-3484.01" y1="39772.2" x2="21112.5" y2="37582.7" gradientUnits="userSpaceOnUse"><stop/><stop offset="1" stop-opacity="0"/></linearGradient><linearGradient id="paint7_linear" x1="497.638" y1="107.564" x2="361.843" y2="515.805" gradientUnits="userSpaceOnUse"><stop stop-color="#239D42"/><stop offset="1" stop-color="#E1E224"/></linearGradient><linearGradient id="paint8_linear" x1="489.292" y1="108.984" x2="354.979" y2="510.063" gradientUnits="userSpaceOnUse"><stop stop-color="#239D42"/><stop offset="1" stop-color="#E1E224"/></linearGradient><linearGradient id="paint9_linear" x1="494.251" y1="104.713" x2="350.221" y2="523.68" gradientUnits="userSpaceOnUse"><stop stop-color="#239D42"/><stop offset="1" stop-color="#E1E224"/></linearGradient><linearGradient id="paint10_linear" x1="442.939" y1="327.111" x2="423.95" y2="467.652" gradientUnits="userSpaceOnUse"><stop stop-color="#239D42"/><stop offset="1" stop-color="#E1E224"/></linearGradient><linearGradient id="paint11_linear" x1="2324.89" y1="5012.61" x2="6795.43" y2="3066.23" gradientUnits="userSpaceOnUse"><stop stop-color="#FF8516"/><stop offset="1" stop-opacity="0"/></linearGradient><linearGradient id="paint12_linear" x1="983.948" y1="410.744" x2="1039.98" y2="396.385" gradientUnits="userSpaceOnUse"><stop stop-color="#239D42"/><stop offset="1" stop-opacity="0"/></linearGradient><linearGradient id="paint13_linear" x1="1000.75" y1="414.206" x2="1057.75" y2="385.975" gradientUnits="userSpaceOnUse"><stop stop-color="#CD6D15"/><stop offset="1" stop-opacity="0"/></linearGradient><linearGradient id="paint14_linear" x1="1019.61" y1="394.896" x2="1076.63" y2="366.599" gradientUnits="userSpaceOnUse"><stop stop-color="#1E7E36"/><stop offset="1" stop-opacity="0"/></linearGradient><linearGradient id="paint15_linear" x1="559.758" y1="177.798" x2="476.807" y2="279.019" gradientUnits="userSpaceOnUse"><stop stop-color="#239D42"/><stop offset="1" stop-color="#E1E224"/></linearGradient><linearGradient id="paint16_linear" x1="557.837" y1="178.715" x2="474.969" y2="279.805" gradientUnits="userSpaceOnUse"><stop stop-color="#239D42"/><stop offset="1" stop-color="#E1E224"/></linearGradient><clipPath id="clip0"><path fill="#fff" d="M0 0h613v462H0z"/></clipPath></defs></svg>