<?xml version="1.0" encoding="utf-8"?><svg viewBox="0 0 75 101" xmlns="http://www.w3.org/2000/svg" xmlns:xlink="http://www.w3.org/1999/xlink"><style>:root>svg{display:none}:root>svg:target{display:block}</style><svg fill="none" viewBox="0 0 34 34" id="dzen" xmlns="http://www.w3.org/2000/svg"><path d="M10.538.539h6.237c0 11.359-.828 16.329-16.237 15.923V10.54c0-5.523 4.478-10 10-10zM33.192 10.542l-.002 6.057c-11.454-.003-16.465-.823-16.052-16.06h6.056c5.523.002 10 4.48 9.998 10.003zM33.192 23.163l-.001-5.868c-11.455.002-16.466.812-16.053 15.872l6.056-.002c5.523 0 10-4.48 9.998-10.002zM.632 23.175l.002-5.864c11.392.003 16.376.812 15.965 15.868l-5.97-.001C5.108 33.176.632 28.698.633 23.175z" fill="#fff"/></svg><svg fill="none" viewBox="0 0 31 31" id="facebook" xmlns="http://www.w3.org/2000/svg"><g clip-path="url(#bclip0)"><path d="M20.507 5.85h2.673V1.195c-.461-.063-2.047-.206-3.895-.206-3.854 0-6.495 2.425-6.495 6.88v4.102H8.537v5.205h4.253v13.097h5.215V17.176h4.082l.648-5.205h-4.73V8.385c0-1.505.405-2.534 2.502-2.534z" fill="#fff"/></g><defs><clipPath id="bclip0"><path fill="#fff" transform="translate(.988 .988)" d="M0 0h29.284v29.284H0z"/></clipPath></defs></svg><svg fill="none" viewBox="0 0 28 28" id="instagram" xmlns="http://www.w3.org/2000/svg"><g clip-path="url(#cclip0)" fill="#fff"><path d="M27.376 8.16c-.064-1.447-.298-2.443-.634-3.306a6.652 6.652 0 00-1.576-2.417 6.707 6.707 0 00-2.412-1.57c-.867-.336-1.858-.57-3.306-.634C17.99.164 17.526.148 13.826.148s-4.163.016-5.617.08C6.761.292 5.765.526 4.903.86a6.65 6.65 0 00-2.417 1.576A6.71 6.71 0 00.915 4.85C.58 5.717.345 6.707.282 8.155c-.07 1.46-.086 1.922-.086 5.623 0 3.7.016 4.163.08 5.617.064 1.448.298 2.443.634 3.306a6.72 6.72 0 001.576 2.417 6.706 6.706 0 002.411 1.57c.868.336 1.858.57 3.307.634 1.453.064 1.916.08 5.617.08 3.7 0 4.163-.016 5.617-.08 1.448-.064 2.443-.298 3.306-.634a6.971 6.971 0 003.988-3.987c.335-.868.57-1.858.633-3.306.064-1.454.08-1.917.08-5.617s-.006-4.164-.07-5.617zM24.92 19.289c-.058 1.331-.282 2.05-.468 2.529a4.52 4.52 0 01-2.588 2.587c-.479.187-1.203.41-2.529.469-1.437.064-1.868.08-5.505.08-3.636 0-4.073-.016-5.505-.08-1.33-.059-2.05-.282-2.529-.469a4.193 4.193 0 01-1.565-1.017 4.236 4.236 0 01-1.017-1.565c-.186-.479-.41-1.203-.468-2.529-.064-1.437-.08-1.868-.08-5.505 0-3.636.016-4.073.08-5.505.058-1.33.282-2.05.468-2.529A4.142 4.142 0 014.237 4.19a4.23 4.23 0 011.566-1.017c.479-.186 1.203-.41 2.529-.469 1.437-.063 1.868-.08 5.504-.08 3.642 0 4.073.017 5.506.08 1.33.06 2.05.283 2.529.47.59.217 1.128.563 1.565 1.016.452.442.799.974 1.017 1.565.186.48.41 1.203.468 2.53.064 1.437.08 1.868.08 5.504 0 3.637-.016 4.063-.08 5.5z"/><path d="M13.825 6.776a7.003 7.003 0 00-7 7.002 7.003 7.003 0 007 7 7.003 7.003 0 007.002-7 7.003 7.003 0 00-7.002-7.002zm0 11.543a4.542 4.542 0 11.002-9.084 4.542 4.542 0 01-.002 9.084zM22.738 6.5a1.635 1.635 0 11-3.27 0 1.635 1.635 0 013.27 0z"/></g><defs><clipPath id="cclip0"><path fill="#fff" transform="translate(.148 .148)" d="M0 0h27.254v27.254H0z"/></clipPath></defs></svg><svg fill="none" viewBox="0 0 58 57" id="player" xmlns="http://www.w3.org/2000/svg"><g filter="url(#dfilter0_i)"><path d="M54.5 28.5c0 13.75-11.36 25-25.5 25S3.5 42.25 3.5 28.5s11.36-25 25.5-25 25.5 11.25 25.5 25z"/></g><path d="M23.2 38.05v-19.1a1 1 0 011.548-.836l14.575 9.55a1 1 0 010 1.673l-14.575 9.549a1 1 0 01-1.548-.837z" fill="#fff"/><defs><filter id="dfilter0_i" x="0" y="0" width="59" height="60" filterUnits="userSpaceOnUse" color-interpolation-filters="sRGB"><feFlood flood-opacity="0" result="BackgroundImageFix"/><feBlend in="SourceGraphic" in2="BackgroundImageFix" result="shape"/><feColorMatrix in="SourceAlpha" values="0 0 0 0 0 0 0 0 0 0 0 0 0 0 0 0 0 0 127 0" result="hardAlpha"/><feOffset dx="1" dy="4"/><feGaussianBlur stdDeviation="1.5"/><feComposite in2="hardAlpha" operator="arithmetic" k2="-1" k3="1"/><feColorMatrix values="0 0 0 0 0 0 0 0 0 0 0 0 0 0 0 0 0 0 0.25 0"/><feBlend in2="shape" result="effect1_innerShadow"/></filter></defs></svg><svg fill="none" viewBox="0 0 75 101" id="tab-decor" xmlns="http://www.w3.org/2000/svg"><circle cx="67.5" cy="93" r="7" fill="url(#epaint0_linear)" stroke="url(#epaint1_linear)"/><path d="M3 1c-6 23.333-2 74.5 62 92.5" stroke="url(#epaint2_linear)" stroke-dasharray="5 5"/><defs><linearGradient id="epaint0_linear" x1="73.49" y1="86.371" x2="56.31" y2="107.329" gradientUnits="userSpaceOnUse"><stop stop-color="#FF3D22"/><stop offset="1" stop-color="#FF8516"/></linearGradient><linearGradient id="epaint1_linear" x1="73.49" y1="86.371" x2="56.31" y2="107.329" gradientUnits="userSpaceOnUse"><stop stop-color="#FF3D22"/><stop offset="1" stop-color="#FF8516"/></linearGradient><linearGradient id="epaint2_linear" x1="58.56" y1="6.373" x2="-47.951" y2="96.266" gradientUnits="userSpaceOnUse"><stop stop-color="#FF3D22"/><stop offset="1" stop-color="#FF8516"/></linearGradient></defs></svg><svg fill="none" viewBox="0 0 28 28" id="telegram" xmlns="http://www.w3.org/2000/svg"><g clip-path="url(#fclip0)"><path d="M10.841 17.387l-.45 6.342c.645 0 .924-.277 1.259-.61l3.024-2.89 6.266 4.589c1.15.64 1.96.303 2.27-1.058l4.112-19.273h.001c.365-1.7-.614-2.364-1.734-1.947L1.413 11.796c-1.65.64-1.625 1.56-.28 1.977l6.18 1.922L21.67 6.712c.676-.448 1.29-.2.785.247L10.842 17.387z" fill="#fff"/></g><defs><clipPath id="fclip0"><path fill="#fff" transform="translate(.148 .148)" d="M0 0h27.254v27.254H0z"/></clipPath></defs></svg><svg fill="none" viewBox="0 0 32 32" id="vk" xmlns="http://www.w3.org/2000/svg"><g clip-path="url(#gclip0)"><path d="M25.86 16.959c-.5-.634-.357-.915 0-1.482.007-.006 4.148-5.727 4.574-7.667l.003-.002c.212-.707 0-1.226-1.025-1.226H26.02c-.864 0-1.262.446-1.475.944 0 0-1.727 4.134-4.17 6.814-.789.774-1.153 1.022-1.584 1.022-.212 0-.541-.248-.541-.955V7.808c0-.848-.242-1.226-.957-1.226H11.96c-.542 0-.864.395-.864.763 0 .804 1.222.99 1.349 3.251v4.909c0 1.075-.196 1.273-.629 1.273-1.153 0-3.951-4.15-5.61-8.901-.334-.922-.661-1.294-1.531-1.294H1.28c-.968 0-1.163.446-1.163.945 0 .881 1.153 5.265 5.362 11.056 2.805 3.953 6.755 6.094 10.349 6.094 2.16 0 2.423-.475 2.423-1.294 0-3.777-.195-4.133.887-4.133.502 0 1.365.248 3.382 2.154 2.304 2.261 2.683 3.273 3.973 3.273h3.392c.967 0 1.457-.475 1.175-1.414-.645-1.974-5.004-6.034-5.2-6.305z" fill="#fff"/></g><defs><clipPath id="gclip0"><path fill="#fff" transform="translate(.118 .118)" d="M0 0h31.023v31.023H0z"/></clipPath></defs></svg><svg fill="none" viewBox="0 0 32 32" id="youtube" xmlns="http://www.w3.org/2000/svg"><path d="M29.557 8.36a3.643 3.643 0 00-2.563-2.563c-2.276-.623-11.38-.623-11.38-.623s-9.103 0-11.38.599A3.718 3.718 0 001.672 8.36c-.599 2.276-.599 6.996-.599 6.996s0 4.743.6 6.995a3.644 3.644 0 002.563 2.563c2.3.623 11.38.623 11.38.623s9.103 0 11.379-.599a3.644 3.644 0 002.564-2.563c.598-2.276.598-6.995.598-6.995s.024-4.744-.599-7.02zM12.716 19.716v-8.72l7.57 4.36-7.57 4.36z" fill="#fff"/></svg></svg>