<svg width="133" height="133" fill="none" xmlns="http://www.w3.org/2000/svg"><path d="M128.578 25.788a6.502 6.502 0 002.344-5.007 6.502 6.502 0 00-2.344-5.006l-14.281-11.9v8.594H89.36c0-5.73-4.662-10.39-10.391-10.39h-66.5c-5.73 0-10.39 4.66-10.39 10.39v95.593c0 5.73 4.66 10.391 10.39 10.391h11.835c.414.873.883 1.719 1.465 2.492l3.325 4.435v5.542H66.5v-5.542l3.325-4.433c.582-.775 1.052-1.621 1.465-2.494h7.679c5.73 0 10.39-4.661 10.39-10.391h24.938v8.594l14.281-11.9a6.501 6.501 0 002.344-5.006 6.502 6.502 0 00-2.344-5.006l-13.944-11.619h16.288V37.406h-16.288l13.944-11.618zm-60 86.431c0 2.234-.737 4.449-2.078 6.234l-4.156 5.542v2.771H33.25v-2.771l-4.156-5.544a10.437 10.437 0 01-2.078-6.232v-9.526c0-2.247-.532-4.497-1.536-6.505l-2.483-4.97a1.285 1.285 0 011.147-1.858c6.168 0 11.184 5.016 11.184 11.184v7.518h4.157V66.5a2.079 2.079 0 014.156 0v29.094h4.156V87.28a2.079 2.079 0 014.156 0v8.313h4.157v-6.235a2.079 2.079 0 014.156 0v6.236h4.156v-4.156a2.079 2.079 0 014.156 0v20.781zm0-68.578H22.86v-2.078c0-1.148.93-2.079 2.078-2.079H66.5c1.147 0 2.078.931 2.078 2.078v2.079zM22.86 47.797h45.718v4.156H22.86v-4.156zm0 8.312h45.718V66.5a2.079 2.079 0 01-2.078 2.078H47.797V66.5a6.242 6.242 0 00-6.234-6.234 6.242 6.242 0 00-6.235 6.234v2.078h-10.39A2.079 2.079 0 0122.86 66.5V56.11zM66.5 85.203c-1.116 0-2.148.318-3.057.834-1.105-1.744-3.042-2.912-5.255-2.912-1.116 0-2.149.318-3.057.833-1.106-1.743-3.043-2.911-5.256-2.911-.731 0-1.425.15-2.078.382v-8.695H66.5a6.242 6.242 0 006.235-6.234V41.562a6.242 6.242 0 00-6.235-6.234H24.938a6.242 6.242 0 00-6.235 6.234V66.5a6.242 6.242 0 006.235 6.234h10.39v17.344c-2.8-2.992-6.772-4.875-11.184-4.875a5.448 5.448 0 00-5.44 5.44c0 .84.199 1.684.573 2.434l2.296 4.595h-7.026V14.547h12.924l.9 3.593a6.224 6.224 0 006.047 4.72h22.604a6.225 6.225 0 006.047-4.722l.898-3.591h12.924v83.125h-4.156v-6.234a6.242 6.242 0 00-6.235-6.235zm18.703 22.859a6.242 6.242 0 01-6.234 6.235h-6.405c.102-.688.17-1.382.17-2.078v-10.391h4.157a4.16 4.16 0 004.156-4.156V14.547a4.16 4.16 0 00-4.156-4.156H60.72l-1.683 6.737a2.079 2.079 0 01-2.018 1.575H34.418A2.08 2.08 0 0132.4 17.13l-1.683-6.74h-16.17a4.16 4.16 0 00-4.156 4.157v83.125a4.16 4.16 0 004.156 4.156h8.263c.023.287.05.576.05.865v9.526c0 .696.068 1.39.17 2.078H12.469a6.242 6.242 0 01-6.234-6.235V12.469a6.242 6.242 0 016.234-6.235h66.5a6.242 6.242 0 016.234 6.235v95.593zm12.47-33.25v-4.457c2.399-.76 4.155-2.982 4.155-5.63a5.9 5.9 0 00-3.279-5.305l-4.05-2.026a1.762 1.762 0 01-.983-1.588 1.78 1.78 0 011.775-1.775h.604a1.78 1.78 0 011.777 1.775v2.382h4.156v-2.382c0-2.65-1.756-4.871-4.156-5.63V45.72h-4.156v4.457c-2.4.76-4.156 2.982-4.156 5.63a5.9 5.9 0 003.279 5.305l4.05 2.027c.607.3.983.91.983 1.587a1.78 1.78 0 01-1.775 1.775h-.604a1.78 1.78 0 01-1.777-1.775v-2.381H89.36V41.563h4.156c10.314 0 18.703 8.389 18.703 18.703 0 10.313-8.389 18.703-18.703 18.703H89.36V64.725c0 2.65 1.756 4.871 4.156 5.63v4.457h4.156zM89.36 37.407v-8.312h24.937v8.312H89.36zm29.093-20.781V12.75l7.463 6.22c.54.449.85 1.11.85 1.812a2.35 2.35 0 01-.85 1.812l-7.463 6.22v-3.875H89.36v-8.313h29.093zm0 75.093l7.463 6.22c.54.449.85 1.11.85 1.812s-.31 1.363-.85 1.812l-7.463 6.22v-3.876H89.36v-8.312h29.093v-3.876zm-4.156-.28H89.36v-8.313h24.937v8.313zm12.469-12.47h-20.148c5.89-4.139 9.757-10.972 9.757-18.702 0-7.731-3.867-14.564-9.757-18.703h20.148V78.97z" fill="url(#paint0_linear)"/><path d="M60.266 60.266h4.156v4.156h-4.156v-4.156z" fill="url(#paint1_linear)"/><path d="M51.953 60.266h4.157v4.156h-4.157v-4.156z" fill="url(#paint2_linear)"/><path d="M37.407 14.547a2.078 2.078 0 100-4.156 2.078 2.078 0 000 4.156z" fill="url(#paint3_linear)"/><path d="M43.64 10.39h12.47v4.157H43.64V10.39z" fill="url(#paint4_linear)"/><defs><linearGradient id="paint0_linear" x1="117.956" y1="9.562" x2="-29.62" y2="189.578" gradientUnits="userSpaceOnUse"><stop stop-color="#FF3D22"/><stop offset="1" stop-color="#FF8516"/></linearGradient><linearGradient id="paint1_linear" x1="64.004" y1="60.507" x2="59.243" y2="66.314" gradientUnits="userSpaceOnUse"><stop stop-color="#FF3D22"/><stop offset="1" stop-color="#FF8516"/></linearGradient><linearGradient id="paint2_linear" x1="55.691" y1="60.507" x2="50.931" y2="66.314" gradientUnits="userSpaceOnUse"><stop stop-color="#FF3D22"/><stop offset="1" stop-color="#FF8516"/></linearGradient><linearGradient id="paint3_linear" x1="39.066" y1="10.632" x2="34.306" y2="16.439" gradientUnits="userSpaceOnUse"><stop stop-color="#FF3D22"/><stop offset="1" stop-color="#FF8516"/></linearGradient><linearGradient id="paint4_linear" x1="54.855" y1="10.632" x2="52.386" y2="19.667" gradientUnits="userSpaceOnUse"><stop stop-color="#FF3D22"/><stop offset="1" stop-color="#FF8516"/></linearGradient></defs></svg>