<svg width="16" height="15" viewBox="0 0 16 15" fill="none" xmlns="http://www.w3.org/2000/svg">
<g clip-path="url(#clip0)">
<path d="M14.2776 2.76938L5.64076 11.4056C5.58269 11.4639 5.51369 11.5102 5.4377 11.5417C5.36171 11.5733 5.28023 11.5896 5.19795 11.5896C5.11567 11.5896 5.03419 11.5733 4.9582 11.5417C4.88221 11.5102 4.81321 11.4639 4.75514 11.4056L1.41514 8.0625C1.35707 8.00421 1.28806 7.95795 1.21207 7.92639C1.13608 7.89482 1.05461 7.87857 0.972324 7.87857C0.890041 7.87857 0.808567 7.89482 0.732578 7.92639C0.656589 7.95795 0.58758 8.00421 0.529512 8.0625C0.471214 8.12057 0.424956 8.18958 0.393392 8.26557C0.361829 8.34156 0.345581 8.42303 0.345581 8.50532C0.345581 8.5876 0.361829 8.66907 0.393392 8.74506C0.424956 8.82105 0.471214 8.89006 0.529512 8.94813L3.87076 12.2888C4.22323 12.6406 4.70089 12.8382 5.19889 12.8382C5.69689 12.8382 6.17454 12.6406 6.52701 12.2888L15.1633 3.65438C15.2215 3.59632 15.2676 3.52735 15.2992 3.45142C15.3307 3.37549 15.3469 3.29409 15.3469 3.21188C15.3469 3.12967 15.3307 3.04827 15.2992 2.97234C15.2676 2.89641 15.2215 2.82744 15.1633 2.76938C15.1052 2.71108 15.0362 2.66482 14.9602 2.63326C14.8842 2.6017 14.8027 2.58545 14.7205 2.58545C14.6382 2.58545 14.5567 2.6017 14.4807 2.63326C14.4047 2.66482 14.3357 2.71108 14.2776 2.76938Z" fill="white"/>
</g>
<defs>
<clipPath id="clip0">
<rect width="15" height="15" fill="white" transform="translate(0.328125)"/>
</clipPath>
</defs>
</svg>
