<svg width="133" height="133" viewBox="0 0 133 133" fill="none" xmlns="http://www.w3.org/2000/svg">
<path d="M55.417 59.85H77.5837C81.2564 59.85 84.2337 56.8727 84.2337 53.2V31.0333H88.667C90.4598 31.0329 92.0759 29.9528 92.762 28.2964C93.448 26.64 93.0689 24.7335 91.8014 23.4656L69.6347 1.29894C67.9035 -0.431758 65.0972 -0.431758 63.366 1.29894L41.1993 23.4656C39.9318 24.7335 39.5526 26.64 40.2387 28.2964C40.9247 29.9528 42.5408 31.0329 44.3337 31.0333H48.767V53.2C48.767 56.8727 51.7443 59.85 55.417 59.85ZM44.3337 26.6L66.5003 4.4333L88.6892 26.6H82.017C80.7928 26.6 79.8003 27.5924 79.8003 28.8166V53.2C79.8003 54.4242 78.8079 55.4166 77.5837 55.4166H55.417C54.1928 55.4166 53.2003 54.4242 53.2003 53.2V28.8166C53.2003 27.5924 52.2079 26.6 50.9837 26.6H44.3337Z" fill="url(#paint0_linear)"/>
<path d="M37.6836 64.2833V35.4667C37.6836 34.2424 36.6911 33.25 35.4669 33.25C34.2427 33.25 33.2502 34.2424 33.2502 35.4667V64.2833C33.2502 65.5076 34.2427 66.5 35.4669 66.5C36.6911 66.5 37.6836 65.5076 37.6836 64.2833Z" fill="url(#paint1_linear)"/>
<path d="M24.3837 77.5834V48.7667C24.3837 47.5425 23.3913 46.55 22.167 46.55C20.9428 46.55 19.9504 47.5425 19.9504 48.7667V77.5834C19.9504 78.8076 20.9428 79.8 22.167 79.8C23.3913 79.8 24.3837 78.8076 24.3837 77.5834Z" fill="url(#paint2_linear)"/>
<path d="M99.7504 64.2833V35.4667C99.7504 34.2424 98.758 33.25 97.5338 33.25C96.3095 33.25 95.3171 34.2424 95.3171 35.4667V64.2833C95.3171 65.5076 96.3095 66.5 97.5338 66.5C98.758 66.5 99.7504 65.5076 99.7504 64.2833Z" fill="url(#paint3_linear)"/>
<path d="M113.05 77.5834V48.7667C113.05 47.5425 112.058 46.55 110.834 46.55C109.609 46.55 108.617 47.5425 108.617 48.7667V77.5834C108.617 78.8076 109.609 79.8 110.834 79.8C112.058 79.8 113.05 78.8076 113.05 77.5834Z" fill="url(#paint4_linear)"/>
<path d="M2.217 103.075V118.592C2.217 127.95 19.3496 133 35.467 133C48.133 133 61.3887 129.868 66.5003 123.991C71.612 129.868 84.8676 133 97.5337 133C113.651 133 130.784 127.95 130.784 118.592V103.075C130.784 94.144 115.185 89.1498 99.7503 88.7087V80.9082C99.7503 71.5495 82.6177 66.4999 66.5003 66.4999C62.1618 66.4883 57.8302 66.8472 53.5528 67.5728C52.3463 67.7821 51.538 68.9299 51.7473 70.1363C51.9567 71.3428 53.1044 72.1512 54.3109 71.9418C58.3378 71.2587 62.4159 70.9212 66.5003 70.9332C82.9923 70.9332 95.317 76.2 95.317 80.9082C95.317 82.8057 93.1934 84.8982 89.4894 86.6716C82.204 89.6637 74.3732 91.0983 66.5003 90.8832C58.6274 91.0983 50.7966 89.6637 43.5113 86.6716C39.8072 84.8982 37.6837 82.8057 37.6837 80.9082C37.6837 78.9132 40.0976 76.65 44.1408 74.8678C44.8809 74.5586 45.3962 73.8738 45.4883 73.0771C45.5804 72.2803 45.235 71.496 44.585 71.0261C43.935 70.5562 43.0819 70.4741 42.3542 70.8113C36.4822 73.396 33.2503 76.9825 33.2503 80.9082V88.7087C17.8157 89.1498 2.217 94.144 2.217 103.075ZM35.467 128.567C18.975 128.567 6.65033 123.3 6.65033 118.592V110.512C7.87917 111.412 9.19416 112.188 10.576 112.828C18.4557 116.105 26.9356 117.691 35.467 117.483C44.0036 117.694 52.4892 116.108 60.3735 112.828C61.6036 112.247 62.7827 111.564 63.898 110.784H64.2837V118.592C64.2837 123.3 51.959 128.567 35.467 128.567ZM97.5337 128.567C81.0417 128.567 68.717 123.3 68.717 118.592V110.791H69.1027C70.2254 111.573 71.4118 112.26 72.6494 112.844C80.5281 116.114 89.0057 117.695 97.5337 117.483C106.065 117.691 114.545 116.105 122.425 112.828C123.807 112.188 125.122 111.412 126.35 110.512V118.592C126.35 123.3 114.026 128.567 97.5337 128.567ZM126.35 103.075C126.35 104.972 124.227 107.065 120.523 108.838C113.237 111.83 105.407 113.265 97.5337 113.05C90.7425 113.151 83.9812 112.132 77.5216 110.033C89.567 108.277 99.7503 103.638 99.7503 96.4249V93.1442C115.114 93.5898 126.35 98.5817 126.35 103.075ZM41.6094 90.6616C49.4891 93.9384 57.969 95.5243 66.5003 95.3166C75.0317 95.5243 83.5116 93.9384 91.3913 90.6616C92.7732 90.021 94.0882 89.2451 95.317 88.3451V96.4249C95.317 101.133 82.9923 106.4 66.5003 106.4C50.0083 106.4 37.6837 101.133 37.6837 96.4249V88.3451C38.9125 89.2451 40.2275 90.021 41.6094 90.6616ZM33.2503 93.1442V96.4249C33.2503 103.636 43.4315 108.277 55.4769 110.033C49.018 112.132 42.2574 113.151 35.467 113.05C27.5941 113.265 19.7633 111.83 12.4779 108.838C8.7739 107.065 6.65033 104.972 6.65033 103.075C6.65033 98.5817 17.8866 93.5898 33.2503 93.1442Z" fill="url(#paint5_linear)"/>
<defs>
<linearGradient id="paint0_linear" x1="87.7461" y1="3.47743" x2="18.0661" y2="79.029" gradientUnits="userSpaceOnUse">
<stop stop-color="#FF3D22"/>
<stop offset="1" stop-color="#FF8516"/>
</linearGradient>
<linearGradient id="paint1_linear" x1="37.2374" y1="35.1814" x2="24.9295" y2="37.1832" gradientUnits="userSpaceOnUse">
<stop stop-color="#FF3D22"/>
<stop offset="1" stop-color="#FF8516"/>
</linearGradient>
<linearGradient id="paint2_linear" x1="23.9376" y1="48.4815" x2="11.6296" y2="50.4833" gradientUnits="userSpaceOnUse">
<stop stop-color="#FF3D22"/>
<stop offset="1" stop-color="#FF8516"/>
</linearGradient>
<linearGradient id="paint3_linear" x1="99.3043" y1="35.1814" x2="86.9963" y2="37.1832" gradientUnits="userSpaceOnUse">
<stop stop-color="#FF3D22"/>
<stop offset="1" stop-color="#FF8516"/>
</linearGradient>
<linearGradient id="paint4_linear" x1="112.604" y1="48.4815" x2="100.296" y2="50.4833" gradientUnits="userSpaceOnUse">
<stop stop-color="#FF3D22"/>
<stop offset="1" stop-color="#FF8516"/>
</linearGradient>
<linearGradient id="paint5_linear" x1="117.846" y1="70.3625" x2="62.0098" y2="202.041" gradientUnits="userSpaceOnUse">
<stop stop-color="#FF3D22"/>
<stop offset="1" stop-color="#FF8516"/>
</linearGradient>
</defs>
</svg>
