<svg width="133" height="133" viewBox="0 0 133 133" fill="none" xmlns="http://www.w3.org/2000/svg">
<g clip-path="url(#clip0)">
<path d="M106.4 53.2C121.069 53.2 133 41.2681 133 26.6C133 11.9319 121.069 0 106.4 0C95.749 0 86.5652 6.30689 82.3213 15.3705L75.1983 12.7415C75.2827 12.196 75.3672 11.6505 75.3672 11.0833C75.3672 4.97235 70.3948 0 64.2838 0C58.1728 0 53.2005 4.97235 53.2005 11.0833C53.2005 17.1943 58.1728 22.1667 64.2838 22.1667C68.2539 22.1667 71.7164 20.0496 73.6733 16.9042L80.7844 19.529C80.1598 21.7857 79.8005 24.1485 79.8005 26.6C79.8005 29.504 80.2832 32.2921 81.148 34.9103L56.769 45.2425C52.3054 36.8034 43.4452 31.0333 33.2505 31.0333C29.9471 31.0333 26.7953 31.6676 23.874 32.7716L17.7425 19.8861C20.4137 17.86 22.1672 14.6854 22.1672 11.0833C22.1672 4.97235 17.1948 0 11.0838 0C4.97284 0 0.000488281 4.97235 0.000488281 11.0833C0.000488281 17.1943 4.97284 22.1667 11.0838 22.1667C12.006 22.1667 12.8903 22.0205 13.7486 21.8052L19.8726 34.6776C11.9789 39.2971 6.65049 47.8445 6.65049 57.6333C6.65049 66.828 11.3414 74.9435 18.4525 79.7221L14.398 87.0107C13.3427 86.6784 12.2452 86.45 11.0838 86.45C4.97284 86.45 0.000488281 91.4223 0.000488281 97.5333C0.000488281 103.644 4.97284 108.617 11.0838 108.617C17.1948 108.617 22.1672 103.644 22.1672 97.5333C22.1672 94.1769 20.6356 91.2005 18.2728 89.1678L22.336 81.8641C25.6697 83.3729 29.3583 84.2333 33.2505 84.2333C39.3333 84.2333 44.928 82.1585 49.4144 78.709L58.1393 88.3073C53.7146 93.06 50.9838 99.4091 50.9838 106.4C50.9838 107.756 51.1191 109.078 51.3139 110.379L41.0489 112.815C39.2825 109.038 35.4715 106.4 31.0338 106.4C24.9228 106.4 19.9505 111.372 19.9505 117.483C19.9505 123.594 24.9228 128.567 31.0338 128.567C37.1448 128.567 42.1172 123.594 42.1172 117.483C42.1172 117.361 42.0836 117.246 42.0814 117.124L52.327 114.695C55.8209 125.31 65.8132 133 77.5838 133C92.2519 133 104.184 121.068 104.184 106.4C104.184 101.852 103.033 97.5691 101.011 93.823L114.032 85.3568C116.045 87.396 118.834 88.6667 121.917 88.6667C128.028 88.6667 133 83.6943 133 77.5833C133 71.4724 128.028 66.5 121.917 66.5C115.806 66.5 110.834 71.4724 110.834 77.5833C110.834 79.0153 111.128 80.3758 111.625 81.6335L98.574 90.1181C95.9622 86.7606 92.5712 84.0493 88.6672 82.2494L99.4864 52.2562C101.694 52.8515 104.006 53.2 106.4 53.2ZM64.2838 17.7333C60.6179 17.7333 57.6338 14.7493 57.6338 11.0833C57.6338 7.41739 60.6179 4.43333 64.2838 4.43333C67.9498 4.43333 70.9338 7.41739 70.9338 11.0833C70.9338 14.7493 67.9498 17.7333 64.2838 17.7333ZM4.43382 11.0833C4.43382 7.41739 7.41788 4.43333 11.0838 4.43333C14.7498 4.43333 17.7338 7.41739 17.7338 11.0833C17.7338 14.7493 14.7498 17.7333 11.0838 17.7333C7.41788 17.7333 4.43382 14.7493 4.43382 11.0833ZM11.0838 104.183C7.41788 104.183 4.43382 101.199 4.43382 97.5333C4.43382 93.8674 7.41788 90.8833 11.0838 90.8833C14.7498 90.8833 17.7338 93.8674 17.7338 97.5333C17.7338 101.199 14.7498 104.183 11.0838 104.183ZM31.0338 124.133C27.3679 124.133 24.3838 121.149 24.3838 117.483C24.3838 113.817 27.3679 110.833 31.0338 110.833C34.6998 110.833 37.6838 113.817 37.6838 117.483C37.6838 121.149 34.6998 124.133 31.0338 124.133ZM121.917 70.9333C125.583 70.9333 128.567 73.9174 128.567 77.5833C128.567 81.2493 125.583 84.2333 121.917 84.2333C118.251 84.2333 115.267 81.2493 115.267 77.5833C115.267 73.9174 118.251 70.9333 121.917 70.9333ZM93.3462 44.4751C94.3355 39.348 98.8554 35.4667 104.184 35.4667H108.617C113.946 35.4667 118.466 39.348 119.455 44.4751C115.788 47.1594 111.284 48.7667 106.4 48.7667C101.517 48.7667 97.0132 47.1594 93.3462 44.4751ZM106.4 31.0333C102.735 31.0333 99.7505 28.0493 99.7505 24.3833C99.7505 20.7174 102.735 17.7333 106.4 17.7333C110.066 17.7333 113.05 20.7174 113.05 24.3833C113.05 28.0493 110.066 31.0333 106.4 31.0333ZM106.4 4.43333C118.624 4.43333 128.567 14.3769 128.567 26.6C128.567 32.1417 126.507 37.2049 123.132 41.0949C121.578 37.0047 118.34 33.7403 114.305 32.1287C116.267 30.1285 117.484 27.3977 117.484 24.3833C117.484 18.2723 112.511 13.3 106.4 13.3C100.29 13.3 95.3172 18.2723 95.3172 24.3833C95.3172 27.3977 96.5337 30.1285 98.496 32.1287C94.461 33.7403 91.2226 37.0047 89.6694 41.0949C86.2935 37.2049 84.2338 32.1417 84.2338 26.6C84.2338 14.3769 94.1774 4.43333 106.4 4.43333ZM11.0838 57.6333C11.0838 45.4103 21.0274 35.4667 33.2505 35.4667C45.4735 35.4667 55.4172 45.4103 55.4172 57.6333C55.4172 63.1923 53.3444 68.2686 49.9513 72.164C48.4035 68.0586 45.1586 64.778 41.1127 63.162C43.0729 61.1618 44.2894 58.431 44.2894 55.4167C44.2894 49.3057 39.3171 44.3333 33.2061 44.3333C27.0951 44.3333 22.1228 49.3057 22.1228 55.4167C22.1228 58.431 23.3393 61.1618 25.3017 63.162C21.2785 64.7661 18.0445 68.0185 16.4859 72.0925C13.1295 68.2069 11.0838 63.1598 11.0838 57.6333ZM26.5561 55.4167C26.5561 51.7507 29.5402 48.7667 33.2061 48.7667C36.8721 48.7667 39.8561 51.7507 39.8561 55.4167C39.8561 59.0826 36.8721 62.0667 33.2061 62.0667C29.5402 62.0667 26.5561 59.0826 26.5561 55.4167ZM20.1594 75.4792C21.1584 70.3662 25.6718 66.5 30.9894 66.5H35.4228C40.761 66.5 45.2895 70.3943 46.2647 75.5377C42.6053 78.2057 38.1157 79.8 33.2505 79.8C28.3496 79.8 23.8318 78.1819 20.1594 75.4792ZM64.4927 124.246C65.4917 119.133 70.0052 115.267 75.3228 115.267H79.7561C85.0943 115.267 89.6229 119.161 90.5981 124.304C86.9386 126.972 82.449 128.567 77.5838 128.567C72.6829 128.567 68.1652 126.949 64.4927 124.246ZM77.5394 110.833C73.8735 110.833 70.8894 107.849 70.8894 104.183C70.8894 100.517 73.8735 97.5333 77.5394 97.5333C81.2054 97.5333 84.1894 100.517 84.1894 104.183C84.1894 107.849 81.2054 110.833 77.5394 110.833ZM99.7505 106.4C99.7505 111.959 97.6778 117.035 94.2846 120.931C92.7368 116.825 89.4919 113.545 85.4461 111.929C87.4062 109.928 88.6228 107.198 88.6228 104.183C88.6228 98.0723 83.6504 93.1 77.5394 93.1C71.4285 93.1 66.4561 98.0723 66.4561 104.183C66.4561 107.198 67.6727 109.928 69.635 111.929C65.6119 113.533 62.3778 116.785 60.8192 120.859C57.4628 116.974 55.4172 111.927 55.4172 106.4C55.4172 94.1769 65.3608 84.2333 77.5838 84.2333C89.8069 84.2333 99.7505 94.1769 99.7505 106.4ZM84.4979 80.7438C82.2899 80.1485 79.978 79.8 77.5838 79.8C71.501 79.8 65.9063 81.8749 61.4199 85.3243L52.695 75.726C57.1197 70.9734 59.8505 64.6243 59.8505 57.6333C59.8505 54.7294 59.3678 51.9412 58.503 49.323L82.882 38.9908C85.6127 44.1537 89.9952 48.2969 95.3193 50.7506L84.4979 80.7438Z" fill="url(#paint0_linear)"/>
</g>
<defs>
<linearGradient id="paint0_linear" x1="119.617" y1="7.72571" x2="-32.7203" y2="193.548" gradientUnits="userSpaceOnUse">
<stop stop-color="#FF3D22"/>
<stop offset="1" stop-color="#FF8516"/>
</linearGradient>
<clipPath id="clip0">
<rect width="133" height="133" fill="white" transform="translate(0.000488281)"/>
</clipPath>
</defs>
</svg>
