<svg width="613" height="462" viewBox="0 0 613 462" fill="none" xmlns="http://www.w3.org/2000/svg">
<g clip-path="url(#clip0)">
<path opacity="0.18" d="M280.361 8.30438C297.067 10.8804 313.323 15.8156 328.642 22.9621C349.886 33.1395 367.422 48.7629 387.391 60.9294C421.42 81.6511 462.169 93.3735 500.852 101.485C516.302 104.748 531.945 107.78 545.851 115.138C567.094 126.416 582.313 146.868 592.896 168.555C616.071 216.159 620.3 273.902 599.675 322.761C579.512 370.249 533.452 410.36 481.115 415.458C415.066 422.237 349.036 435.176 282.871 443.364C236.927 450.162 190.789 456.882 144.342 457.481C125.03 457.693 105.215 456.747 86.8103 450.509C52.2794 438.748 21.0897 414.512 7.57086 379.905C2.13922 365.87 -0.425094 350.889 0.0293373 335.847C0.483768 320.805 3.94773 306.006 10.2167 292.325C17.9417 275.543 29.9541 260.731 35.5741 243.118C40.6533 227.205 40.0932 210.404 39.3207 193.931C38.3551 178.592 40.2879 163.209 45.0179 148.586C54.1721 118.672 68.5986 90.0712 88.9733 66.2788C114.08 36.8281 148.649 14.7739 186.714 7.66709C201.443 5.18942 216.376 4.13528 231.307 4.51924C247.731 4.51424 264.132 5.77972 280.361 8.30438Z" fill="url(#paint0_linear)"/>
<path d="M177.116 335.333C177.053 337.268 177.416 339.193 178.178 340.972C179.118 342.646 180.547 343.993 182.272 344.834C185.972 346.746 190.264 347.168 194.265 346.012C194.811 345.904 195.302 345.611 195.656 345.182C195.848 344.814 195.929 344.398 195.888 343.985C195.59 341.779 194.473 339.766 192.759 338.345C191.047 336.955 189.584 335.283 188.433 333.402C186.502 329.694 187.969 319.883 180.978 321.39C175.146 322.606 176.961 331.142 177.116 335.333Z" fill="#FFBAA8"/>
<path d="M176.15 341.957C176.15 341.957 175.165 344.39 176.382 345.819C177.598 347.248 190.152 355.05 198.611 348.774C207.069 342.497 187.139 341.667 187.139 341.667L176.15 341.957Z" fill="url(#paint1_linear)"/>
<path d="M176.652 336.26C177.038 336.073 177.478 336.031 177.893 336.141C178.307 336.251 178.669 336.505 178.912 336.858C179.743 337.784 180.796 338.484 181.971 338.893C183.146 339.302 184.406 339.406 185.633 339.195C188.375 338.539 189.495 335.333 190.847 335.333C192.199 335.333 199.538 341.551 199.943 344.216C200.349 346.881 196.621 348.851 192.489 349.102C188.356 349.353 178.97 346.514 177.251 344.332C176.508 343.134 176.066 341.775 175.962 340.369C175.858 338.964 176.094 337.554 176.652 336.26Z" fill="white"/>
<path d="M153.149 339.079C153.086 341.014 153.449 342.939 154.211 344.718C155.154 346.397 156.59 347.746 158.325 348.581C162.017 350.494 166.304 350.915 170.298 349.759C170.869 349.639 171.376 349.316 171.728 348.851C171.92 348.483 172.001 348.067 171.959 347.654C171.661 345.448 170.545 343.435 168.831 342.015C167.119 340.624 165.656 338.952 164.505 337.071C162.67 333.363 164.041 323.552 157.05 325.078C151.179 326.43 152.994 334.966 153.149 339.079Z" fill="#FFBAA8"/>
<path d="M152.183 345.78C152.183 345.78 151.198 348.214 152.415 349.643C153.632 351.072 166.185 358.874 174.644 352.598C183.103 346.321 163.172 345.491 163.172 345.491L152.183 345.78Z" fill="url(#paint2_linear)"/>
<path d="M152.685 340.103C153.068 339.911 153.508 339.863 153.923 339.97C154.339 340.076 154.701 340.329 154.945 340.682C155.773 341.614 156.824 342.32 157.999 342.735C159.175 343.151 160.436 343.262 161.666 343.058C164.408 342.401 165.528 339.195 166.899 339.195C168.27 339.195 175.571 345.414 175.976 348.079C176.382 350.744 172.654 352.713 168.522 352.965C164.389 353.216 155.003 350.377 153.284 348.194C152.535 346.996 152.089 345.632 151.985 344.223C151.88 342.813 152.121 341.399 152.685 340.103Z" fill="white"/>
<path d="M148.166 235.915C148.166 235.915 146.853 307.697 152.164 331.644L165.683 333.305L175.03 235.027L148.166 235.915Z" fill="#473F47"/>
<path d="M189.843 228.074C189.843 228.074 196.197 266.698 188.491 328.979L174.972 330.659L165.625 232.361L189.843 228.074Z" fill="#473F47"/>
<path d="M188.607 197.793C188.607 199.087 188.781 200.4 188.781 201.656C188.781 208.82 187.12 216.197 189.263 223.227C189.955 224.723 190.158 226.399 189.843 228.016C189.235 229.312 188.168 230.337 186.849 230.894C180.534 234.351 173.331 235.413 166.108 236.417C160.758 237.17 153.149 238.754 148.205 235.876C146.322 234.478 145.06 232.399 144.69 230.083C142.796 222.687 141.676 215.115 141.349 207.488C141.349 206.484 141.214 205.557 141.156 204.514C140.75 197.639 140.596 190.783 140.731 183.927C140.731 178.945 141.233 173.557 144.478 169.791C148.804 164.789 157.166 161.467 163.52 160.309C165.585 159.898 167.7 159.794 169.796 160C172.758 160.475 175.618 161.448 178.255 162.877C181.423 164.441 184.223 165.755 185.768 168.864C187.471 172.472 188.661 176.301 189.302 180.239C189.869 183.927 189.934 187.676 189.495 191.382C189.302 193.197 188.839 194.993 188.665 196.808C188.626 197.137 188.626 197.465 188.607 197.793Z" fill="white"/>
<path d="M182.62 165.388L201.527 175.468L241.542 161.255L248.495 178.365C248.495 178.365 211.801 197.136 204.713 197.214C197.626 197.291 178.989 192.135 178.989 192.135L182.62 165.388Z" fill="white"/>
<path opacity="0.1" d="M199.209 186.283C197.066 186.032 186.347 180.702 185.169 179.814C186.811 183.271 189.031 194.008 189.398 194.22C193.44 196.237 197.834 197.451 202.338 197.793C206.856 198.126 211.383 197.274 215.47 195.321C217.478 194.149 219.548 193.085 221.67 192.135C222.944 191.652 224.277 191.382 225.532 190.957C228.872 189.692 232.013 187.956 234.86 185.8C235.324 185.572 235.735 185.25 236.067 184.854C236.4 184.459 236.646 183.998 236.791 183.502C236.985 182.228 235.845 181.146 234.686 180.586C232.86 179.785 230.887 179.371 228.893 179.37C226.272 179.031 223.616 179.089 221.013 179.543C219.372 180.007 218.155 181.475 216.552 182.266C211.917 184.294 204.23 186.863 199.209 186.283Z" fill="#020202"/>
<path opacity="0.1" d="M159.387 238.368C157.301 238.966 152.511 237.074 150.928 236.784C149.962 236.63 148.997 236.147 148.166 235.915C143.415 234.737 142.855 221.412 142.372 217.82C141.136 208.338 139.244 198.508 139.128 189.006C138.921 185.343 139.346 181.672 140.383 178.153C140.92 176.393 141.837 174.771 143.068 173.403C144.299 172.035 145.815 170.954 147.51 170.235C148.174 169.955 148.907 169.881 149.615 170.023C152.492 170.757 153.091 175.527 153.593 177.747C154.462 181.803 156.432 183.657 158.44 186.901C160.449 190.146 160.584 194.201 162.496 197.542C162.968 198.476 163.625 199.304 164.427 199.975C166.06 200.928 167.957 201.328 169.835 201.115H183.469C184.567 200.963 185.68 201.24 186.579 201.887C186.973 202.403 187.25 202.999 187.39 203.632C187.53 204.266 187.53 204.923 187.39 205.557L186.559 215.637C186.573 216.079 186.459 216.515 186.231 216.893C185.84 217.294 185.321 217.547 184.763 217.607C181.029 218.146 177.4 219.26 174.006 220.91C170.711 223.173 167.206 225.113 163.539 226.703C162.482 227.177 161.515 227.831 160.681 228.634C159.706 229.851 159.218 231.385 159.309 232.941C159.309 233.926 160.565 236.958 160.198 237.672C160.116 237.837 160.002 237.983 159.863 238.102C159.723 238.222 159.562 238.312 159.387 238.368Z" fill="#020202"/>
<path d="M173.968 154.399C173.213 155.235 172.173 155.758 171.052 155.867C170.114 155.954 169.17 155.954 168.232 155.867H167.711C167.585 155.827 167.45 155.827 167.324 155.867C167.267 155.921 167.222 155.987 167.192 156.061C167.162 156.134 167.148 156.213 167.151 156.292C166.986 158.168 166.986 160.055 167.151 161.931C167.151 162.278 167.151 162.607 167.151 162.954C167.25 163.301 167.25 163.669 167.151 164.017C166.881 164.401 166.472 164.664 166.011 164.75C165.19 165.03 164.33 165.18 163.462 165.195C161.593 165.062 159.788 164.464 158.209 163.456C158.345 160.229 158.177 156.996 157.707 153.801C157.108 149.687 156.026 145.574 156.471 141.441C156.586 139.824 157.192 138.281 158.209 137.018C159.021 136.248 159.985 135.654 161.039 135.275C162.093 134.896 163.214 134.74 164.331 134.817C167.292 134.774 170.205 135.571 172.732 137.115C173.659 137.752 173.755 138.563 173.968 139.606C174.296 141.228 174.547 142.87 174.74 144.511C174.933 146.153 175.049 148.258 175.088 150.151C175.233 151.655 174.836 153.162 173.968 154.399Z" fill="#FFBAA8"/>
<path d="M170.685 138.042C168.753 138.563 166.262 138.042 164.312 138.892C162.974 139.577 161.929 140.722 161.368 142.117C160.807 143.511 160.769 145.061 161.26 146.481C160.468 146.771 160.314 145.323 159.696 144.743C159.078 144.164 157.765 144.936 157.591 145.941C157.645 146.95 157.943 147.93 158.46 148.799C159.222 150.574 159.359 152.556 158.846 154.419C158.711 154.863 158.383 155.384 157.958 155.268C157.533 155.152 157.205 154.399 156.934 154.071C156.504 153.557 156.032 153.079 155.524 152.642C154.559 151.792 153.477 151.039 152.473 150.209C151.469 149.378 151.102 148.586 149.943 148.277C148.848 148.058 147.737 147.923 146.621 147.872C145.744 147.702 144.932 147.292 144.275 146.687C143.618 146.082 143.142 145.306 142.902 144.446C142.661 143.585 142.665 142.675 142.912 141.817C143.16 140.959 143.642 140.187 144.304 139.587C144.686 139.322 145.008 138.98 145.25 138.583C145.396 138.134 145.435 137.658 145.366 137.192C145.392 135.973 145.719 134.779 146.319 133.718C146.919 132.656 147.772 131.76 148.804 131.109C150.871 129.806 153.274 129.135 155.717 129.178C156.246 129.212 156.777 129.147 157.282 128.985C157.748 128.746 158.172 128.433 158.537 128.058C159.57 127.184 160.784 126.55 162.092 126.202C163.399 125.854 164.768 125.802 166.098 126.047C167.429 126.293 168.688 126.831 169.785 127.623C170.882 128.415 171.79 129.441 172.442 130.626C173.231 131.95 173.538 133.505 173.311 135.029C173.242 135.743 172.952 136.416 172.481 136.957C172.01 137.497 171.382 137.876 170.685 138.042Z" fill="#FF681C"/>
<path d="M168.232 155.925H167.711C167.585 155.885 167.45 155.885 167.324 155.925C167.267 155.979 167.222 156.045 167.192 156.119C167.162 156.192 167.148 156.271 167.15 156.35C166.986 158.226 166.986 160.113 167.15 161.989C165.494 161.46 164.07 160.376 163.12 158.919C162.17 157.463 161.752 155.723 161.936 153.994C163.981 154.856 166.111 155.503 168.29 155.925H168.232Z" fill="#E0A091"/>
<path d="M159.269 176.699C157.379 171.372 151.528 168.585 146.2 170.475C140.872 172.364 138.085 178.215 139.975 183.543L149.24 209.661C151.13 214.989 156.981 217.776 162.308 215.886C167.636 213.996 170.423 208.145 168.533 202.818L159.269 176.699Z" fill="white"/>
<path d="M440.172 177.477C431.887 332.783 327.947 373.377 327.947 373.377C212.554 304.627 213.134 170.37 213.134 170.37C286.676 150.517 328.739 109.904 330.052 108.572C357.476 148.528 440.172 177.477 440.172 177.477Z" fill="url(#paint3_linear)"/>
<path d="M440.172 176.859C431.887 332.166 327.947 372.759 327.947 372.759C212.554 304.009 213.134 169.752 213.134 169.752C286.714 149.938 328.777 109.383 330.09 108.031C357.476 148.007 440.172 176.859 440.172 176.859Z" fill="url(#paint4_linear)"/>
<path d="M202.628 190.493C203.593 189.779 204.559 188.987 205.37 188.214C207.468 186.321 209.837 184.752 212.4 183.56C214.973 182.363 217.856 181.998 220.646 182.517C221.245 182.633 221.959 183 221.882 183.618C221.805 184.236 221.457 184.275 221.09 184.468C219.466 185.368 217.75 186.094 215.973 186.631C215.239 186.843 214.389 187.114 214.041 187.828C214.636 187.894 215.237 187.822 215.799 187.616C218 187.06 220.281 186.897 222.539 187.133C222.751 187.133 223.002 187.133 223.118 187.403C223.234 187.674 223.118 187.983 222.771 188.156C220.608 189.875 217.363 189.759 215.297 191.613C214.93 191.922 214.659 192.579 215.065 192.83C215.234 192.887 215.417 192.887 215.586 192.83C216.475 192.83 217.344 192.463 218.232 192.309C219.651 192.029 221.107 191.99 222.539 192.193C222.634 192.196 222.727 192.218 222.813 192.258C222.899 192.298 222.977 192.354 223.041 192.424C223.253 192.753 222.809 193.12 222.462 193.293L214.988 196.557C216.016 196.645 217.05 196.645 218.078 196.557C219.125 196.498 220.156 196.828 220.975 197.484C221.007 197.501 221.035 197.525 221.055 197.556C221.076 197.586 221.088 197.621 221.09 197.658C221.09 197.793 221.09 197.87 220.878 197.928C219.683 198.574 218.368 198.968 217.015 199.087C216.211 199.148 215.416 199.291 214.64 199.512C214.169 199.686 213.711 199.893 213.269 200.13C211.832 200.893 210.279 201.415 208.672 201.675C207.059 201.948 205.401 201.677 203.96 200.902C203.575 200.658 203.168 200.451 202.743 200.284C201.198 199.86 199.48 201.462 198.051 200.709C197.571 200.383 197.185 199.937 196.93 199.415C196.158 198.141 193.57 194.587 195.656 193.409C196.829 192.951 198.028 192.564 199.248 192.251C200.439 191.797 201.573 191.208 202.628 190.493Z" fill="#FFBAA8"/>
<path d="M170.298 194.607L195.868 192.154L200.001 204.63C200.001 204.63 162.631 219.828 155.37 215.599C148.108 211.369 154.848 204.475 154.848 204.475C154.848 204.475 155.698 194.356 170.298 194.607Z" fill="white"/>
<path d="M426.75 185.009C419.43 321.892 327.831 357.677 327.831 357.677C226.131 297.076 226.633 178.751 226.633 178.751C291.465 161.255 328.526 125.45 329.685 124.35C353.826 159.594 426.75 185.009 426.75 185.009Z" fill="url(#paint5_linear)"/>
<path d="M329.704 124.33L327.773 357.677C226.073 297.076 226.575 178.751 226.575 178.751C291.408 161.255 328.468 125.451 329.627 124.35L329.704 124.33Z" fill="url(#paint6_linear)"/>
<path d="M327.831 242.307C337.74 242.307 345.772 234.275 345.772 224.366C345.772 214.458 337.74 206.426 327.831 206.426C317.922 206.426 309.889 214.458 309.889 224.366C309.889 234.275 317.922 242.307 327.831 242.307Z" fill="#473F47"/>
<path d="M317.035 269.112H336.367L330.882 240.376H323.833L317.035 269.112Z" fill="#473F47"/>
<path opacity="0.18" d="M231.519 217.8H254.598V201.057H272.887" stroke="white" stroke-width="1.22794" stroke-miterlimit="10"/>
<path opacity="0.18" d="M236.038 235.741H266.089V272.279H284.899" stroke="white" stroke-width="1.22794" stroke-miterlimit="10"/>
<path opacity="0.18" d="M424.838 206.426H386.792V184.854H352.821" stroke="white" stroke-width="1.22794" stroke-miterlimit="10"/>
<path opacity="0.18" d="M417.75 242.307H380.689V280.294H354.56" stroke="white" stroke-width="1.22794" stroke-miterlimit="10"/>
<path opacity="0.18" d="M272.887 309.165H303.98V294.565H322.79" stroke="white" stroke-width="1.22794" stroke-miterlimit="10"/>
<path d="M250.252 163.012C250.621 163.15 251.021 163.181 251.407 163.102C251.793 163.024 252.149 162.839 252.435 162.568C253.284 161.583 252.608 160.096 251.913 158.995C252.57 158.493 253.516 159.131 254.018 159.807C254.52 160.482 255.119 161.294 255.95 161.197C256.78 161.1 257.243 159.961 257.031 159.111C256.698 158.284 256.277 157.494 255.776 156.755C256.143 156.253 256.954 156.755 257.282 157.238C257.61 157.721 258.055 158.455 258.653 158.32C258.889 158.214 259.079 158.027 259.189 157.793C259.298 157.559 259.321 157.294 259.252 157.045C259.106 156.545 258.996 156.035 258.924 155.519C259.947 155.191 261.125 156.253 262.072 155.751C262.238 155.628 262.375 155.47 262.476 155.29C262.577 155.109 262.639 154.909 262.657 154.703C262.675 154.497 262.65 154.29 262.582 154.094C262.515 153.899 262.406 153.72 262.265 153.569C261.655 152.978 260.868 152.605 260.024 152.507C257.94 152.063 255.767 152.321 253.844 153.241C251.624 154.129 249.306 154.592 247.143 155.712C245.145 156.559 243.387 157.886 242.025 159.575C241.918 159.762 241.885 159.982 241.931 160.193C241.977 160.404 242.1 160.589 242.276 160.714C242.564 160.811 242.876 160.811 243.165 160.714C244.7 160.426 246.288 160.693 247.645 161.467C248.375 161.979 249.136 162.443 249.924 162.858L250.252 163.012Z" fill="#FFBAA8"/>
<path d="M538.319 175.044C517.307 130.24 420.667 96.2896 304.984 96.2896C173.968 96.2896 67.4398 139.819 67.4398 193.332C67.4398 246.846 174.026 290.375 304.984 290.375C394.286 290.375 472.231 270.155 512.826 240.337C518.668 236.12 524.03 231.276 528.817 225.892C535.116 219.088 539.553 210.773 541.698 201.752C542.283 198.984 542.581 196.162 542.587 193.332C542.538 186.995 541.08 180.748 538.319 175.044ZM526.944 225.718C522.779 230.291 518.187 234.455 513.232 238.155C473.486 268.243 395.039 288.752 304.946 288.752C174.837 288.752 68.9655 245.957 68.9655 193.332C68.9655 140.707 174.837 97.8925 304.984 97.8925C419.199 97.8925 514.719 130.877 536.368 174.522C539.344 180.349 540.918 186.79 540.965 193.332C540.971 195.619 540.764 197.901 540.346 200.149C538.763 209.071 534.166 217.646 526.944 225.718Z" fill="white"/>
<path opacity="0.18" d="M545.542 188.929C545.396 187.366 545.164 185.812 544.846 184.275C544.261 181.535 543.434 178.853 542.374 176.26L542.027 176.145C540.81 175.758 539.555 175.411 538.319 175.044C517.307 130.24 420.667 96.2896 304.984 96.2896C173.968 96.2896 67.4398 139.819 67.4398 193.332C67.4398 246.846 174.026 290.375 304.984 290.375C394.286 290.375 472.231 270.155 512.826 240.337C512.788 240.918 512.865 241.501 513.054 242.051C513.243 242.601 513.54 243.109 513.927 243.543C521.273 238.366 527.881 232.214 533.568 225.255C538.171 219.64 541.659 213.196 543.842 206.271C545.124 202.084 545.774 197.73 545.773 193.351C545.774 191.874 545.696 190.398 545.542 188.929ZM304.984 288.752C174.876 288.752 69.0042 245.957 69.0042 193.332C69.0042 140.707 174.837 97.8925 304.984 97.8925C419.199 97.8925 514.719 130.877 536.368 174.522C535.242 174.303 534.075 174.502 533.085 175.082C536.081 180.703 537.678 186.963 537.739 193.332C537.736 194.804 537.646 196.274 537.469 197.735C536.33 207.044 531.675 216.159 523.564 224.772C520.526 228.01 517.247 231.012 513.753 233.752C513.987 234.579 513.987 235.455 513.753 236.282C513.579 236.9 513.386 237.518 513.212 238.213C473.486 268.243 395.039 288.752 304.984 288.752Z" fill="url(#paint7_linear)"/>
<path opacity="0.18" d="M536.329 174.522C535.203 174.303 534.036 174.502 533.046 175.082C524.162 157.875 502.706 141.885 470.512 128.869C426.267 110.986 367.46 101.137 304.984 101.137C242.508 101.137 183.643 110.986 139.398 128.869C96.0415 146.385 72.1905 169.25 72.1905 193.332C72.1905 217.414 96.0415 240.26 139.36 257.776C183.605 275.678 242.411 285.527 304.945 285.527C367.48 285.527 426.267 275.678 470.512 257.776C488.299 250.592 502.783 242.52 513.714 233.771C513.948 234.598 513.948 235.474 513.714 236.301C513.54 236.919 513.347 237.537 513.173 238.232C473.428 268.32 394.981 288.83 304.888 288.83C174.779 288.83 68.9074 246.034 68.9074 193.409C68.9074 140.784 174.837 97.8925 304.984 97.8925C419.16 97.8925 514.68 130.877 536.329 174.522Z" fill="url(#paint8_linear)"/>
<path opacity="0.18" d="M542.374 176.26L542.027 176.144C540.81 175.758 539.555 175.411 538.319 175.044C517.306 130.24 420.666 96.2896 304.984 96.2896C173.968 96.2896 67.4397 139.819 67.4397 193.332C67.4397 246.845 174.026 290.375 304.984 290.375C394.285 290.375 472.231 270.155 512.826 240.337C512.787 240.918 512.865 241.501 513.054 242.051C513.243 242.601 513.54 243.109 513.927 243.543C501.546 252.21 488.186 259.386 474.124 264.921C428.797 283.422 368.716 293.6 304.984 293.6C241.253 293.6 181.133 283.422 135.845 264.921C89.6105 246.034 64.1565 220.601 64.1565 193.332C64.1565 166.064 89.5719 140.63 135.806 121.762C181.094 103.242 241.253 93.0645 304.984 93.0645C368.716 93.0645 428.836 103.242 474.124 121.762C510.508 136.632 534.031 155.558 542.374 176.26Z" fill="url(#paint9_linear)"/>
<path opacity="0.35" d="M294.498 384.81C397.137 384.81 480.342 371.097 480.342 354.181C480.342 337.265 397.137 323.552 294.498 323.552C191.858 323.552 108.653 337.265 108.653 354.181C108.653 371.097 191.858 384.81 294.498 384.81Z" fill="url(#paint10_linear)"/>
<path d="M253.613 125.315H208.093V69.1177H247.336L253.613 77.1321V125.315Z" fill="white"/>
<path d="M249.576 128.637H204.057V72.4394H243.3L249.576 80.4539V128.637Z" fill="white"/>
<path d="M249.19 129.023H203.67V72.8254H242.914L249.19 80.8399V129.023Z" fill="url(#paint11_linear)"/>
<path d="M245.193 133.678H199.673V77.4605H238.916L245.193 85.475V133.678Z" fill="white"/>
<path d="M238.916 77.4605V85.3977H245.193L238.916 77.4605Z" fill="url(#paint12_linear)"/>
<path d="M242.914 72.8254V80.9944H249.19L242.914 72.8254Z" fill="url(#paint13_linear)"/>
<path d="M247.336 69.1177V77.2866H253.613L247.336 69.1177Z" fill="url(#paint14_linear)"/>
<path d="M542.393 243.64C541.79 243.485 541.225 243.209 540.733 242.826C540.242 242.444 539.834 241.965 539.535 241.419C539.072 240.627 538.647 239.797 538.183 239.005C537.785 238.213 537.147 237.568 536.359 237.162C535.571 236.756 534.675 236.61 533.799 236.745C532.905 236.803 532.052 237.14 531.359 237.708C530.666 238.276 530.169 239.047 529.937 239.912C529.647 240.859 529.415 241.844 529.087 242.751C528.718 243.921 527.903 244.899 526.819 245.473C525.735 246.048 524.469 246.173 523.293 245.822L517.982 244.258C517.374 244.093 516.804 243.809 516.308 243.42C515.811 243.032 515.398 242.548 515.092 241.997C514.786 241.446 514.593 240.839 514.526 240.212C514.458 239.586 514.517 238.952 514.699 238.348C514.95 237.383 515.279 236.417 515.51 235.49C515.758 234.659 515.74 233.772 515.459 232.952C515.179 232.131 514.65 231.419 513.946 230.913C513.305 230.35 512.504 230.003 511.655 229.92C510.806 229.837 509.953 230.022 509.215 230.45C508.384 230.855 507.592 231.338 506.781 231.763C506.223 232.074 505.609 232.272 504.974 232.343C504.339 232.414 503.696 232.359 503.083 232.179C502.47 231.999 501.899 231.699 501.403 231.296C500.907 230.893 500.497 230.395 500.196 229.832C499.269 228.151 498.264 226.491 497.434 224.81C497.106 224.26 496.896 223.647 496.817 223.011C496.737 222.376 496.789 221.73 496.971 221.116C497.152 220.501 497.458 219.931 497.87 219.44C498.282 218.949 498.791 218.549 499.365 218.264C500.138 217.82 500.949 217.433 501.702 216.989C502.463 216.603 503.086 215.991 503.487 215.238C503.888 214.485 504.047 213.626 503.942 212.779C503.91 211.903 503.604 211.059 503.067 210.367C502.53 209.674 501.789 209.167 500.949 208.917C500.022 208.608 499.018 208.376 498.11 208.067C497.475 207.9 496.882 207.602 496.369 207.193C495.856 206.784 495.435 206.272 495.131 205.69C494.827 205.108 494.649 204.47 494.606 203.815C494.564 203.16 494.659 202.503 494.885 201.887C495.367 200.207 495.85 198.527 496.352 196.847C496.658 195.677 497.409 194.673 498.444 194.049C499.48 193.425 500.718 193.23 501.895 193.506C502.899 193.699 503.826 194.027 504.85 194.298C505.714 194.591 506.647 194.61 507.522 194.353C508.398 194.095 509.172 193.573 509.738 192.858C510.305 192.143 510.637 191.271 510.689 190.36C510.74 189.449 510.508 188.544 510.026 187.77C509.601 187.017 509.176 186.264 508.79 185.511C508.498 184.973 508.316 184.383 508.256 183.774C508.195 183.166 508.257 182.551 508.436 181.967C508.616 181.382 508.911 180.839 509.303 180.37C509.696 179.901 510.177 179.515 510.721 179.234C512.517 178.211 514.332 177.303 516.186 176.299C517.285 175.759 518.547 175.659 519.717 176.018C520.887 176.377 521.875 177.168 522.482 178.23C522.965 179.06 523.39 179.91 523.873 180.741C524.272 181.494 524.895 182.105 525.656 182.489C526.417 182.873 527.279 183.011 528.122 182.884C528.989 182.831 529.818 182.509 530.493 181.962C531.168 181.415 531.656 180.67 531.887 179.833C532.177 178.964 532.409 178.056 532.679 177.187C532.845 176.543 533.143 175.941 533.554 175.419C533.965 174.896 534.48 174.465 535.067 174.153C535.653 173.84 536.299 173.653 536.962 173.604C537.625 173.554 538.291 173.644 538.917 173.866L543.861 175.314C544.491 175.469 545.082 175.751 545.599 176.143C546.115 176.535 546.547 177.027 546.867 177.591C547.187 178.155 547.388 178.778 547.459 179.423C547.53 180.067 547.469 180.719 547.28 181.339C547.048 182.189 546.777 183.058 546.526 183.908C546.227 184.756 546.206 185.678 546.466 186.54C546.727 187.401 547.255 188.157 547.975 188.697C548.66 189.282 549.512 189.635 550.41 189.708C551.308 189.781 552.206 189.569 552.977 189.103C553.73 188.697 554.483 188.253 555.236 187.867C555.792 187.564 556.401 187.374 557.03 187.308C557.659 187.241 558.294 187.299 558.901 187.479C559.507 187.658 560.072 187.955 560.563 188.353C561.055 188.751 561.463 189.242 561.764 189.798C562.73 191.517 563.695 193.255 564.622 194.993C564.928 195.538 565.12 196.139 565.188 196.76C565.256 197.382 565.198 198.01 565.017 198.609C564.837 199.207 564.538 199.763 564.139 200.243C563.739 200.723 563.247 201.118 562.691 201.404C561.861 201.868 560.992 202.273 560.161 202.756C559.463 203.119 558.887 203.678 558.503 204.364C558.119 205.051 557.943 205.834 557.998 206.619C557.994 207.455 558.245 208.273 558.718 208.963C559.191 209.653 559.862 210.183 560.644 210.481C561.61 210.867 562.575 211.118 563.657 211.427C564.25 211.561 564.808 211.817 565.296 212.18C565.784 212.543 566.191 213.004 566.489 213.533C566.788 214.063 566.972 214.649 567.029 215.255C567.087 215.86 567.017 216.471 566.824 217.047C566.322 218.978 565.762 220.909 565.144 222.841C564.988 223.448 564.707 224.015 564.317 224.506C563.928 224.998 563.44 225.401 562.884 225.691C562.328 225.98 561.718 226.15 561.092 226.188C560.467 226.226 559.84 226.132 559.253 225.911C558.365 225.66 557.496 225.371 556.588 225.158C555.768 224.937 554.9 224.975 554.101 225.265C553.303 225.555 552.614 226.084 552.127 226.78C551.583 227.417 551.251 228.208 551.178 229.042C551.105 229.877 551.295 230.713 551.721 231.434C552.166 232.284 552.668 233.115 553.112 233.945C553.418 234.492 553.61 235.094 553.678 235.717C553.747 236.34 553.689 236.97 553.509 237.57C553.328 238.169 553.03 238.727 552.63 239.209C552.23 239.691 551.737 240.088 551.181 240.376C549.462 241.342 547.724 242.307 545.986 243.215C545.446 243.524 544.85 243.721 544.233 243.794C543.616 243.867 542.99 243.814 542.393 243.64ZM516.302 205.479C515.445 208.38 515.467 211.47 516.365 214.359C517.264 217.247 518.999 219.805 521.351 221.707C523.703 223.609 526.567 224.772 529.579 225.047C532.592 225.322 535.619 224.697 538.276 223.252C540.934 221.808 543.104 219.607 544.511 216.929C545.918 214.251 546.499 211.216 546.181 208.207C545.863 205.199 544.66 202.353 542.724 200.028C540.789 197.703 538.207 196.005 535.306 195.147C533.38 194.573 531.359 194.384 529.36 194.593C527.361 194.802 525.422 195.404 523.657 196.364C521.891 197.324 520.332 198.623 519.07 200.188C517.808 201.752 516.867 203.55 516.302 205.479Z" fill="url(#paint15_linear)"/>
<g opacity="0.27">
<path opacity="0.27" d="M542.393 243.64C541.79 243.485 541.225 243.209 540.733 242.826C540.242 242.444 539.834 241.965 539.535 241.419C539.072 240.627 538.647 239.797 538.183 239.005C537.785 238.213 537.147 237.568 536.359 237.162C535.571 236.756 534.675 236.61 533.799 236.745C532.905 236.803 532.052 237.14 531.359 237.708C530.666 238.276 530.169 239.047 529.937 239.912C529.647 240.859 529.415 241.844 529.087 242.751C528.718 243.921 527.903 244.899 526.819 245.473C525.735 246.048 524.469 246.173 523.293 245.822L517.982 244.258C517.374 244.093 516.804 243.809 516.308 243.42C515.811 243.032 515.398 242.548 515.092 241.997C514.786 241.446 514.593 240.839 514.526 240.212C514.458 239.586 514.517 238.952 514.699 238.348C514.95 237.383 515.279 236.417 515.51 235.49C515.758 234.659 515.74 233.772 515.459 232.952C515.179 232.131 514.65 231.419 513.946 230.913C513.305 230.35 512.504 230.003 511.655 229.92C510.806 229.837 509.953 230.022 509.215 230.45C508.384 230.855 507.592 231.338 506.781 231.763C506.223 232.074 505.609 232.272 504.974 232.343C504.339 232.414 503.696 232.359 503.083 232.179C502.47 231.999 501.899 231.699 501.403 231.296C500.907 230.893 500.497 230.395 500.196 229.832C499.269 228.151 498.264 226.491 497.434 224.81C497.106 224.26 496.896 223.647 496.817 223.011C496.737 222.376 496.789 221.73 496.971 221.116C497.152 220.501 497.458 219.931 497.87 219.44C498.282 218.949 498.791 218.549 499.365 218.264C500.138 217.82 500.949 217.433 501.702 216.989C502.463 216.603 503.086 215.991 503.487 215.238C503.888 214.485 504.047 213.626 503.942 212.779C503.91 211.903 503.604 211.059 503.067 210.367C502.53 209.674 501.789 209.167 500.949 208.917C500.022 208.608 499.018 208.376 498.11 208.067C497.475 207.9 496.882 207.602 496.369 207.193C495.856 206.784 495.435 206.272 495.131 205.69C494.827 205.108 494.649 204.47 494.606 203.815C494.564 203.16 494.659 202.503 494.885 201.887C495.367 200.207 495.85 198.527 496.352 196.847C496.658 195.677 497.409 194.673 498.444 194.049C499.48 193.425 500.718 193.23 501.895 193.506C502.899 193.699 503.826 194.027 504.85 194.298C505.714 194.591 506.647 194.61 507.522 194.353C508.398 194.095 509.172 193.573 509.738 192.858C510.305 192.143 510.637 191.271 510.689 190.36C510.74 189.449 510.508 188.544 510.026 187.77C509.601 187.017 509.176 186.264 508.79 185.511C508.498 184.973 508.316 184.383 508.256 183.774C508.195 183.166 508.257 182.551 508.436 181.967C508.616 181.382 508.911 180.839 509.303 180.37C509.696 179.901 510.177 179.515 510.721 179.234C512.517 178.211 514.332 177.303 516.186 176.299C517.285 175.759 518.547 175.659 519.717 176.018C520.887 176.377 521.875 177.168 522.482 178.23C522.965 179.06 523.39 179.91 523.873 180.741C524.272 181.494 524.895 182.105 525.656 182.489C526.417 182.873 527.279 183.011 528.122 182.884C528.989 182.831 529.818 182.509 530.493 181.962C531.168 181.415 531.656 180.67 531.887 179.833C532.177 178.964 532.409 178.056 532.679 177.187C532.845 176.543 533.143 175.941 533.554 175.419C533.965 174.896 534.48 174.465 535.067 174.153C535.653 173.84 536.299 173.653 536.962 173.604C537.625 173.554 538.291 173.644 538.917 173.866L543.861 175.314C544.491 175.469 545.082 175.751 545.599 176.143C546.115 176.535 546.547 177.027 546.867 177.591C547.187 178.155 547.388 178.778 547.459 179.423C547.53 180.067 547.469 180.719 547.28 181.339C547.048 182.189 546.777 183.058 546.526 183.908C546.227 184.756 546.206 185.678 546.466 186.54C546.727 187.401 547.255 188.157 547.975 188.697C548.66 189.282 549.512 189.635 550.41 189.708C551.308 189.781 552.206 189.569 552.977 189.103C553.73 188.697 554.483 188.253 555.236 187.867C555.792 187.564 556.401 187.374 557.03 187.308C557.659 187.241 558.294 187.299 558.901 187.479C559.507 187.658 560.072 187.955 560.563 188.353C561.055 188.751 561.463 189.242 561.764 189.798C562.73 191.517 563.695 193.255 564.622 194.993C564.928 195.538 565.12 196.139 565.188 196.76C565.256 197.382 565.198 198.01 565.017 198.609C564.837 199.207 564.538 199.763 564.139 200.243C563.739 200.723 563.247 201.118 562.691 201.404C561.861 201.868 560.992 202.273 560.161 202.756C559.463 203.119 558.887 203.678 558.503 204.364C558.119 205.051 557.943 205.834 557.998 206.619C557.994 207.455 558.245 208.273 558.718 208.963C559.191 209.653 559.862 210.183 560.644 210.481C561.61 210.867 562.575 211.118 563.657 211.427C564.25 211.561 564.808 211.817 565.296 212.18C565.784 212.543 566.191 213.004 566.489 213.533C566.788 214.063 566.972 214.649 567.029 215.255C567.087 215.86 567.017 216.471 566.824 217.047C566.322 218.978 565.762 220.909 565.144 222.841C564.988 223.448 564.707 224.015 564.317 224.506C563.928 224.998 563.44 225.401 562.884 225.691C562.328 225.98 561.718 226.15 561.092 226.188C560.467 226.226 559.84 226.132 559.253 225.911C558.365 225.66 557.496 225.371 556.588 225.158C555.768 224.937 554.9 224.975 554.101 225.265C553.303 225.555 552.614 226.084 552.127 226.78C551.583 227.417 551.251 228.208 551.178 229.042C551.105 229.877 551.295 230.713 551.721 231.434C552.166 232.284 552.668 233.115 553.112 233.945C553.418 234.492 553.61 235.094 553.678 235.717C553.747 236.34 553.689 236.97 553.509 237.57C553.328 238.169 553.03 238.727 552.63 239.209C552.23 239.691 551.737 240.088 551.181 240.376C549.462 241.342 547.724 242.307 545.986 243.215C545.446 243.524 544.85 243.721 544.233 243.794C543.616 243.867 542.99 243.814 542.393 243.64ZM516.302 205.479C515.445 208.38 515.467 211.47 516.365 214.359C517.264 217.247 518.999 219.805 521.351 221.707C523.703 223.609 526.567 224.772 529.579 225.047C532.592 225.322 535.619 224.697 538.276 223.252C540.934 221.808 543.104 219.607 544.511 216.929C545.918 214.251 546.499 211.216 546.181 208.207C545.863 205.199 544.66 202.353 542.724 200.028C540.789 197.703 538.207 196.005 535.306 195.147C533.38 194.573 531.359 194.384 529.36 194.593C527.361 194.802 525.422 195.404 523.657 196.364C521.891 197.324 520.332 198.623 519.07 200.188C517.808 201.752 516.867 203.55 516.302 205.479Z" fill="#020202"/>
</g>
<path d="M561.841 212.296C560.856 211.987 559.813 211.756 558.848 211.35C558.066 211.052 557.394 210.522 556.922 209.832C556.449 209.142 556.198 208.324 556.202 207.488C556.151 206.702 556.331 205.918 556.718 205.232C557.106 204.546 557.685 203.988 558.384 203.625C559.195 203.162 560.064 202.737 560.895 202.274C561.451 201.988 561.943 201.593 562.343 201.112C562.742 200.632 563.041 200.076 563.221 199.478C563.402 198.879 563.459 198.251 563.392 197.63C563.324 197.008 563.131 196.407 562.826 195.862C561.899 194.124 560.895 192.386 559.968 190.686C559.667 190.131 559.259 189.64 558.767 189.242C558.276 188.844 557.711 188.546 557.105 188.367C556.498 188.188 555.863 188.13 555.234 188.196C554.605 188.263 553.995 188.453 553.44 188.755L551.181 189.991C550.412 190.46 549.515 190.675 548.617 190.606C547.719 190.537 546.866 190.186 546.179 189.605C545.966 189.412 545.773 189.219 545.58 189.006C545.072 188.446 544.724 187.76 544.575 187.018C544.425 186.277 544.479 185.509 544.73 184.796C544.73 184.661 544.827 184.487 544.885 184.352C545.078 183.638 545.29 182.942 545.464 182.228C545.835 181.042 545.722 179.758 545.151 178.655C544.579 177.552 543.595 176.719 542.413 176.338L542.065 176.222C540.848 175.835 539.593 175.488 538.357 175.121L537.102 174.754L536.368 174.6C535.242 174.38 534.074 174.579 533.085 175.16C532.041 175.806 531.277 176.818 530.941 177.998C530.651 178.887 530.42 179.775 530.149 180.663C529.904 181.509 529.399 182.257 528.706 182.801C528.013 183.345 527.167 183.658 526.287 183.695C525.446 183.821 524.587 183.685 523.827 183.305C523.066 182.925 522.442 182.319 522.038 181.571C521.536 180.741 521.13 179.891 520.648 179.041C520.048 177.977 519.062 177.183 517.894 176.824C516.727 176.464 515.465 176.567 514.371 177.11C512.44 178.018 510.682 179.041 508.886 180.026C508.343 180.307 507.861 180.693 507.468 181.162C507.076 181.631 506.781 182.174 506.602 182.759C506.422 183.343 506.36 183.958 506.421 184.566C506.482 185.175 506.663 185.765 506.955 186.303C507.341 187.075 507.785 187.809 508.191 188.562C508.693 189.332 508.935 190.242 508.883 191.159C508.831 192.076 508.487 192.953 507.901 193.66C507.343 194.386 506.57 194.916 505.693 195.176C504.815 195.436 503.878 195.413 503.015 195.109C502.03 194.819 501.084 194.491 500.06 194.298C498.883 194.022 497.645 194.217 496.609 194.841C495.574 195.465 494.823 196.469 494.518 197.639C494.035 199.319 493.533 200.999 493.05 202.698C492.824 203.314 492.73 203.971 492.774 204.626C492.818 205.28 492.998 205.918 493.304 206.499C493.61 207.08 494.034 207.589 494.549 207.996C495.064 208.402 495.659 208.696 496.294 208.859C497.221 209.187 498.226 209.38 499.114 209.709C499.951 209.964 500.689 210.472 501.225 211.164C501.761 211.856 502.069 212.697 502.107 213.571C502.219 214.416 502.066 215.276 501.668 216.03C501.27 216.784 500.647 217.396 499.887 217.781C499.114 218.225 498.303 218.631 497.53 219.056C496.956 219.341 496.447 219.741 496.035 220.232C495.623 220.722 495.317 221.293 495.136 221.908C494.955 222.522 494.902 223.167 494.982 223.803C495.062 224.439 495.272 225.052 495.599 225.602C496.507 227.283 497.434 228.963 498.361 230.623C498.666 231.183 499.078 231.677 499.575 232.077C500.071 232.477 500.641 232.776 501.253 232.955C501.865 233.134 502.506 233.191 503.14 233.123C503.773 233.054 504.387 232.861 504.946 232.555C505.758 232.11 506.549 231.647 507.38 231.222C508.119 230.8 508.972 230.618 509.819 230.701C510.667 230.784 511.468 231.128 512.111 231.686C512.813 232.208 513.344 232.927 513.637 233.752C513.871 234.579 513.871 235.455 513.637 236.282C513.463 236.9 513.27 237.518 513.096 238.213L512.807 239.198C512.615 239.955 512.601 240.746 512.765 241.51C512.929 242.274 513.267 242.989 513.753 243.601C514.357 244.338 515.173 244.87 516.09 245.127L521.401 246.672C522.576 247.017 523.84 246.89 524.923 246.316C526.005 245.742 526.821 244.768 527.194 243.601C527.523 242.674 527.755 241.67 528.044 240.762C528.282 239.9 528.78 239.132 529.472 238.565C530.164 237.998 531.014 237.659 531.907 237.595C532.779 237.467 533.67 237.616 534.453 238.022C535.236 238.427 535.872 239.068 536.271 239.855C536.735 240.646 537.16 241.477 537.604 242.288C538.223 243.389 539.247 244.206 540.458 244.567C541.669 244.927 542.972 244.802 544.093 244.219C545.831 243.273 547.569 242.288 549.288 241.38C549.844 241.094 550.336 240.699 550.736 240.219C551.135 239.739 551.434 239.183 551.615 238.584C551.795 237.986 551.853 237.357 551.785 236.736C551.717 236.115 551.525 235.514 551.219 234.969C550.756 234.119 550.254 233.308 549.829 232.458C549.394 231.741 549.198 230.904 549.267 230.068C549.336 229.232 549.668 228.44 550.215 227.804C550.703 227.109 551.392 226.579 552.189 226.286C552.986 225.992 553.854 225.949 554.676 226.162C555.584 226.375 556.453 226.684 557.341 226.935C557.922 227.142 558.54 227.226 559.155 227.182C559.771 227.137 560.37 226.965 560.915 226.676C561.46 226.387 561.939 225.988 562.321 225.504C562.703 225.02 562.981 224.461 563.135 223.864C563.772 221.933 564.332 220.002 564.835 218.071C565.052 217.497 565.146 216.883 565.111 216.271C565.075 215.658 564.911 215.059 564.628 214.515C564.346 213.97 563.952 213.49 563.471 213.108C562.991 212.726 562.436 212.449 561.841 212.296ZM543.881 214.884C542.911 218.117 540.91 220.943 538.182 222.93C535.455 224.918 532.152 225.958 528.778 225.892C528.163 225.883 527.549 225.825 526.943 225.718C526.245 225.616 525.555 225.468 524.877 225.274C524.416 225.142 523.965 224.981 523.525 224.791C519.876 223.333 516.93 220.525 515.298 216.951C513.666 213.377 513.474 209.311 514.762 205.599C516.05 201.887 518.719 198.814 522.214 197.019C525.709 195.223 529.761 194.844 533.529 195.959C534.895 196.363 536.195 196.962 537.391 197.735C538.458 198.402 539.427 199.215 540.269 200.149C540.761 200.647 541.213 201.183 541.621 201.752C542.585 203.125 543.322 204.645 543.803 206.252C544.67 209.06 544.696 212.061 543.881 214.884Z" fill="url(#paint16_linear)"/>
</g>
<defs>
<linearGradient id="paint0_linear" x1="551.283" y1="30.76" x2="82.1851" y2="804.954" gradientUnits="userSpaceOnUse">
<stop stop-color="#239D42"/>
<stop offset="1" stop-color="#E1E224"/>
</linearGradient>
<linearGradient id="paint1_linear" x1="198.194" y1="342.22" x2="191.856" y2="362.469" gradientUnits="userSpaceOnUse">
<stop stop-color="#239D42"/>
<stop offset="1" stop-color="#E1E224"/>
</linearGradient>
<linearGradient id="paint2_linear" x1="174.227" y1="346.044" x2="167.889" y2="366.293" gradientUnits="userSpaceOnUse">
<stop stop-color="#239D42"/>
<stop offset="1" stop-color="#E1E224"/>
</linearGradient>
<linearGradient id="paint3_linear" x1="417.325" y1="123.954" x2="108.323" y2="447.122" gradientUnits="userSpaceOnUse">
<stop stop-color="#239D42"/>
<stop offset="1" stop-color="#E1E224"/>
</linearGradient>
<linearGradient id="paint4_linear" x1="606.183" y1="95.3819" x2="342.879" y2="233.315" gradientUnits="userSpaceOnUse">
<stop/>
<stop offset="1" stop-opacity="0"/>
</linearGradient>
<linearGradient id="paint5_linear" x1="406.612" y1="137.903" x2="134.346" y2="422.746" gradientUnits="userSpaceOnUse">
<stop stop-color="#239D42"/>
<stop offset="1" stop-color="#E1E224"/>
</linearGradient>
<linearGradient id="paint6_linear" x1="-3484.01" y1="39772.2" x2="21112.5" y2="37582.7" gradientUnits="userSpaceOnUse">
<stop/>
<stop offset="1" stop-opacity="0"/>
</linearGradient>
<linearGradient id="paint7_linear" x1="497.638" y1="107.564" x2="361.843" y2="515.805" gradientUnits="userSpaceOnUse">
<stop stop-color="#239D42"/>
<stop offset="1" stop-color="#E1E224"/>
</linearGradient>
<linearGradient id="paint8_linear" x1="489.292" y1="108.984" x2="354.979" y2="510.063" gradientUnits="userSpaceOnUse">
<stop stop-color="#239D42"/>
<stop offset="1" stop-color="#E1E224"/>
</linearGradient>
<linearGradient id="paint9_linear" x1="494.251" y1="104.713" x2="350.221" y2="523.68" gradientUnits="userSpaceOnUse">
<stop stop-color="#239D42"/>
<stop offset="1" stop-color="#E1E224"/>
</linearGradient>
<linearGradient id="paint10_linear" x1="442.939" y1="327.111" x2="423.95" y2="467.652" gradientUnits="userSpaceOnUse">
<stop stop-color="#239D42"/>
<stop offset="1" stop-color="#E1E224"/>
</linearGradient>
<linearGradient id="paint11_linear" x1="2324.89" y1="5012.61" x2="6795.43" y2="3066.23" gradientUnits="userSpaceOnUse">
<stop stop-color="#FF8516"/>
<stop offset="1" stop-opacity="0"/>
</linearGradient>
<linearGradient id="paint12_linear" x1="983.948" y1="410.744" x2="1039.98" y2="396.385" gradientUnits="userSpaceOnUse">
<stop stop-color="#239D42"/>
<stop offset="1" stop-opacity="0"/>
</linearGradient>
<linearGradient id="paint13_linear" x1="1000.75" y1="414.206" x2="1057.75" y2="385.975" gradientUnits="userSpaceOnUse">
<stop stop-color="#CD6D15"/>
<stop offset="1" stop-opacity="0"/>
</linearGradient>
<linearGradient id="paint14_linear" x1="1019.61" y1="394.896" x2="1076.63" y2="366.599" gradientUnits="userSpaceOnUse">
<stop stop-color="#1E7E36"/>
<stop offset="1" stop-opacity="0"/>
</linearGradient>
<linearGradient id="paint15_linear" x1="559.758" y1="177.798" x2="476.807" y2="279.019" gradientUnits="userSpaceOnUse">
<stop stop-color="#239D42"/>
<stop offset="1" stop-color="#E1E224"/>
</linearGradient>
<linearGradient id="paint16_linear" x1="557.837" y1="178.715" x2="474.969" y2="279.805" gradientUnits="userSpaceOnUse">
<stop stop-color="#239D42"/>
<stop offset="1" stop-color="#E1E224"/>
</linearGradient>
<clipPath id="clip0">
<rect width="613" height="462" fill="white" transform="translate(0.000244141)"/>
</clipPath>
</defs>
</svg>
