<svg width="133" height="133" viewBox="0 0 133 133" fill="none" xmlns="http://www.w3.org/2000/svg">
<path d="M128.578 25.7875C130.068 24.5447 130.922 22.7201 130.922 20.7812C130.922 18.8424 130.068 17.0178 128.578 15.775L114.297 3.8757V12.4688H89.3596C89.3596 6.73936 84.6984 2.07812 78.969 2.07812H12.469C6.7396 2.07812 2.07837 6.73936 2.07837 12.4688V108.062C2.07837 113.792 6.7396 118.453 12.469 118.453H24.3039C24.7175 119.326 25.1871 120.172 25.769 120.945L29.094 125.38V130.922H66.5002V125.38L69.8252 120.947C70.4071 120.172 70.8768 119.326 71.2903 118.453H78.969C84.6984 118.453 89.3596 113.792 89.3596 108.062H114.297V116.656L128.578 104.756C130.068 103.513 130.922 101.689 130.922 99.75C130.922 97.8111 130.068 95.9865 128.578 94.7438L114.634 83.125H130.922V37.4062H114.634L128.578 25.7875ZM68.5784 112.219C68.5784 114.453 67.8406 116.668 66.5002 118.453L62.344 123.995V126.766H33.2502V123.995L29.094 118.451C27.7536 116.668 27.0159 114.453 27.0159 112.219V102.693C27.0159 100.446 26.4839 98.1956 25.4801 96.1881L22.9968 91.2172C22.9053 91.0427 22.8596 90.8432 22.8596 90.6437C22.8596 89.935 23.4353 89.3594 24.1439 89.3594C30.3118 89.3594 35.3284 94.376 35.3284 100.544V103.819V108.062H39.4846V103.819V100.544V66.5C39.4846 65.3529 40.4156 64.4219 41.5627 64.4219C42.7099 64.4219 43.6409 65.3529 43.6409 66.5V87.2812V95.5938H47.7971V87.2812C47.7971 86.1341 48.7281 85.2031 49.8752 85.2031C51.0224 85.2031 51.9534 86.1341 51.9534 87.2812V89.3594V95.5938H56.1096V89.3594C56.1096 88.2122 57.0406 87.2812 58.1877 87.2812C59.3349 87.2812 60.2659 88.2122 60.2659 89.3594V91.4375V95.5938H64.4221V91.4375C64.4221 90.2904 65.3531 89.3594 66.5002 89.3594C67.6474 89.3594 68.5784 90.2904 68.5784 91.4375V112.219ZM68.5784 43.6406H22.8596V41.5625C22.8596 40.4154 23.7906 39.4844 24.9377 39.4844H66.5002C67.6474 39.4844 68.5784 40.4154 68.5784 41.5625V43.6406ZM22.8596 47.7969H68.5784V51.9531H22.8596V47.7969ZM22.8596 56.1094H68.5784V66.5C68.5784 67.6471 67.6474 68.5781 66.5002 68.5781H47.7971V66.5C47.7971 63.0628 45 60.2656 41.5627 60.2656C38.1255 60.2656 35.3284 63.0628 35.3284 66.5V68.5781H24.9377C23.7906 68.5781 22.8596 67.6471 22.8596 66.5V56.1094ZM66.5002 85.2031C65.3843 85.2031 64.3515 85.5211 63.4433 86.0365C62.3378 84.2929 60.4009 83.125 58.1877 83.125C57.0718 83.125 56.039 83.443 55.1308 83.9583C54.0253 82.2148 52.0884 81.0469 49.8752 81.0469C49.1437 81.0469 48.4496 81.1965 47.7971 81.4292V72.7344H66.5002C69.9375 72.7344 72.7346 69.9372 72.7346 66.5V41.5625C72.7346 38.1253 69.9375 35.3281 66.5002 35.3281H24.9377C21.5005 35.3281 18.7034 38.1253 18.7034 41.5625V66.5C18.7034 69.9372 21.5005 72.7344 24.9377 72.7344H35.3284V90.0784C32.5271 87.0859 28.5558 85.2031 24.1439 85.2031C21.1452 85.2031 18.7034 87.6449 18.7034 90.6437C18.7034 91.4832 18.9029 92.3269 19.2769 93.0771L21.5733 97.6719H14.5471V14.5469H27.471L28.3708 18.14C29.0628 20.9163 31.5524 22.8594 34.4182 22.8594H57.0219C59.8876 22.8594 62.3752 20.9163 63.0693 18.1379L63.967 14.5469H76.8909V97.6719H72.7346V91.4375C72.7346 88.0003 69.9375 85.2031 66.5002 85.2031ZM85.2034 108.062C85.2034 111.5 82.4062 114.297 78.969 114.297H72.5642C72.666 113.609 72.7346 112.915 72.7346 112.219V101.828H76.8909C79.183 101.828 81.0471 99.9641 81.0471 97.6719V14.5469C81.0471 12.2547 79.183 10.3906 76.8909 10.3906H60.721L59.0377 17.1279C58.8049 18.0547 57.9758 18.7031 57.0198 18.7031H34.4182C33.4622 18.7031 32.6351 18.0548 32.4003 17.13L30.717 10.3906H14.5471C12.2549 10.3906 10.3909 12.2547 10.3909 14.5469V97.6719C10.3909 99.9641 12.2549 101.828 14.5471 101.828H22.8097C22.8326 102.115 22.8596 102.404 22.8596 102.693V112.219C22.8596 112.915 22.9282 113.609 23.03 114.297H12.469C9.03178 114.297 6.23462 111.5 6.23462 108.062V12.4688C6.23462 9.03153 9.03178 6.23438 12.469 6.23438H78.969C82.4062 6.23438 85.2034 9.03153 85.2034 12.4688V108.062ZM97.6721 74.8125V70.3549C100.072 69.5943 101.828 67.3728 101.828 64.7253C101.828 62.4643 100.573 60.434 98.5491 59.4198L94.4988 57.3937C93.892 57.0923 93.5159 56.4834 93.5159 55.806C93.5159 54.8293 94.3139 54.0312 95.2906 54.0312H95.8953C96.8741 54.0312 97.6721 54.8293 97.6721 55.806V58.1875H101.828V55.806C101.828 53.1564 100.072 50.9348 97.6721 50.1763V45.7188H93.5159V50.1763C91.1156 50.9369 89.3596 53.1584 89.3596 55.806C89.3596 58.067 90.6148 60.0973 92.6389 61.1114L96.6892 63.1376C97.296 63.4389 97.6721 64.0478 97.6721 64.7253C97.6721 65.702 96.8741 66.5 95.8974 66.5H95.2927C94.3139 66.5 93.5159 65.702 93.5159 64.7253V62.3438H89.3596V55.806V41.5625H93.5159C103.83 41.5625 112.219 49.9519 112.219 60.2656C112.219 70.5794 103.83 78.9688 93.5159 78.9688H89.3596V64.7253C89.3596 67.3749 91.1156 69.5964 93.5159 70.3549V74.8125H97.6721ZM89.3596 37.4062V29.0938H114.297V37.4062H89.3596ZM118.453 16.625V12.7493L125.916 18.9691C126.456 19.418 126.766 20.0788 126.766 20.7812C126.766 21.4837 126.456 22.1445 125.916 22.5934L118.453 28.8132V24.9375H89.3596V16.625H118.453ZM118.453 91.718L125.916 97.9379C126.456 98.3867 126.766 99.0476 126.766 99.75C126.766 100.452 126.456 101.113 125.916 101.562L118.453 107.782V103.906H89.3596V95.5938H118.453V91.718ZM114.297 91.4375H89.3596V83.125H114.297V91.4375ZM126.766 78.9688H106.618C112.508 74.8291 116.375 67.9962 116.375 60.2656C116.375 52.535 112.508 45.7021 106.618 41.5625H126.766V78.9688Z" fill="url(#paint0_linear)"/>
<path d="M60.2659 60.2656H64.4221V64.4219H60.2659V60.2656Z" fill="url(#paint1_linear)"/>
<path d="M51.9534 60.2656H56.1096V64.4219H51.9534V60.2656Z" fill="url(#paint2_linear)"/>
<path d="M37.4065 14.5469C38.5542 14.5469 39.4846 13.6165 39.4846 12.4688C39.4846 11.321 38.5542 10.3906 37.4065 10.3906C36.2588 10.3906 35.3284 11.321 35.3284 12.4688C35.3284 13.6165 36.2588 14.5469 37.4065 14.5469Z" fill="url(#paint3_linear)"/>
<path d="M43.6409 10.3906H56.1096V14.5469H43.6409V10.3906Z" fill="url(#paint4_linear)"/>
<defs>
<linearGradient id="paint0_linear" x1="117.956" y1="9.56241" x2="-29.6199" y2="189.578" gradientUnits="userSpaceOnUse">
<stop stop-color="#FF3D22"/>
<stop offset="1" stop-color="#FF8516"/>
</linearGradient>
<linearGradient id="paint1_linear" x1="64.0039" y1="60.5071" x2="59.2433" y2="66.314" gradientUnits="userSpaceOnUse">
<stop stop-color="#FF3D22"/>
<stop offset="1" stop-color="#FF8516"/>
</linearGradient>
<linearGradient id="paint2_linear" x1="55.6914" y1="60.5071" x2="50.9308" y2="66.314" gradientUnits="userSpaceOnUse">
<stop stop-color="#FF3D22"/>
<stop offset="1" stop-color="#FF8516"/>
</linearGradient>
<linearGradient id="paint3_linear" x1="39.0664" y1="10.6321" x2="34.3058" y2="16.439" gradientUnits="userSpaceOnUse">
<stop stop-color="#FF3D22"/>
<stop offset="1" stop-color="#FF8516"/>
</linearGradient>
<linearGradient id="paint4_linear" x1="54.8549" y1="10.6321" x2="52.3859" y2="19.667" gradientUnits="userSpaceOnUse">
<stop stop-color="#FF3D22"/>
<stop offset="1" stop-color="#FF8516"/>
</linearGradient>
</defs>
</svg>
