<svg width="34" height="34" viewBox="0 0 34 34" fill="none" xmlns="http://www.w3.org/2000/svg">
<path d="M10.5384 0.538574H16.7748C16.7748 11.898 15.9474 16.8678 0.538391 16.4621V10.5386C0.538391 5.01573 5.01554 0.538574 10.5384 0.538574Z" fill="white"/>
<path d="M33.192 10.542L33.1905 16.5986C21.7361 16.5958 16.725 15.7764 17.1378 0.538057L23.1945 0.539541C28.7173 0.540895 33.1934 5.01915 33.192 10.542Z" fill="white"/>
<path d="M33.192 23.1631L33.1906 17.2946C21.7362 17.2974 16.7251 18.1072 17.1378 33.167L23.1945 33.1655C28.7173 33.1642 33.1934 28.6859 33.192 23.1631Z" fill="white"/>
<path d="M0.632258 23.1753L0.633695 17.3107C12.026 17.3135 17.0099 18.1231 16.5994 33.1792L10.6298 33.1777C5.10696 33.1764 0.630904 28.6981 0.632258 23.1753Z" fill="white"/>
</svg>
