<svg width="28" height="28" viewBox="0 0 28 28" fill="none" xmlns="http://www.w3.org/2000/svg">
<g clip-path="url(#clip0)">
<path d="M27.3757 8.16068C27.3118 6.71257 27.0776 5.71701 26.7422 4.85435C26.3961 3.93865 25.8637 3.11882 25.1662 2.4373C24.4847 1.74517 23.6594 1.20736 22.7543 0.866699C21.8867 0.531241 20.8963 0.297065 19.4482 0.233218C17.9893 0.163963 17.5261 0.147949 13.8259 0.147949C10.1257 0.147949 9.66253 0.163963 8.20901 0.22781C6.76091 0.291658 5.76535 0.526042 4.90289 0.861292C3.98699 1.20736 3.16716 1.73976 2.48564 2.4373C1.79351 3.11882 1.2559 3.94405 0.915039 4.84915C0.579581 5.71701 0.345405 6.70716 0.281557 8.15527C0.212303 9.61419 0.196289 10.0773 0.196289 13.7776C0.196289 17.4778 0.212303 17.941 0.27615 19.3945C0.339997 20.8426 0.574381 21.8381 0.909839 22.7008C1.2559 23.6165 1.79351 24.4363 2.48564 25.1178C3.16716 25.81 3.99239 26.3478 4.89748 26.6884C5.76535 27.0239 6.7555 27.2581 8.20382 27.3219C9.65712 27.386 10.1205 27.4018 13.8207 27.4018C17.5209 27.4018 17.9841 27.386 19.4376 27.3219C20.8857 27.2581 21.8813 27.0239 22.7437 26.6884C24.5753 25.9803 26.0234 24.5322 26.7316 22.7008C27.0668 21.8329 27.3012 20.8426 27.3651 19.3945C27.4289 17.941 27.4449 17.4778 27.4449 13.7776C27.4449 10.0773 27.4395 9.61419 27.3757 8.16068ZM24.9214 19.288C24.8627 20.619 24.6392 21.3378 24.4528 21.8169C23.9949 23.0042 23.0526 23.9466 21.8653 24.4045C21.3861 24.5908 20.6621 24.8144 19.3363 24.8729C17.8988 24.9369 17.4677 24.9527 13.8313 24.9527C10.1949 24.9527 9.7584 24.9369 8.3261 24.8729C6.99509 24.8144 6.27634 24.5908 5.79717 24.4045C5.20632 24.1861 4.66851 23.8401 4.23198 23.3875C3.77943 22.9456 3.43337 22.4132 3.215 21.8223C3.02865 21.3432 2.80508 20.619 2.74664 19.2934C2.68259 17.8559 2.66678 17.4246 2.66678 13.7882C2.66678 10.1518 2.68259 9.71527 2.74664 8.28317C2.80508 6.95216 3.02865 6.23341 3.215 5.75424C3.43337 5.16318 3.77943 4.62558 4.23738 4.18884C4.67911 3.73629 5.21152 3.39023 5.80258 3.17206C6.28174 2.98572 7.0059 2.76215 8.33151 2.7035C9.76901 2.63966 10.2003 2.62364 13.8365 2.62364C17.4783 2.62364 17.9094 2.63966 19.3417 2.7035C20.6727 2.76215 21.3915 2.98572 21.8707 3.17206C22.4615 3.39023 22.9993 3.73629 23.4359 4.18884C23.8884 4.63078 24.2345 5.16318 24.4528 5.75424C24.6392 6.23341 24.8627 6.95735 24.9214 8.28317C24.9852 9.72067 25.0013 10.1518 25.0013 13.7882C25.0013 17.4246 24.9852 17.8505 24.9214 19.288Z" fill="white"/>
<path d="M13.8254 6.77637C9.96028 6.77637 6.82428 9.91216 6.82428 13.7775C6.82428 17.6429 9.96028 20.7787 13.8254 20.7787C17.6908 20.7787 20.8266 17.6429 20.8266 13.7775C20.8266 9.91216 17.6908 6.77637 13.8254 6.77637ZM13.8254 18.319C11.3179 18.319 9.28396 16.2852 9.28396 13.7775C9.28396 11.2698 11.3179 9.23605 13.8254 9.23605C16.3332 9.23605 18.3669 11.2698 18.3669 13.7775C18.3669 16.2852 16.3332 18.319 13.8254 18.319Z" fill="white"/>
<path d="M22.7379 6.49968C22.7379 7.40228 22.006 8.13413 21.1032 8.13413C20.2006 8.13413 19.4688 7.40228 19.4688 6.49968C19.4688 5.59688 20.2006 4.86523 21.1032 4.86523C22.006 4.86523 22.7379 5.59688 22.7379 6.49968Z" fill="white"/>
</g>
<defs>
<clipPath id="clip0">
<rect width="27.2539" height="27.2539" fill="white" transform="translate(0.147766 0.147949)"/>
</clipPath>
</defs>
</svg>
