<svg width="32" height="32" viewBox="0 0 32 32" fill="none" xmlns="http://www.w3.org/2000/svg">
<g clip-path="url(#clip0)">
<path d="M25.8608 16.9588C25.3593 16.3254 25.5027 16.0436 25.8608 15.4774C25.8673 15.4709 30.0076 9.74978 30.4341 7.80954L30.4367 7.80825C30.6487 7.10118 30.4367 6.58154 29.4117 6.58154H26.0198C25.1563 6.58154 24.7582 7.0275 24.5449 7.52645C24.5449 7.52645 22.818 11.6603 20.3749 14.3399C19.5864 15.1142 19.2219 15.3624 18.7914 15.3624C18.5794 15.3624 18.2498 15.1142 18.2498 14.4071V7.80825C18.2498 6.96028 18.0081 6.58154 17.2933 6.58154H11.9599C11.4183 6.58154 11.0964 6.97709 11.0964 7.34549C11.0964 8.1495 12.3179 8.33435 12.4446 10.5964V15.5046C12.4446 16.58 12.2494 16.7778 11.8164 16.7778C10.6634 16.7778 7.86483 12.6272 6.20638 7.87676C5.87159 6.95511 5.54456 6.58284 4.67462 6.58284H1.28147C0.31329 6.58284 0.118103 7.02879 0.118103 7.52775C0.118103 8.40932 1.27113 12.7926 5.47993 18.5836C8.28493 22.5365 12.2352 24.6783 15.8287 24.6783C17.9887 24.6783 18.2524 24.2027 18.2524 23.3844C18.2524 19.6074 18.0572 19.2506 19.1391 19.2506C19.6407 19.2506 20.5041 19.4988 22.5206 21.4054C24.8254 23.6662 25.2041 24.6783 26.4942 24.6783H29.886C30.8529 24.6783 31.3428 24.2027 31.061 23.2642C30.416 21.2904 26.0573 17.2302 25.8608 16.9588Z" fill="white"/>
</g>
<defs>
<clipPath id="clip0">
<rect width="31.0231" height="31.0231" fill="white" transform="translate(0.118103 0.118164)"/>
</clipPath>
</defs>
</svg>
