<svg width="32" height="32" viewBox="0 0 32 32" fill="none" xmlns="http://www.w3.org/2000/svg">
<path d="M29.5572 8.36023C29.2221 7.11425 28.2397 6.13206 26.9939 5.79655C24.718 5.17383 15.6141 5.17383 15.6141 5.17383C15.6141 5.17383 6.51057 5.17383 4.23465 5.77294C3.01281 6.10809 2.00647 7.11443 1.67132 8.36023C1.07239 10.636 1.07239 15.3556 1.07239 15.3556C1.07239 15.3556 1.07239 20.099 1.67132 22.3509C2.00683 23.5967 2.98884 24.5789 4.23483 24.9144C6.53454 25.5373 15.6145 25.5373 15.6145 25.5373C15.6145 25.5373 24.718 25.5373 26.9939 24.9382C28.2399 24.6029 29.2221 23.6207 29.5576 22.3749C30.1563 20.099 30.1563 15.3795 30.1563 15.3795C30.1563 15.3795 30.1803 10.636 29.5572 8.36023ZM12.7156 19.7157V10.9954L20.286 15.3556L12.7156 19.7157Z" fill="white"/>
</svg>
