<svg width="380" height="856" fill="none" xmlns="http://www.w3.org/2000/svg"><path d="M-55.417 518.432c87.956-53.75 218.226 449.651 186.374 287.408C99.115 643.646 89.41 409.497 33.76 434.142c-42.757 18.934 31.762-293.99 168.58-384.805C309.234-21.614-7.382 119.206-35.333 69.077-76.793-5.28-92.019 11.094-106.79 31.918c-14.772 20.824 7.48 241.627-31.415 253.446" stroke="url(#paint0_linear)" stroke-dasharray="5 5"/><g clip-path="url(#clip0)"><path d="M95 208.208c-8.765 5.445-20.284 2.754-25.729-6.01a18.633 18.633 0 01-2.13-14.864 18.604 18.604 0 018.14-10.865c8.765-5.445 20.283-2.754 25.728 6.011a18.576 18.576 0 012.81 9.387 18.606 18.606 0 01-.326 3.959 18.63 18.63 0 01-8.494 12.382z" fill="#F0CD00"/><path d="M95 208.207c-8.567 5.323-19.766 2.872-25.35-5.426-4.966-8.684-2.202-19.808 6.365-25.13 8.567-5.323 19.765-2.872 25.35 5.426 4.965 8.684 2.201 19.808-6.366 25.13z" fill="#FFDE50"/><path d="M103.493 195.826l-36.353-8.492a18.788 18.788 0 011.462-3.694l35.217 8.227a18.737 18.737 0 01-.326 3.959zm-3.372 7.683l-33.361-7.793a18.662 18.662 0 01-.188-5.452l36.133 8.44a18.61 18.61 0 01-2.584 4.805z" fill="#FFEA94"/><path d="M92.801 204.67c-6.81 4.231-15.761 2.14-19.992-4.67a14.45 14.45 0 01-2.188-7.605 14.552 14.552 0 011.153-5.724 14.443 14.443 0 015.555-6.568l.15-.096c6.81-4.231 15.761-2.14 19.993 4.671.031.05.063.101.093.153a14.456 14.456 0 011.712 10.809 14.525 14.525 0 01-1.145 3.181 14.45 14.45 0 01-5.33 5.849z" fill="#FAA300"/><path d="M99.277 195.64l-28.273-6.604a14.545 14.545 0 012.481-5.359 14.443 14.443 0 013.844-3.574l.15-.096c6.81-4.231 15.761-2.14 19.993 4.67.031.051.063.102.093.154a14.456 14.456 0 011.712 10.809z" fill="#FFBD00"/><path d="M92.8 204.669c-6.81 4.231-15.76 2.14-19.991-4.67-.146-.234-.283-.47-.414-.708 4.39 6.262 12.964 8.071 19.54 3.985 6.577-4.086 8.753-12.573 5.084-19.283.156.222.307.45.452.684 4.231 6.81 2.14 15.761-4.67 19.992z" fill="#F68E00"/><path d="M75.974 183.957c1.28-.062 3.952.272 4.39 2.111.549 2.299-1.115 2.453-.25 4.554.866 2.102 4.95.885 6.69 1.563 1.74.678.308 3.328-1.4 4.828-1.706 1.501-1.115 2.453-.086 2.693 1.03.241 3.886-1.534 4.872.053.986 1.587-.721 3.087-1.039 3.285" stroke="#F68E00" stroke-width="3"/><path d="M77.243 183.168c1.281-.062 3.952.272 4.39 2.111.55 2.299-1.115 2.453-.249 4.554.866 2.102 4.948.885 6.69 1.563 1.74.678.307 3.328-1.4 4.828-1.707 1.501-1.115 2.453-.086 2.693 1.029.241 3.885-1.534 4.871.053.986 1.587-.721 3.087-1.038 3.284" stroke="#FFEA94" stroke-width="3"/></g><g clip-path="url(#clip1)"><path d="M117.998 576.322c4.615 10.671-.295 23.062-10.966 27.676a20.991 20.991 0 01-16.919-.091 20.965 20.965 0 01-10.758-10.875c-4.614-10.671.296-23.062 10.967-27.677a20.955 20.955 0 0110.929-1.574c1.488.185 2.949.528 4.357 1.02a20.986 20.986 0 0112.39 11.521z" fill="#F0CD00"/><path d="M117.999 576.322c4.51 10.43-.079 22.504-10.253 27.352-10.502 4.093-22.442-.834-26.952-11.264-4.51-10.431.078-22.504 10.253-27.353 10.502-4.092 22.441.834 26.952 11.265z" fill="#FFDE50"/><path d="M105.608 564.801l-15.495 39.106a21.18 21.18 0 01-3.874-2.242l15.011-37.884c1.489.185 2.95.528 4.358 1.02zm8.003 5.033l-14.22 35.887a21.01 21.01 0 01-6.107-.695l15.401-38.87a20.988 20.988 0 014.926 3.678z" fill="#FFEA94"/><path d="M113.691 578.184c3.585 8.292-.23 17.921-8.522 21.507a16.279 16.279 0 01-8.838 1.176 16.372 16.372 0 01-3.68-.984 16.272 16.272 0 01-2.509-1.25 16.284 16.284 0 01-6.48-7.464c-3.585-8.292.23-17.921 8.522-21.506.062-.027.124-.054.186-.079a16.317 16.317 0 015.777-1.261 16.405 16.405 0 019.91 2.95 16.287 16.287 0 015.634 6.911z" fill="#FAA300"/><path d="M104.702 569.47L92.65 599.883a16.272 16.272 0 01-2.508-1.25 16.284 16.284 0 01-6.48-7.464c-3.585-8.292.23-17.921 8.522-21.506.062-.027.124-.054.186-.079a16.317 16.317 0 015.778-1.261 16.405 16.405 0 016.554 1.147z" fill="#FFBD00"/><path d="M113.69 578.184c3.586 8.292-.229 17.921-8.521 21.507-.285.123-.571.237-.858.343 7.707-3.854 11.146-13.109 7.683-21.116-3.462-8.007-12.56-11.841-20.648-8.865.274-.137.553-.267.838-.39 8.292-3.586 17.921.23 21.506 8.521zm-12.534 20.485l-.557-1.288 1.288-.557.557 1.288c-.292.738-.981.679-1.288.557z" fill="#F68E00"/><path fill-rule="evenodd" clip-rule="evenodd" d="M99.834 580.893c2.974-1.386 8.864-.138 10.564 3.791 1.699 3.93-.116 8.51-4.046 10.209l-.601.26-1.288.557-2.576 1.114-1.288.557-2.109.912-3.477 1.504-1.495-3.457 1.9-.822-4.669-10.797-2.148-4.969-.697-1.611-1.9.821-.683-1.577-.715-1.655 5.586-2.415.084-.036 1.204-.521 1.288-.557 1.288-.557 1.89-.817c2.356.026 4.91.451 6.302 3.671 1.393 3.22-.907 5.522-2.414 6.395zm-3.259-6.502l-5.517 2.386 2.061 4.766 5.517-2.386c.797-.384 1.316-1.527.537-3.329-.557-1.288-1.608-1.865-2.598-1.437zm8.413 17.348l-6.284 2.717-3.436-7.944 6.285-2.718a4.332 4.332 0 015.69 2.255 4.332 4.332 0 01-2.255 5.69z" fill="#F68E00"/><path d="M105.02 596.999l-.557-1.289 1.288-.557.557 1.289c-.292.737-.98.678-1.288.557zm-14.744-23.72l-.084.036-.455-1.052c.122-.307.55-.849 1.288-.557l.455 1.052-1.204.521zm3.78-1.635l-1.288.557-.454-1.052c.121-.307.55-.849 1.288-.557l.454 1.052z" fill="#F68E00"/><path d="M102.165 598.66l-.557-1.288 1.288-.557.557 1.288c-.292.738-.98.678-1.288.557z" fill="#FFEA94"/><path fill-rule="evenodd" clip-rule="evenodd" d="M100.844 580.883c3.654-1.58 8.191-1.695 10.563 3.791 1.7 3.93-.115 8.51-4.045 10.21l-.601.26-1.288.557-2.577 1.114-1.288.557-2.108.911-3.478 1.504-1.495-3.457 1.9-.821-4.668-10.798-2.149-4.968-.697-1.612-1.9.822-.683-1.578-.715-1.654 5.586-2.416.084-.036 1.205-.521 1.288-.557 1.288-.557 1.498-.648c3.217-1.391 5.565.893 6.694 3.502 1.128 2.61.007 5.348-2.414 6.395zm-3.26-6.502l-5.516 2.386 2.06 4.766 5.518-2.386c.796-.383 1.316-1.527.536-3.329-.557-1.288-1.608-1.865-2.597-1.437zm8.414 17.348l-6.285 2.718-3.436-7.945 6.285-2.718a4.332 4.332 0 015.69 2.255 4.332 4.332 0 01-2.254 5.69z" fill="#FFEA94"/><path d="M106.03 596.989l-.557-1.288 1.288-.557.557 1.288c-.293.738-.981.679-1.288.557zm-14.745-23.72l-.084.036-.454-1.052c.121-.307.55-.849 1.288-.557l.455 1.052-1.205.521zm3.781-1.635l-1.288.557-.455-1.052c.122-.307.55-.849 1.288-.557l.455 1.052z" fill="#FFEA94"/></g><defs><clipPath id="clip0"><path fill="#fff" transform="rotate(58.148 -104.253 165.274)" d="M0 0h37.365v37.365H0z"/></clipPath><clipPath id="clip1"><path fill="#fff" transform="rotate(-23.385 1421.602 115.317)" d="M0 0h42.101v42.101H0z"/></clipPath><linearGradient id="paint0_linear" x1="176.184" y1="-11.819" x2="-472.37" y2="714.104" gradientUnits="userSpaceOnUse"><stop stop-color="#FF3D22"/><stop offset="1" stop-color="#FF8516"/></linearGradient></defs></svg>