<svg width="375" height="615" fill="none" xmlns="http://www.w3.org/2000/svg"><path d="M-6 385c72-44 178.639 368.082 152.565 235.271C120.5 487.5 112.555 295.826 67 316 32 331.5 93 75.341 205 1 292.502-57.08 33.322 58.195 10.44 17.16c-33.938-60.868-46.402-47.464-58.494-30.418-12.092 17.047 6.123 197.795-25.717 207.47" stroke="url(#paint0_linear)" stroke-dasharray="5 5"/><g clip-path="url(#clip0)"><path d="M117.131 131.051c-7.174 4.458-16.604 2.255-21.06-4.919a15.252 15.252 0 01-1.745-12.167c.29-1.045.69-2.059 1.197-3.024a15.22 15.22 0 015.467-5.87c7.174-4.458 16.604-2.255 21.061 4.919a15.214 15.214 0 012.3 7.685 15.22 15.22 0 01-.267 3.241 15.245 15.245 0 01-6.953 10.135z" fill="#F0CD00"/><path d="M117.131 131.051c-7.013 4.357-16.179 2.351-20.751-4.441-4.065-7.109-1.802-16.216 5.211-20.572 7.013-4.357 16.179-2.351 20.751 4.442 4.065 7.108 1.802 16.215-5.211 20.571z" fill="#FFDE50"/><path d="M124.084 120.916l-29.758-6.951c.29-1.044.69-2.059 1.197-3.024l28.828 6.735a15.347 15.347 0 01-.267 3.24zm-2.76 6.289l-27.31-6.379a15.275 15.275 0 01-.153-4.463l29.578 6.909a15.22 15.22 0 01-2.115 3.933z" fill="#FFEA94"/><path d="M115.332 128.155c-5.575 3.464-12.902 1.752-16.366-3.823a11.824 11.824 0 01-1.79-6.225 11.93 11.93 0 012.344-7.136 11.821 11.821 0 013.269-3.004c5.575-3.464 12.902-1.753 16.366 3.823a11.817 11.817 0 011.771 6.959 11.9 11.9 0 01-1.231 4.619 11.816 11.816 0 01-4.363 4.787z" fill="#FAA300"/><path d="M120.633 120.764l-23.144-5.407a11.918 11.918 0 012.03-4.386 11.821 11.821 0 013.27-3.004c5.575-3.464 12.902-1.753 16.366 3.823a11.817 11.817 0 011.771 6.959c-.041.68-.139 1.354-.293 2.015z" fill="#FFBD00"/><path d="M115.331 128.155c-5.574 3.463-12.902 1.752-16.365-3.823a12.383 12.383 0 01-.338-.58c3.594 5.126 10.611 6.607 15.995 3.262 5.383-3.344 7.165-10.292 4.161-15.785.128.182.251.369.37.56 3.464 5.575 1.752 12.902-3.823 16.366z" fill="#F68E00"/><path d="M101.557 111.2c1.049-.051 3.235.223 3.594 1.728.449 1.882-.913 2.008-.204 3.728.708 1.72 4.051.724 5.476 1.279 1.425.555.252 2.724-1.146 3.953-1.397 1.228-.913 2.007-.07 2.204.842.197 3.18-1.256 3.987.043.807 1.299-.59 2.528-.85 2.689" stroke="#F68E00" stroke-width="3"/><path d="M102.596 110.554c1.049-.051 3.235.223 3.594 1.728.449 1.882-.913 2.008-.204 3.728.708 1.72 4.051.724 5.476 1.279 1.425.555.252 2.724-1.146 3.953-1.397 1.228-.913 2.007-.07 2.204.842.197 3.18-1.256 3.987.043.807 1.299-.59 2.528-.85 2.689" stroke="#FFEA94" stroke-width="3"/></g><g clip-path="url(#clip1)"><path d="M129.373 412.309c3.178 7.35-.203 15.886-7.554 19.064a14.457 14.457 0 01-11.653-.063 14.437 14.437 0 01-7.411-7.491c-3.178-7.35.204-15.885 7.554-19.064a14.432 14.432 0 0110.53-.381 14.457 14.457 0 018.534 7.935z" fill="#F0CD00"/><path d="M129.373 412.309c3.107 7.185-.054 15.501-7.062 18.841-7.234 2.819-15.458-.575-18.565-7.759-3.107-7.185.054-15.501 7.063-18.841 7.233-2.819 15.458.574 18.564 7.759z" fill="#FFDE50"/><path d="M120.838 404.374l-10.673 26.936a14.519 14.519 0 01-2.668-1.544l10.34-26.095a14.44 14.44 0 013.001.703zm5.513 3.466l-9.795 24.72a14.5 14.5 0 01-4.206-.479l10.608-26.774a14.463 14.463 0 013.393 2.533z" fill="#FFEA94"/><path d="M126.406 413.592c2.47 5.712-.159 12.344-5.87 14.814a11.21 11.21 0 01-6.088.81 11.298 11.298 0 01-6.365-3.194 11.229 11.229 0 01-2.305-3.359l-.056-.127c-2.47-5.711.158-12.344 5.87-14.814.042-.018.085-.037.128-.054a11.235 11.235 0 018.494-.079c.814.322 1.59.739 2.311 1.243a11.208 11.208 0 013.881 4.76z" fill="#FAA300"/><path d="M120.214 407.589l-8.301 20.95a11.28 11.28 0 01-3.83-2.517 11.229 11.229 0 01-2.305-3.359l-.056-.127c-2.47-5.711.158-12.344 5.87-14.814.042-.018.085-.037.128-.054a11.235 11.235 0 018.494-.079z" fill="#FFBD00"/><path d="M126.406 413.592c2.469 5.712-.159 12.344-5.87 14.814-.196.085-.393.164-.591.236 5.309-2.655 7.677-9.029 5.292-14.545-2.385-5.515-8.651-8.156-14.222-6.106.189-.094.381-.184.577-.269 5.711-2.469 12.344.159 14.814 5.87zm-8.634 14.111l-.384-.888.887-.383.384.887c-.202.508-.676.467-.887.384z" fill="#F68E00"/><path fill-rule="evenodd" clip-rule="evenodd" d="M116.861 415.458c2.048-.955 6.106-.095 7.276 2.612a5.354 5.354 0 01-2.786 7.032l-.414.179-.887.383-1.775.768-.887.383-1.453.628-2.395 1.036-1.03-2.381 1.309-.566-3.216-7.437-1.48-3.423-.48-1.11-1.309.566-.47-1.086-.493-1.14 3.848-1.664.058-.025.83-.359.887-.383.887-.384 1.302-.563c1.622.018 3.382.311 4.341 2.529.959 2.218-.625 3.804-1.663 4.405zm-2.245-4.479l-3.8 1.643 1.42 3.284 3.8-1.644c.549-.264.906-1.052.37-2.293-.384-.887-1.108-1.285-1.79-.99zm5.795 11.95l-4.329 1.872-2.366-5.473 4.329-1.872a2.984 2.984 0 013.919 1.553 2.985 2.985 0 01-1.553 3.92z" fill="#F68E00"/><path d="M120.433 426.552l-.383-.888.887-.383.384.887c-.202.508-.676.468-.888.384zm-10.156-16.339l-.058.025-.313-.724c.084-.212.379-.586.887-.384l.314.724-.83.359zm2.604-1.126l-.887.384-.313-.725c.084-.212.379-.585.887-.383l.313.724z" fill="#F68E00"/><path d="M118.467 427.696l-.384-.887.887-.384.384.887c-.201.508-.675.468-.887.384z" fill="#FFEA94"/><path fill-rule="evenodd" clip-rule="evenodd" d="M117.557 415.451c2.517-1.088 5.642-1.168 7.276 2.612a5.356 5.356 0 01-2.787 7.032l-.414.179-.887.384-1.775.767-.887.384-1.452.627-2.396 1.036-1.029-2.381 1.309-.566-3.216-7.437-1.48-3.423-.48-1.11-1.31.566-.469-1.086-.493-1.14 3.848-1.664.057-.025.83-.359.887-.383.888-.384 1.032-.446c2.215-.958 3.833.615 4.61 2.412.778 1.798.006 3.684-1.662 4.405zm-2.245-4.479l-3.8 1.644 1.419 3.283 3.8-1.644c.549-.264.907-1.051.37-2.293-.384-.887-1.108-1.284-1.789-.99zm5.795 11.95l-4.329 1.872-2.367-5.473 4.329-1.872a2.986 2.986 0 013.92 1.553 2.986 2.986 0 01-1.553 3.92z" fill="#FFEA94"/><path d="M121.129 426.545l-.384-.887.887-.384.384.887c-.202.508-.676.468-.887.384zm-10.157-16.339l-.057.025-.313-.724c.083-.212.378-.585.887-.384l.313.724-.83.359zm2.605-1.126l-.888.384-.313-.725c.084-.211.379-.585.887-.383l.314.724z" fill="#FFEA94"/></g><defs><clipPath id="clip0"><path fill="#fff" transform="rotate(58.148 -30.24 151)" d="M0 0h30.587v30.587H0z"/></clipPath><clipPath id="clip1"><path fill="#fff" transform="rotate(-23.385 1040.306 -29.1)" d="M0 0h29v29H0z"/></clipPath><linearGradient id="paint0_linear" x1="183.588" y1="-49.061" x2="-347.316" y2="545.177" gradientUnits="userSpaceOnUse"><stop stop-color="#FF3D22"/><stop offset="1" stop-color="#FF8516"/></linearGradient></defs></svg>