<svg width="1039" height="775" fill="none" xmlns="http://www.w3.org/2000/svg"><path d="M464.708 620.859c127.401 32.222 476.227-78.098 493.02-176.551 20.99-123.067-.811-236.997-41.409-312.365-25.301-46.97-124.213-111.868-287.745-48.136-163.532 63.732-471.344 211.331-527.6 218.232-56.255 6.902-83.775 79.356-54.868 111.431 28.908 32.074 341.431 63.72 356.813 134.535" stroke="url(#paint0_linear)" stroke-dasharray="5 5"/><path d="M929 118c0 13.807-11.193 25-25 25-7.279 0-13.831-3.11-18.399-8.074a25.131 25.131 0 01-3.166-4.271A24.886 24.886 0 01879 118c0-13.807 11.193-25 25-25 4.618 0 8.944 1.252 12.655 3.436a24.978 24.978 0 014.269 3.166C925.889 104.168 929 110.721 929 118z" fill="#F0CD00"/><path d="M929 118c0 13.496-10.693 24.494-24.069 24.983-13.377-.489-24.07-11.487-24.07-24.983s10.693-24.494 24.07-24.983C918.307 93.507 929 104.504 929 118z" fill="#FFDE50"/><path d="M920.924 99.602l-35.323 35.324a25.092 25.092 0 01-3.166-4.271l34.22-34.22a24.978 24.978 0 014.269 3.167zm6.352 9.258l-32.417 32.417a24.96 24.96 0 01-6.329-3.637l35.11-35.11a24.916 24.916 0 013.636 6.33z" fill="#FFEA94"/><path d="M923.427 118c0 10.729-8.698 19.427-19.427 19.427a19.34 19.34 0 01-10.189-2.884 19.51 19.51 0 01-7.886-9.411 19.326 19.326 0 01-1.349-6.893c-.002-.08-.002-.159-.002-.239 0-10.729 8.696-19.427 19.426-19.427a19.358 19.358 0 0113.736 5.69 19.475 19.475 0 012.807 3.548A19.328 19.328 0 01923.427 118z" fill="#FAA300"/><path d="M917.736 104.263l-27.473 27.473a19.37 19.37 0 01-4.338-6.604 19.326 19.326 0 01-1.349-6.893c-.002-.08-.002-.159-.002-.239 0-10.729 8.696-19.427 19.426-19.427a19.358 19.358 0 0113.736 5.69z" fill="#FFBD00"/><path d="M923.426 118c0 10.729-8.698 19.427-19.427 19.427-.368 0-.733-.011-1.097-.031 10.219-.568 18.329-9.036 18.329-19.396 0-10.36-8.11-18.828-18.329-19.396.364-.02.729-.03 1.097-.03 10.729 0 19.427 8.697 19.427 19.426z" fill="#F68E00"/><path d="M888 122.5c.833-1.5 3.1-4.3 5.5-3.5 3 1 2 3 5 3.5s4.5-5 6.5-6.5 4 2 4.5 5 2 3 3 2 1-5.5 3.5-5.5 3 3 3 3.5" stroke="#F68E00" stroke-width="3"/><path d="M888 120.5c.833-1.5 3.1-4.3 5.5-3.5 3 1 2 3 5 3.5s4.5-5 6.5-6.5 4 2 4.5 5 2 3 3 2 1-5.5 3.5-5.5 3 3 3 3.5" stroke="#FFEA94" stroke-width="3"/><g clip-path="url(#clip0)"><path d="M661 78.5c0 11.322-9.178 20.5-20.5 20.5a20.444 20.444 0 01-15.087-6.621A20.417 20.417 0 01620 78.5c0-11.322 9.178-20.5 20.5-20.5 3.787 0 7.334 1.027 10.377 2.817a20.481 20.481 0 013.501 2.597A20.439 20.439 0 01661 78.5z" fill="#F0CD00"/><path d="M661 78.5c0 11.067-8.768 20.085-19.737 20.486-10.968-.401-19.737-9.42-19.737-20.486 0-11.067 8.769-20.085 19.737-20.486C652.232 58.415 661 67.434 661 78.5z" fill="#FFDE50"/><path d="M654.378 63.414l-28.965 28.965a20.629 20.629 0 01-2.597-3.502l28.061-28.06a20.525 20.525 0 013.501 2.597zm5.208 7.591l-26.581 26.582a20.489 20.489 0 01-5.191-2.982l28.791-28.79a20.456 20.456 0 012.981 5.19z" fill="#FFEA94"/><path d="M656.43 78.5c0 8.797-7.133 15.93-15.93 15.93-3.064 0-5.926-.865-8.355-2.365a15.97 15.97 0 01-2.909-2.302 15.884 15.884 0 01-3.558-5.415 15.842 15.842 0 01-1.106-5.652c-.002-.065-.002-.13-.002-.196 0-8.797 7.132-15.93 15.93-15.93a15.87 15.87 0 0111.263 4.666c.875.874 1.649 1.85 2.302 2.91a15.848 15.848 0 012.365 8.354z" fill="#FAA300"/><path d="M651.763 67.236l-22.527 22.527a15.891 15.891 0 01-4.664-11.067c-.002-.065-.002-.13-.002-.196 0-8.797 7.132-15.93 15.93-15.93a15.87 15.87 0 0111.263 4.666z" fill="#FFBD00"/><path d="M656.429 78.5c0 8.797-7.132 15.93-15.929 15.93-.302 0-.602-.009-.9-.025 8.379-.466 15.03-7.41 15.03-15.905s-6.651-15.438-15.03-15.905c.298-.016.598-.025.9-.025 8.797 0 15.929 7.133 15.929 15.93zm-19.121 13.466v-1.367h1.366v1.367c-.546.546-1.139.227-1.366 0z" fill="#F68E00"/><path fill-rule="evenodd" clip-rule="evenodd" d="M642.997 75.566c3.194-.09 7.977 3.302 7.977 7.471 0 4.17-3.393 7.562-7.562 7.562H631.38V86.93h2.017V68.494h-2.017v-3.429h12.032c2.096.934 4.215 2.3 4.215 5.717s-2.946 4.586-4.63 4.784zm-.4-7.072h-5.853v5.057h5.853c.861-.035 1.767-.857 1.767-2.769 0-1.367-.717-2.288-1.767-2.288zm.815 18.758h-6.668v-8.43h6.668a4.22 4.22 0 014.215 4.215 4.22 4.22 0 01-4.215 4.215z" fill="#F68E00"/><path d="M641.408 91.966v-1.367h1.366v1.367c-.546.546-1.139.227-1.366 0zm-4.012-26.901h-.088v-1.116c.227-.228.82-.547 1.366 0v1.116h-1.278zm4.012 0h-1.367v-1.116c.228-.228.82-.547 1.367 0v1.116z" fill="#F68E00"/><path d="M638.214 92.347V90.98h1.366v1.367c-.546.547-1.138.228-1.366 0z" fill="#FFEA94"/><path fill-rule="evenodd" clip-rule="evenodd" d="M643.903 75.947c3.877 0 7.977 1.65 7.977 7.471 0 4.17-3.392 7.562-7.562 7.562h-12.031v-3.667h2.016V68.875h-2.016v-3.429h11.616c3.413 0 4.63 2.949 4.63 5.718 0 2.768-2.06 4.783-4.63 4.783zm-.4-7.072h-5.853v5.057h5.853c.861-.035 1.767-.856 1.767-2.769 0-1.366-.716-2.288-1.767-2.288zm.815 18.758h-6.668v-8.43h6.668a4.22 4.22 0 014.215 4.215 4.22 4.22 0 01-4.215 4.215z" fill="#FFEA94"/><path d="M642.314 92.347V90.98h1.366v1.367c-.546.547-1.138.228-1.366 0zm-4.012-26.901h-.088V64.33c.228-.228.82-.547 1.366 0v1.116h-1.278zm4.012 0h-1.367V64.33c.228-.228.82-.547 1.367 0v1.116z" fill="#FFEA94"/></g><defs><linearGradient id="paint0_linear" x1="98.644" y1="285.714" x2="833.651" y2="1091.04" gradientUnits="userSpaceOnUse"><stop stop-color="#239D42"/><stop offset="1" stop-color="#E1E224"/></linearGradient><clipPath id="clip0"><path fill="#fff" transform="translate(620 58)" d="M0 0h41v41H0z"/></clipPath></defs></svg>