<svg width="1920" height="583" fill="none" xmlns="http://www.w3.org/2000/svg"><path d="M579.671 398.556c364.585-69.687 1358.309-.633 1415.419-97.5 71.38-121.083-949.43 197.064-951 97.5-.98-62.049-190.192-221.116-356.5-230.986-166.307-9.869-233.002 133.486-542.047-18.408-241.956-56.606-269.478 8.991-258.955 56.891 10.523 47.9 1054.668-304.684 693.083 192.503z" stroke="url(#paint0_linear)" stroke-dasharray="5 5"/><g clip-path="url(#clip0)"><path d="M1887 342c0 8.284-6.72 15-15 15-4.37 0-8.3-1.866-11.04-4.845A14.957 14.957 0 011857 342c0-8.285 6.72-15 15-15 2.77 0 5.37.751 7.59 2.061.92.542 1.78 1.179 2.56 1.9A14.956 14.956 0 011887 342z" fill="#F0CD00"/><path d="M1887 342c0 8.097-6.42 14.696-14.44 14.989-8.03-.293-14.44-6.892-14.44-14.989 0-8.098 6.41-14.696 14.44-14.99 8.02.294 14.44 6.892 14.44 14.99z" fill="#FFDE50"/><path d="M1882.15 330.961l-21.19 21.194a14.957 14.957 0 01-1.9-2.562l20.53-20.532c.92.542 1.78 1.179 2.56 1.9zm3.82 5.555l-19.45 19.45a14.936 14.936 0 01-3.8-2.182l21.06-21.066c.91 1.143 1.64 2.42 2.19 3.798z" fill="#FFEA94"/><path d="M1883.66 342c0 6.437-5.22 11.656-11.66 11.656-2.24 0-4.34-.633-6.11-1.731a11.446 11.446 0 01-2.13-1.684c-.47-.47-.9-.981-1.29-1.527-.53-.751-.97-1.568-1.32-2.435-.5-1.283-.79-2.678-.8-4.136-.01-.048-.01-.096-.01-.143 0-6.437 5.22-11.656 11.66-11.656l.14.001c1.46.017 2.86.303 4.14.809.87.343 1.68.786 2.43 1.317a11.803 11.803 0 013.22 3.415 11.669 11.669 0 011.73 6.114z" fill="#FAA300"/><path d="M1880.24 333.758l-16.48 16.483c-.47-.47-.9-.981-1.29-1.527-.53-.751-.97-1.568-1.32-2.435-.5-1.283-.79-2.678-.8-4.136-.01-.048-.01-.096-.01-.143 0-6.437 5.22-11.656 11.66-11.656l.14.001c1.46.017 2.86.303 4.14.809.87.343 1.68.786 2.43 1.317.55.385 1.06.816 1.53 1.287z" fill="#FFBD00"/><path d="M1883.66 342c0 6.437-5.22 11.656-11.66 11.656-.22 0-.44-.007-.66-.019 6.13-.341 11-5.421 11-11.637s-4.87-11.297-11-11.638c.22-.012.44-.018.66-.018 6.44 0 11.66 5.219 11.66 11.656z" fill="#F68E00"/><path d="M1862.44 342.751h1.5v-1.665h1.23v1.665h1.5v1.125h-1.5v1.665h-1.23v-1.665h-1.5v-1.125zm6.73 3.384c-.16 0-.34-.012-.52-.036a4.78 4.78 0 01-.52-.081 5.677 5.677 0 01-.46-.117 3.318 3.318 0 01-.32-.117l.26-1.116c.16.066.35.138.59.216.25.072.55.108.91.108.42 0 .72-.078.91-.234a.777.777 0 00.29-.63.731.731 0 00-.11-.405.676.676 0 00-.28-.27c-.12-.072-.26-.12-.43-.144-.16-.03-.33-.045-.52-.045h-.52v-1.08h.59c.13 0 .26-.012.38-.036a.986.986 0 00.33-.117c.1-.06.17-.138.23-.234a.735.735 0 00.09-.378.684.684 0 00-.07-.297.758.758 0 00-.19-.207.768.768 0 00-.26-.117c-.1-.03-.2-.045-.3-.045-.26 0-.5.039-.72.117-.22.078-.42.174-.6.288l-.47-.981c.09-.06.2-.123.33-.189s.28-.126.43-.18c.16-.054.32-.099.5-.135.18-.036.37-.054.56-.054.37 0 .69.045.95.135.27.084.49.207.67.369.17.156.3.342.38.558.09.21.13.441.13.693 0 .246-.07.486-.21.72-.14.228-.32.402-.56.522.33.132.58.33.75.594.18.258.27.57.27.936 0 .288-.05.555-.14.801-.1.24-.25.45-.45.63-.21.174-.47.312-.79.414-.31.096-.68.144-1.11.144zm6.56-4.77c0 .564-.14.996-.43 1.296-.29.3-.68.45-1.16.45-.49 0-.87-.15-1.16-.45-.29-.3-.43-.732-.43-1.296 0-.564.14-.996.43-1.296.29-.3.67-.45 1.16-.45.48 0 .87.15 1.16.45.29.3.43.732.43 1.296zm-1.02 0c0-.306-.05-.528-.16-.666a.496.496 0 00-.41-.207c-.18 0-.32.069-.42.207-.11.138-.16.36-.16.666 0 .306.05.531.16.675.1.138.24.207.42.207.17 0 .3-.069.41-.207.11-.144.16-.369.16-.675zm2.78-1.602h1.25l-3.52 6.237h-1.25l3.52-6.237zm2.69 4.635c0 .564-.15.996-.43 1.296-.29.3-.68.45-1.17.45-.48 0-.87-.15-1.16-.45-.28-.3-.43-.732-.43-1.296 0-.564.15-.996.43-1.296.29-.3.68-.45 1.16-.45.49 0 .88.15 1.17.45.28.3.43.732.43 1.296zm-1.02 0c0-.306-.05-.528-.16-.666a.514.514 0 00-.42-.207c-.17 0-.31.069-.42.207-.1.138-.15.36-.15.666 0 .306.05.531.15.675.11.138.25.207.42.207.17 0 .31-.069.42-.207.11-.144.16-.369.16-.675z" fill="#F68E00"/><path d="M1862.44 341.751h1.5v-1.665h1.23v1.665h1.5v1.125h-1.5v1.665h-1.23v-1.665h-1.5v-1.125zm6.73 3.384c-.16 0-.34-.012-.52-.036a4.78 4.78 0 01-.52-.081 5.677 5.677 0 01-.46-.117 3.318 3.318 0 01-.32-.117l.26-1.116c.16.066.35.138.59.216.25.072.55.108.91.108.42 0 .72-.078.91-.234a.777.777 0 00.29-.63.731.731 0 00-.11-.405.676.676 0 00-.28-.27c-.12-.072-.26-.12-.43-.144-.16-.03-.33-.045-.52-.045h-.52v-1.08h.59c.13 0 .26-.012.38-.036a.986.986 0 00.33-.117c.1-.06.17-.138.23-.234a.735.735 0 00.09-.378.684.684 0 00-.07-.297.758.758 0 00-.19-.207.768.768 0 00-.26-.117c-.1-.03-.2-.045-.3-.045-.26 0-.5.039-.72.117-.22.078-.42.174-.6.288l-.47-.981c.09-.06.2-.123.33-.189s.28-.126.43-.18c.16-.054.32-.099.5-.135.18-.036.37-.054.56-.054.37 0 .69.045.95.135.27.084.49.207.67.369.17.156.3.342.38.558.09.21.13.441.13.693 0 .246-.07.486-.21.72-.14.228-.32.402-.56.522.33.132.58.33.75.594.18.258.27.57.27.936 0 .288-.05.555-.14.801-.1.24-.25.45-.45.63-.21.174-.47.312-.79.414-.31.096-.68.144-1.11.144zm6.56-4.77c0 .564-.14.996-.43 1.296-.29.3-.68.45-1.16.45-.49 0-.87-.15-1.16-.45-.29-.3-.43-.732-.43-1.296 0-.564.14-.996.43-1.296.29-.3.67-.45 1.16-.45.48 0 .87.15 1.16.45.29.3.43.732.43 1.296zm-1.02 0c0-.306-.05-.528-.16-.666a.496.496 0 00-.41-.207c-.18 0-.32.069-.42.207-.11.138-.16.36-.16.666 0 .306.05.531.16.675.1.138.24.207.42.207.17 0 .3-.069.41-.207.11-.144.16-.369.16-.675zm2.78-1.602h1.25l-3.52 6.237h-1.25l3.52-6.237zm2.69 4.635c0 .564-.15.996-.43 1.296-.29.3-.68.45-1.17.45-.48 0-.87-.15-1.16-.45-.28-.3-.43-.732-.43-1.296 0-.564.15-.996.43-1.296.29-.3.68-.45 1.16-.45.49 0 .88.15 1.17.45.28.3.43.732.43 1.296zm-1.02 0c0-.306-.05-.528-.16-.666a.514.514 0 00-.42-.207c-.17 0-.31.069-.42.207-.1.138-.15.36-.15.666 0 .306.05.531.15.675.11.138.25.207.42.207.17 0 .31-.069.42-.207.11-.144.16-.369.16-.675z" fill="#FFEA94"/></g><g clip-path="url(#clip1)"><path d="M1729.67 346.868c0 13.807-11.19 25-25 25-7.28 0-13.83-3.11-18.4-8.075a24.84 24.84 0 01-3.16-4.27 24.821 24.821 0 01-3.44-12.655c0-13.807 11.19-25 25-25 4.62 0 8.95 1.252 12.66 3.436 1.53.903 2.96 1.965 4.27 3.166a24.936 24.936 0 018.07 18.398z" fill="#F0CD00"/><path d="M1729.67 346.868c0 13.496-10.69 24.494-24.07 24.983-13.37-.489-24.07-11.487-24.07-24.983s10.7-24.494 24.07-24.983c13.38.489 24.07 11.487 24.07 24.983z" fill="#FFDE50"/><path d="M1721.6 328.47l-35.33 35.324a24.887 24.887 0 01-3.16-4.271l34.22-34.219c1.53.903 2.96 1.965 4.27 3.166zm6.35 9.258l-32.42 32.416a25.137 25.137 0 01-6.33-3.636l35.11-35.111a25.012 25.012 0 013.64 6.331z" fill="#FFEA94"/><path d="M1724.1 346.868c0 10.729-8.7 19.426-19.43 19.426a19.38 19.38 0 01-10.19-2.883 19.218 19.218 0 01-3.54-2.807 18.986 18.986 0 01-2.15-2.545 19.523 19.523 0 01-2.19-4.059 19.262 19.262 0 01-1.35-6.893v-.239c0-10.729 8.69-19.427 19.42-19.427a19.34 19.34 0 0111.19 3.545c.91.643 1.76 1.361 2.55 2.145a19.058 19.058 0 012.8 3.548 19.324 19.324 0 012.89 10.189z" fill="#FAA300"/><path d="M1718.41 333.131l-27.47 27.473a18.986 18.986 0 01-2.15-2.545 19.523 19.523 0 01-2.19-4.059 19.262 19.262 0 01-1.35-6.893v-.239c0-10.729 8.69-19.427 19.42-19.427a19.34 19.34 0 0111.19 3.545c.91.643 1.76 1.361 2.55 2.145z" fill="#FFBD00"/><path d="M1724.1 346.868c0 10.729-8.7 19.426-19.43 19.426-.37 0-.73-.01-1.1-.03 10.22-.569 18.33-9.036 18.33-19.396 0-10.36-8.11-18.828-18.33-19.396.37-.02.73-.031 1.1-.031 10.73 0 19.43 8.698 19.43 19.427z" fill="#F68E00"/><path d="M1688.67 351.368c.84-1.5 3.1-4.3 5.5-3.5 3 1 2 3 5 3.5s4.5-5 6.5-6.5 4 2 4.5 5 2 3 3 2 1-5.5 3.5-5.5 3 3 3 3.5" stroke="#F68E00" stroke-width="3"/><path d="M1688.67 349.368c.84-1.5 3.1-4.3 5.5-3.5 3 1 2 3 5 3.5s4.5-5 6.5-6.5 4 2 4.5 5 2 3 3 2 1-5.5 3.5-5.5 3 3 3 3.5" stroke="#FFEA94" stroke-width="3"/></g><g clip-path="url(#clip2)"><path d="M87.672 181.868c0 8.284-6.716 15-15 15a14.958 14.958 0 01-11.04-4.845 14.934 14.934 0 01-3.96-10.155c0-8.284 6.716-15 15-15a14.926 14.926 0 0110.155 3.961 14.957 14.957 0 014.845 11.039z" fill="#F0CD00"/><path d="M87.672 181.868c0 8.098-6.416 14.696-14.442 14.99-8.026-.294-14.441-6.892-14.441-14.99 0-8.098 6.415-14.696 14.441-14.99 8.026.294 14.442 6.892 14.442 14.99z" fill="#FFDE50"/><path d="M82.827 170.829l-21.194 21.194a15.05 15.05 0 01-1.9-2.562l20.532-20.532c.921.542 1.78 1.18 2.562 1.9zm3.81 5.555l-19.45 19.45a14.968 14.968 0 01-3.797-2.182l21.066-21.066a14.96 14.96 0 012.181 3.798z" fill="#FFEA94"/><path d="M84.328 181.868c0 6.437-5.219 11.656-11.656 11.656a11.6 11.6 0 01-8.242-3.415 11.63 11.63 0 01-3.413-8.098v-.143c0-6.437 5.217-11.656 11.655-11.656l.144.001a11.595 11.595 0 016.57 2.126 11.77 11.77 0 013.212 3.416 11.598 11.598 0 011.73 6.113z" fill="#FAA300"/><path d="M80.913 173.626L64.43 190.109a11.63 11.63 0 01-3.413-8.098v-.143c0-6.437 5.217-11.656 11.655-11.656l.144.001a11.595 11.595 0 016.57 2.126 11.77 11.77 0 011.527 1.287z" fill="#FFBD00"/><path d="M84.327 181.868c0 6.437-5.218 11.656-11.656 11.656-.22 0-.44-.006-.658-.019 6.131-.341 10.997-5.421 10.997-11.637s-4.866-11.297-10.997-11.638c.218-.012.438-.018.658-.018 6.438 0 11.656 5.219 11.656 11.656z" fill="#F68E00"/><path d="M63.113 182.619h1.503v-1.665h1.224v1.665h1.503v1.125H65.84v1.665h-1.224v-1.665h-1.503v-1.125zm6.726 3.384c-.162 0-.333-.012-.513-.036a4.742 4.742 0 01-.522-.081 5.647 5.647 0 01-.459-.117 2.644 2.644 0 01-.324-.117l.261-1.116c.156.066.354.138.594.216.246.072.55.108.91.108.413 0 .716-.078.908-.234a.77.77 0 00.288-.63.715.715 0 00-.108-.405.71.71 0 00-.279-.27 1.147 1.147 0 00-.432-.144 2.867 2.867 0 00-.522-.045h-.522v-1.08h.594c.132 0 .258-.012.378-.036.126-.024.237-.063.333-.117a.646.646 0 00.225-.234.735.735 0 00.09-.378.589.589 0 00-.26-.504.694.694 0 00-.262-.117.99.99 0 00-.297-.045c-.258 0-.498.039-.72.117a3.028 3.028 0 00-.594.288l-.477-.981a3.596 3.596 0 01.765-.369c.156-.054.321-.099.495-.135.18-.036.37-.054.567-.054.366 0 .681.045.945.135.27.084.492.207.666.369.174.156.303.342.387.558.084.21.126.441.126.693a1.4 1.4 0 01-.207.72 1.374 1.374 0 01-.558.522 1.58 1.58 0 011.017 1.53c0 .288-.048.555-.144.801a1.65 1.65 0 01-.45.63 2.251 2.251 0 01-.783.414 3.819 3.819 0 01-1.116.144zm6.564-4.77c0 .564-.144.996-.432 1.296-.288.3-.675.45-1.16.45-.487 0-.874-.15-1.162-.45-.288-.3-.432-.732-.432-1.296 0-.564.144-.996.432-1.296.288-.3.675-.45 1.161-.45s.873.15 1.161.45c.288.3.432.732.432 1.296zm-1.017 0c0-.306-.054-.528-.162-.666a.503.503 0 00-.414-.207.512.512 0 00-.423.207c-.102.138-.153.36-.153.666 0 .306.051.531.153.675a.512.512 0 00.423.207.503.503 0 00.414-.207c.108-.144.162-.369.162-.675zm2.772-1.602h1.251l-3.519 6.237h-1.25l3.518-6.237zm2.691 4.635c0 .564-.144.996-.432 1.296-.288.3-.675.45-1.16.45-.487 0-.874-.15-1.162-.45-.288-.3-.432-.732-.432-1.296 0-.564.144-.996.432-1.296.288-.3.675-.45 1.161-.45s.873.15 1.161.45c.288.3.432.732.432 1.296zm-1.017 0c0-.306-.054-.528-.162-.666a.503.503 0 00-.414-.207.512.512 0 00-.423.207c-.102.138-.153.36-.153.666 0 .306.051.531.153.675a.512.512 0 00.423.207.503.503 0 00.414-.207c.108-.144.162-.369.162-.675z" fill="#F68E00"/><path d="M63.113 181.619h1.503v-1.665h1.224v1.665h1.503v1.125H65.84v1.665h-1.224v-1.665h-1.503v-1.125zm6.726 3.384c-.162 0-.333-.012-.513-.036a4.742 4.742 0 01-.522-.081 5.647 5.647 0 01-.459-.117 2.644 2.644 0 01-.324-.117l.261-1.116c.156.066.354.138.594.216.246.072.55.108.91.108.413 0 .716-.078.908-.234a.77.77 0 00.288-.63.715.715 0 00-.108-.405.71.71 0 00-.279-.27 1.147 1.147 0 00-.432-.144 2.867 2.867 0 00-.522-.045h-.522v-1.08h.594c.132 0 .258-.012.378-.036.126-.024.237-.063.333-.117a.646.646 0 00.225-.234.735.735 0 00.09-.378.589.589 0 00-.26-.504.694.694 0 00-.262-.117.99.99 0 00-.297-.045c-.258 0-.498.039-.72.117a3.028 3.028 0 00-.594.288l-.477-.981a3.596 3.596 0 01.765-.369c.156-.054.321-.099.495-.135.18-.036.37-.054.567-.054.366 0 .681.045.945.135.27.084.492.207.666.369.174.156.303.342.387.558.084.21.126.441.126.693a1.4 1.4 0 01-.207.72 1.374 1.374 0 01-.558.522 1.58 1.58 0 011.017 1.53c0 .288-.048.555-.144.801a1.65 1.65 0 01-.45.63 2.251 2.251 0 01-.783.414 3.819 3.819 0 01-1.116.144zm6.564-4.77c0 .564-.144.996-.432 1.296-.288.3-.675.45-1.16.45-.487 0-.874-.15-1.162-.45-.288-.3-.432-.732-.432-1.296 0-.564.144-.996.432-1.296.288-.3.675-.45 1.161-.45s.873.15 1.161.45c.288.3.432.732.432 1.296zm-1.017 0c0-.306-.054-.528-.162-.666a.503.503 0 00-.414-.207.512.512 0 00-.423.207c-.102.138-.153.36-.153.666 0 .306.051.531.153.675a.512.512 0 00.423.207.503.503 0 00.414-.207c.108-.144.162-.369.162-.675zm2.772-1.602h1.251l-3.519 6.237h-1.25l3.518-6.237zm2.691 4.635c0 .564-.144.996-.432 1.296-.288.3-.675.45-1.16.45-.487 0-.874-.15-1.162-.45-.288-.3-.432-.732-.432-1.296 0-.564.144-.996.432-1.296.288-.3.675-.45 1.161-.45s.873.15 1.161.45c.288.3.432.732.432 1.296zm-1.017 0c0-.306-.054-.528-.162-.666a.503.503 0 00-.414-.207.512.512 0 00-.423.207c-.102.138-.153.36-.153.666 0 .306.051.531.153.675a.512.512 0 00.423.207.503.503 0 00.414-.207c.108-.144.162-.369.162-.675z" fill="#FFEA94"/></g><g clip-path="url(#clip3)"><path d="M361.672 134.868c0 8.284-6.716 15-15 15a14.96 14.96 0 01-11.04-4.845 15.058 15.058 0 01-1.899-2.562 14.93 14.93 0 01-2.061-7.593c0-8.284 6.716-15 15-15a14.927 14.927 0 0110.155 3.961 14.959 14.959 0 014.845 11.039z" fill="#F0CD00"/><path d="M361.672 134.868c0 8.098-6.416 14.696-14.442 14.99-8.026-.294-14.441-6.892-14.441-14.99 0-8.098 6.415-14.696 14.441-14.99 8.026.294 14.442 6.892 14.442 14.99z" fill="#FFDE50"/><path d="M356.827 123.829l-21.195 21.194a15.018 15.018 0 01-1.899-2.562l20.532-20.532c.921.542 1.78 1.18 2.562 1.9zm3.81 5.555l-19.45 19.45a14.979 14.979 0 01-3.797-2.182l21.066-21.066a14.934 14.934 0 012.181 3.798z" fill="#FFEA94"/><path d="M358.328 134.868c0 6.437-5.219 11.656-11.656 11.656-2.242 0-4.336-.633-6.113-1.73a11.653 11.653 0 01-2.129-1.685 11.608 11.608 0 01-2.603-3.962 11.602 11.602 0 01-.81-4.136l-.001-.143c0-6.437 5.218-11.656 11.656-11.656l.144.001a11.597 11.597 0 016.57 2.126c.546.386 1.057.816 1.527 1.287.641.64 1.207 1.354 1.685 2.129a11.599 11.599 0 011.73 6.113z" fill="#FAA300"/><path d="M354.913 126.626l-16.483 16.483a11.608 11.608 0 01-2.603-3.962 11.602 11.602 0 01-.81-4.136l-.001-.143c0-6.437 5.218-11.656 11.656-11.656l.144.001a11.597 11.597 0 016.57 2.126c.546.386 1.057.816 1.527 1.287z" fill="#FFBD00"/><path d="M358.327 134.868c0 6.437-5.218 11.656-11.656 11.656-.221 0-.44-.006-.658-.019 6.131-.341 10.997-5.421 10.997-11.637s-4.866-11.297-10.997-11.638c.218-.012.437-.018.658-.018 6.438 0 11.656 5.219 11.656 11.656zm-13.991 9.853v-1h1v1c-.4.4-.833.166-1 0z" fill="#F68E00"/><path fill-rule="evenodd" clip-rule="evenodd" d="M348.499 132.721c2.337-.066 5.837 2.416 5.837 5.467a5.54 5.54 0 01-5.533 5.533h-8.804v-2.684h1.476v-13.491h-1.476v-2.509h8.804c1.533.684 3.084 1.684 3.084 4.184s-2.156 3.355-3.388 3.5zm-.293-5.175h-4.283v3.701h4.283c.63-.026 1.293-.627 1.293-2.026 0-1-.524-1.675-1.293-1.675zm.597 13.726h-4.88v-6.168h4.88c1.7 0 3.084 1.383 3.084 3.084 0 1.7-1.384 3.084-3.084 3.084z" fill="#F68E00"/><path d="M347.336 144.721v-1h1v1c-.4.4-.833.166-1 0zm-2.935-19.684h-.065v-.816c.167-.167.6-.4 1 0v.816h-.935zm2.935 0h-1v-.816c.167-.167.6-.4 1 0v.816z" fill="#F68E00"/><path d="M344.999 145v-1h1v1c-.4.4-.833.166-1 0z" fill="#FFEA94"/><path fill-rule="evenodd" clip-rule="evenodd" d="M349.162 133c2.837 0 5.837 1.208 5.837 5.467a5.54 5.54 0 01-5.533 5.533h-8.804v-2.684h1.476v-13.491h-1.476v-2.509h8.5c2.497 0 3.388 2.158 3.388 4.184 0 2.026-1.508 3.5-3.388 3.5zm-.292-5.175h-4.283v3.701h4.283c.629-.026 1.292-.627 1.292-2.026 0-1-.524-1.675-1.292-1.675zm.596 13.726h-4.879v-6.168h4.879c1.7 0 3.084 1.383 3.084 3.084 0 1.7-1.384 3.084-3.084 3.084z" fill="#FFEA94"/><path d="M347.999 145v-1h1v1c-.4.4-.833.167-1 0zm-2.935-19.684h-.065v-.816c.167-.167.6-.4 1 0v.816h-.935zm2.935 0h-1v-.816c.167-.167.6-.4 1 0v.816z" fill="#FFEA94"/></g><defs><clipPath id="clip0"><path fill="#fff" transform="translate(1857 327)" d="M0 0h30v30H0z"/></clipPath><clipPath id="clip1"><path fill="#fff" transform="translate(1679.67 321.868)" d="M0 0h50v50H0z"/></clipPath><clipPath id="clip2"><path fill="#fff" transform="translate(57.672 166.868)" d="M0 0h30v30H0z"/></clipPath><clipPath id="clip3"><path fill="#fff" transform="translate(331.672 119.868)" d="M0 0h30v30H0z"/></clipPath><linearGradient id="paint0_linear" x1="117.293" y1="46.496" x2="107.87" y2="756.496" gradientUnits="userSpaceOnUse"><stop stop-color="#FF3D22"/><stop offset="1" stop-color="#FF8516"/></linearGradient></defs></svg>