<svg width="1848" height="426" fill="none" xmlns="http://www.w3.org/2000/svg"><path d="M370.398 81.646C298.129 30.85 33.73 19.68 6.37 87.616c-34.201 84.917 180.407 38.39 192.13 101.884 7.306 39.57-164.58 241.992-53.564 230.826C255.952 409.159 630.42 64.425 666.001 71.5c35.58 7.076 147.597 255.021 135.5 225.5-12.098-29.52-440.932-110.734-438.035-165.499" stroke="url(#paint0_linear)" stroke-dasharray="5 5"/><path d="M1127.5 49c101.14 66.121 633.6 358.913 687.2 299.226 67.01-74.609-367.11-254.821-388.96-193.556-10.27 28.794 41.54 84.373-129.5 69.496C1125.2 209.288 936.541 20.587 859.824 16.958c-113.796-5.383-105.935 23.488-92.697 54.984 13.238 31.496 279.933 162.128 265.893 214.685" stroke="url(#paint1_linear)" stroke-dasharray="5 5"/><g clip-path="url(#clip0)"><path d="M1220 87c0 13.807-11.19 25-25 25-7.28 0-13.83-3.11-18.4-8.074a25.444 25.444 0 01-3.17-4.27A24.912 24.912 0 011170 87c0-13.807 11.19-25 25-25 4.62 0 8.94 1.252 12.66 3.436a25.02 25.02 0 014.26 3.166A24.91 24.91 0 011220 87z" fill="#F0CD00"/><path d="M1220 87c0 13.496-10.69 24.494-24.07 24.983-13.38-.489-24.07-11.487-24.07-24.983s10.69-24.494 24.07-24.983c13.38.49 24.07 11.487 24.07 24.983z" fill="#FFDE50"/><path d="M1211.92 68.602l-35.32 35.324a25.444 25.444 0 01-3.17-4.27l34.23-34.22a25.02 25.02 0 014.26 3.166zm6.36 9.258l-32.42 32.417a24.796 24.796 0 01-6.33-3.637l35.11-35.11a25.3 25.3 0 013.64 6.33z" fill="#FFEA94"/><path d="M1214.43 87c0 10.729-8.7 19.427-19.43 19.427-3.74 0-7.23-1.055-10.19-2.884a19.626 19.626 0 01-3.55-2.807 19.66 19.66 0 01-2.14-2.545 19.085 19.085 0 01-2.2-4.06 19.251 19.251 0 01-1.34-6.892c-.01-.08-.01-.16-.01-.239 0-10.728 8.7-19.426 19.43-19.426a19.358 19.358 0 0111.19 3.545c.91.642 1.76 1.36 2.55 2.144a19.461 19.461 0 012.8 3.548 19.324 19.324 0 012.89 10.19z" fill="#FAA300"/><path d="M1208.74 73.263l-27.48 27.473a19.66 19.66 0 01-2.14-2.545 19.085 19.085 0 01-2.2-4.06 19.251 19.251 0 01-1.34-6.892c-.01-.08-.01-.16-.01-.239 0-10.728 8.7-19.426 19.43-19.426a19.358 19.358 0 0111.19 3.545c.91.642 1.76 1.36 2.55 2.144z" fill="#FFBD00"/><path d="M1214.43 87c0 10.729-8.7 19.427-19.43 19.427-.37 0-.73-.011-1.1-.031 10.22-.568 18.33-9.036 18.33-19.396 0-10.36-8.11-18.827-18.33-19.396.37-.02.73-.03 1.1-.03 10.73 0 19.43 8.698 19.43 19.426z" fill="#F68E00"/><path d="M1179 91.5c.83-1.5 3.1-4.3 5.5-3.5 3 1 2 3 5 3.5s4.5-5 6.5-6.5 4 2 4.5 5 2 3 3 2 1-5.5 3.5-5.5 3 3 3 3.5" stroke="#F68E00" stroke-width="3"/><path d="M1179 89.5c.83-1.5 3.1-4.3 5.5-3.5 3 1 2 3 5 3.5s4.5-5 6.5-6.5 4 2 4.5 5 2 3 3 2 1-5.5 3.5-5.5 3 3 3 3.5" stroke="#FFEA94" stroke-width="3"/></g><g clip-path="url(#clip1)"><path d="M56 57c0 8.284-6.716 15-15 15a14.959 14.959 0 01-11.04-4.845A14.934 14.934 0 0126 57c0-8.284 6.716-15 15-15a14.957 14.957 0 0110.155 3.962A14.956 14.956 0 0156 57z" fill="#F0CD00"/><path d="M56 57c0 8.098-6.416 14.696-14.441 14.99-8.026-.294-14.442-6.892-14.442-14.99 0-8.097 6.415-14.696 14.442-14.99C49.584 42.304 56 48.904 56 57z" fill="#FFDE50"/><path d="M51.155 45.961L29.96 67.155a15.061 15.061 0 01-1.9-2.562l20.532-20.532c.921.542 1.78 1.18 2.562 1.9zm3.81 5.555l-19.45 19.45a14.98 14.98 0 01-3.797-2.182l21.066-21.066a14.955 14.955 0 012.181 3.798z" fill="#FFEA94"/><path d="M52.656 57c0 6.437-5.219 11.656-11.656 11.656-2.242 0-4.336-.633-6.113-1.73a11.683 11.683 0 01-3.416-3.211 11.623 11.623 0 01-2.126-6.572V57c0-6.437 5.217-11.656 11.655-11.656l.144.001a11.611 11.611 0 018.098 3.413 11.69 11.69 0 011.684 2.129A11.6 11.6 0 0152.656 57z" fill="#FAA300"/><path d="M49.242 48.758L32.758 65.241a11.675 11.675 0 01-2.603-3.962 11.604 11.604 0 01-.81-4.136V57c0-6.437 5.217-11.656 11.655-11.656l.144.001a11.611 11.611 0 018.098 3.413z" fill="#FFBD00"/><path d="M52.656 57c0 6.437-5.22 11.656-11.656 11.656-.221 0-.44-.006-.659-.018C46.472 68.297 51.34 63.216 51.34 57s-4.868-11.296-11-11.638c.218-.012.438-.018.659-.018 6.437 0 11.656 5.219 11.656 11.656z" fill="#F68E00"/><path d="M31.441 57.751h1.503v-1.665h1.224v1.665h1.503v1.125h-1.503v1.665h-1.224v-1.665h-1.503v-1.125zm6.726 3.384c-.162 0-.333-.012-.513-.036a4.742 4.742 0 01-.522-.08 5.647 5.647 0 01-.459-.118 2.644 2.644 0 01-.324-.117l.261-1.116c.156.066.354.138.594.216.246.072.55.108.91.108.413 0 .716-.078.908-.234a.77.77 0 00.288-.63.715.715 0 00-.108-.405.71.71 0 00-.279-.27 1.147 1.147 0 00-.432-.144 2.867 2.867 0 00-.522-.045h-.522v-1.08h.594c.132 0 .258-.012.378-.036.126-.024.237-.063.333-.117a.646.646 0 00.225-.234.735.735 0 00.09-.378.589.589 0 00-.26-.504.694.694 0 00-.262-.117.99.99 0 00-.297-.045c-.258 0-.498.04-.72.117a3.028 3.028 0 00-.594.288l-.477-.98a5.06 5.06 0 01.333-.19 3.973 3.973 0 01.927-.315c.18-.036.37-.054.567-.054.366 0 .681.045.945.135.27.084.492.207.666.37.174.155.303.341.387.557.084.21.126.441.126.693a1.4 1.4 0 01-.207.72 1.374 1.374 0 01-.558.522 1.58 1.58 0 011.017 1.53c0 .288-.048.555-.144.801a1.65 1.65 0 01-.45.63 2.251 2.251 0 01-.783.414 3.819 3.819 0 01-1.116.144zm6.564-4.77c0 .564-.144.996-.431 1.296-.288.3-.675.45-1.161.45s-.873-.15-1.162-.45c-.287-.3-.431-.732-.431-1.296 0-.564.144-.996.431-1.296.289-.3.676-.45 1.162-.45.485 0 .872.15 1.16.45.288.3.432.732.432 1.296zm-1.017 0c0-.306-.053-.528-.161-.666a.503.503 0 00-.414-.207.512.512 0 00-.424.207c-.102.138-.153.36-.153.666 0 .306.052.531.154.675a.512.512 0 00.422.207.503.503 0 00.415-.207c.108-.144.162-.369.162-.675zm2.773-1.602h1.25L44.218 61h-1.25l3.518-6.237zm2.69 4.635c0 .564-.144.996-.431 1.296-.288.3-.675.45-1.162.45-.486 0-.873-.15-1.16-.45-.288-.3-.432-.732-.432-1.296 0-.564.144-.996.431-1.296.288-.3.675-.45 1.161-.45s.873.15 1.161.45c.288.3.433.732.433 1.296zm-1.017 0c0-.306-.053-.528-.161-.666a.503.503 0 00-.415-.207.512.512 0 00-.423.207c-.102.138-.153.36-.153.666 0 .306.051.531.153.675a.512.512 0 00.423.207.503.503 0 00.414-.207c.108-.144.163-.369.163-.675z" fill="#F68E00"/><path d="M31.441 56.751h1.503v-1.665h1.224v1.665h1.503v1.125h-1.503v1.665h-1.224v-1.665h-1.503v-1.125zm6.726 3.384c-.162 0-.333-.012-.513-.036a4.742 4.742 0 01-.522-.08 5.647 5.647 0 01-.459-.118 2.644 2.644 0 01-.324-.117l.261-1.116c.156.066.354.138.594.216.246.072.55.108.91.108.413 0 .716-.078.908-.234a.77.77 0 00.288-.63.715.715 0 00-.108-.405.71.71 0 00-.279-.27 1.147 1.147 0 00-.432-.144 2.867 2.867 0 00-.522-.045h-.522v-1.08h.594c.132 0 .258-.012.378-.036.126-.024.237-.063.333-.117a.646.646 0 00.225-.234.735.735 0 00.09-.378.589.589 0 00-.26-.504.694.694 0 00-.262-.117.99.99 0 00-.297-.045c-.258 0-.498.04-.72.117a3.028 3.028 0 00-.594.288l-.477-.98a5.06 5.06 0 01.333-.19 3.973 3.973 0 01.927-.315c.18-.036.37-.054.567-.054.366 0 .681.045.945.135.27.084.492.207.666.37.174.155.303.341.387.557.084.21.126.441.126.693a1.4 1.4 0 01-.207.72 1.374 1.374 0 01-.558.522 1.58 1.58 0 011.017 1.53c0 .288-.048.555-.144.801a1.65 1.65 0 01-.45.63 2.251 2.251 0 01-.783.414 3.819 3.819 0 01-1.116.144zm6.564-4.77c0 .564-.144.996-.431 1.296-.288.3-.675.45-1.161.45s-.873-.15-1.162-.45c-.287-.3-.431-.732-.431-1.296 0-.564.144-.996.431-1.296.289-.3.676-.45 1.162-.45.485 0 .872.15 1.16.45.288.3.432.732.432 1.296zm-1.017 0c0-.306-.053-.528-.161-.666a.503.503 0 00-.414-.207.512.512 0 00-.424.207c-.102.138-.153.36-.153.666 0 .306.052.531.154.675a.512.512 0 00.422.207.503.503 0 00.415-.207c.108-.144.162-.369.162-.675zm2.773-1.602h1.25L44.218 60h-1.25l3.518-6.237zm2.69 4.635c0 .564-.144.996-.431 1.296-.288.3-.675.45-1.162.45-.486 0-.873-.15-1.16-.45-.288-.3-.432-.732-.432-1.296 0-.564.144-.996.431-1.296.288-.3.675-.45 1.161-.45s.873.15 1.161.45c.288.3.433.732.433 1.296zm-1.017 0c0-.306-.053-.528-.161-.666a.503.503 0 00-.415-.207.512.512 0 00-.423.207c-.102.138-.153.36-.153.666 0 .306.051.531.153.675a.512.512 0 00.423.207.503.503 0 00.414-.207c.108-.144.163-.369.163-.675z" fill="#FFEA94"/></g><g clip-path="url(#clip2)"><path d="M666 245c0 8.284-6.716 15-15 15a14.957 14.957 0 01-11.039-4.845A14.927 14.927 0 01636 245c0-8.284 6.716-15 15-15 2.771 0 5.366.751 7.593 2.062.921.541 1.78 1.179 2.562 1.899A14.959 14.959 0 01666 245z" fill="#F0CD00"/><path d="M666 245c0 8.098-6.416 14.696-14.442 14.99-8.025-.294-14.441-6.892-14.441-14.99 0-8.097 6.416-14.696 14.441-14.99 8.026.294 14.442 6.893 14.442 14.99z" fill="#FFDE50"/><path d="M661.155 233.961l-21.194 21.194a14.984 14.984 0 01-1.9-2.562l20.532-20.531c.921.541 1.78 1.179 2.562 1.899zm3.81 5.555l-19.449 19.45a14.967 14.967 0 01-3.798-2.182l21.066-21.066a14.934 14.934 0 012.181 3.798z" fill="#FFEA94"/><path d="M662.656 245c0 6.437-5.219 11.656-11.656 11.656-2.242 0-4.336-.633-6.113-1.73a11.69 11.69 0 01-4.732-5.647 11.62 11.62 0 01-.81-4.136l-.001-.143c0-6.437 5.218-11.656 11.656-11.656l.144.001a11.64 11.64 0 016.571 2.126 11.69 11.69 0 013.211 3.416 11.599 11.599 0 011.73 6.113z" fill="#FAA300"/><path d="M659.242 236.758l-16.484 16.484a11.628 11.628 0 01-3.413-8.099l-.001-.143c0-6.437 5.218-11.656 11.656-11.656l.144.001a11.64 11.64 0 016.571 2.126c.545.386 1.056.816 1.527 1.287z" fill="#FFBD00"/><path d="M662.655 245c0 6.437-5.218 11.656-11.655 11.656-.221 0-.441-.006-.659-.018 6.131-.341 10.998-5.422 10.998-11.638s-4.867-11.296-10.998-11.637c.218-.013.438-.019.659-.019 6.437 0 11.655 5.219 11.655 11.656zm-13.991 9.853v-1h1v1c-.4.4-.833.167-1 0z" fill="#F68E00"/><path fill-rule="evenodd" clip-rule="evenodd" d="M652.827 242.853c2.337-.066 5.837 2.416 5.837 5.467a5.54 5.54 0 01-5.533 5.533h-8.804v-2.684h1.476v-13.491h-1.476v-2.509h8.804c1.533.684 3.084 1.684 3.084 4.184s-2.156 3.355-3.388 3.5zm-.292-5.175h-4.283v3.701h4.283c.629-.026 1.292-.627 1.292-2.026 0-1-.524-1.675-1.292-1.675zm.596 13.726h-4.879v-6.168h4.879c1.7 0 3.084 1.384 3.084 3.084 0 1.7-1.384 3.084-3.084 3.084z" fill="#F68E00"/><path d="M651.664 254.853v-1h1v1c-.4.4-.833.167-1 0zm-2.935-19.684h-.065v-.816c.167-.167.6-.4 1 0v.816h-.935zm2.935 0h-1v-.816c.167-.167.6-.4 1 0v.816z" fill="#F68E00"/><path d="M649.327 255.132v-1h1v1c-.4.4-.833.167-1 0z" fill="#FFEA94"/><path fill-rule="evenodd" clip-rule="evenodd" d="M653.49 243.132c2.837 0 5.837 1.208 5.837 5.467a5.54 5.54 0 01-5.533 5.533h-8.804v-2.684h1.476v-13.491h-1.476v-2.509h8.5c2.498 0 3.388 2.158 3.388 4.184 0 2.026-1.508 3.5-3.388 3.5zm-.292-5.175h-4.283v3.701h4.283c.629-.026 1.292-.627 1.292-2.026 0-1-.524-1.675-1.292-1.675zm.596 13.726h-4.879v-6.168h4.879c1.7 0 3.084 1.384 3.084 3.084a3.088 3.088 0 01-3.084 3.084z" fill="#FFEA94"/><path d="M652.327 255.132v-1h1v1c-.4.4-.833.167-1 0zm-2.935-19.684h-.065v-.816c.167-.167.6-.4 1 0v.816h-.935zm2.935 0h-1v-.816c.167-.167.6-.4 1 0v.816z" fill="#FFEA94"/></g><defs><clipPath id="clip0"><path fill="#fff" transform="translate(1170 62)" d="M0 0h50v50H0z"/></clipPath><clipPath id="clip1"><path fill="#fff" transform="translate(26 42)" d="M0 0h30v30H0z"/></clipPath><clipPath id="clip2"><path fill="#fff" transform="translate(636 230)" d="M0 0h30v30H0z"/></clipPath><linearGradient id="paint0_linear" x1="724.988" y1="380.941" x2="400.026" y2="-378.645" gradientUnits="userSpaceOnUse"><stop stop-color="#239D42"/><stop offset="1" stop-color="#E1E224"/></linearGradient><linearGradient id="paint1_linear" x1="872.383" y1="29.745" x2="902.333" y2="598.45" gradientUnits="userSpaceOnUse"><stop stop-color="#FF3D22"/><stop offset="1" stop-color="#FF8516"/></linearGradient></defs></svg>