<svg width="348" height="89" fill="none" xmlns="http://www.w3.org/2000/svg"><path d="M2 86.816c2.24.363 7.576.435 10.997-2.177 4.277-3.266 4.888-7.076 10.387-7.076 5.499 0 13.441 1.633 20.162-3.81 6.72-5.444 6.11-11.975 12.22-13.608 6.109-1.633 11.608 1.633 15.273 2.177 3.666.544 11.609-4.354 17.108-13.063 5.498-8.71 18.939-28.304 26.271-27.215 7.332 1.088 9.776 1.088 19.551 13.607 9.776 12.52 14.052 17.418 17.718 17.418 3.666 0 15.885-22.317 21.384-22.317 5.499 0 14.663 16.874 27.494 14.152 12.83-2.721 10.997-6.531 15.885-4.354 4.887 2.177 13.563 2.346 18.329 5.443 4.393 2.855 7.331 20.684 9.775 21.228 2.444.544 5.938-7.54 10.387-8.709 1.789-.47 9.388 3.19 12.83 4.899 4.821 2.393 21.995-1.633 25.661-3.266 3.665-1.633 13.909-15.24 16.353-19.595" stroke="url(#paint0_linear)" stroke-width="4" stroke-linecap="round" stroke-linejoin="round"/><g filter="url(#filter0_f)"><ellipse cx="307.481" cy="42.5" rx="11.519" ry="12.5" fill="url(#paint1_linear)"/></g><defs><linearGradient id="paint0_linear" x1="155.892" y1="22" x2="155.892" y2="87" gradientUnits="userSpaceOnUse"><stop stop-color="#2BA040"/><stop offset="1" stop-color="#2BA040" stop-opacity="0"/></linearGradient><linearGradient id="paint1_linear" x1="316.682" y1="31.452" x2="287.679" y2="64.054" gradientUnits="userSpaceOnUse"><stop stop-color="#239D42"/><stop offset="1" stop-color="#E1E224"/></linearGradient><filter id="filter0_f" x="265.962" y="0" width="83.038" height="85" filterUnits="userSpaceOnUse" color-interpolation-filters="sRGB"><feFlood flood-opacity="0" result="BackgroundImageFix"/><feBlend in="SourceGraphic" in2="BackgroundImageFix" result="shape"/><feGaussianBlur stdDeviation="15" result="effect1_foregroundBlur"/></filter></defs></svg>