<svg width="375" height="615" viewBox="0 0 375 615" fill="none" xmlns="http://www.w3.org/2000/svg">
<path d="M-6.00009 385C66.0003 341 172.639 753.082 146.565 620.271C120.5 487.5 112.555 295.826 66.9999 316C31.9993 331.5 93 75.3413 205 1.0003C292.502 -57.08 33.3216 58.1947 10.4409 17.1592C-23.4978 -43.7085 -35.9617 -30.3041 -48.054 -13.2576C-60.1464 3.78893 -41.9306 184.537 -73.7707 194.212" stroke="url(#paint0_linear)" stroke-dasharray="5 5"/>
<g clip-path="url(#clip0)">
<path d="M117.131 131.051C109.957 135.509 100.527 133.306 96.0702 126.132C93.7205 122.35 93.2215 117.941 94.3262 113.965C94.6159 112.92 95.0169 111.906 95.523 110.941C96.7474 108.608 98.5908 106.561 100.99 105.071C108.164 100.613 117.594 102.816 122.051 109.99C123.542 112.39 124.288 115.042 124.351 117.675C124.378 118.765 124.288 119.851 124.084 120.916C123.314 124.97 120.913 128.702 117.131 131.051Z" fill="#F0CD00"/>
<path d="M117.131 131.051C110.118 135.408 100.952 133.402 96.3796 126.61C92.3153 119.501 94.5781 110.394 101.591 106.038C108.604 101.681 117.77 103.687 122.342 110.48C126.407 117.588 124.144 126.695 117.131 131.051Z" fill="#FFDE50"/>
<path d="M124.084 120.916L94.3259 113.965C94.6156 112.921 95.0166 111.906 95.5227 110.941L124.351 117.676C124.377 118.765 124.287 119.851 124.084 120.916Z" fill="#FFEA94"/>
<path d="M121.324 127.205L94.0147 120.826C93.7426 119.342 93.6951 117.838 93.8611 116.363L123.439 123.272C122.935 124.668 122.226 125.996 121.324 127.205Z" fill="#FFEA94"/>
<path d="M115.332 128.155C109.757 131.619 102.43 129.907 98.9664 124.332C97.7601 122.391 97.1818 120.237 97.1756 118.107C97.1725 117.18 97.2789 116.257 97.4889 115.357C97.6428 114.697 97.8536 114.048 98.1189 113.421C98.4842 112.558 98.9527 111.734 99.5198 110.971C100.358 109.842 101.412 108.844 102.666 108.045C102.707 108.018 102.748 107.992 102.789 107.967C108.364 104.503 115.691 106.214 119.155 111.79C119.181 111.831 119.207 111.873 119.231 111.915C120.001 113.187 120.504 114.548 120.755 115.932C120.925 116.867 120.981 117.813 120.926 118.749C120.885 119.429 120.787 120.103 120.633 120.764C120.423 121.663 120.109 122.538 119.695 123.368C118.747 125.274 117.274 126.949 115.332 128.155Z" fill="#FAA300"/>
<path d="M120.633 120.764L97.4889 115.357C97.6428 114.697 97.8536 114.048 98.1189 113.421C98.4842 112.558 98.9527 111.734 99.5198 110.971C100.358 109.842 101.412 108.844 102.666 108.045C102.707 108.018 102.748 107.992 102.789 107.967C108.364 104.503 115.691 106.214 119.155 111.79C119.181 111.831 119.207 111.873 119.231 111.915C120.001 113.187 120.504 114.548 120.755 115.932C120.925 116.867 120.981 117.813 120.926 118.749C120.885 119.429 120.787 120.103 120.633 120.764Z" fill="#FFBD00"/>
<path d="M115.331 128.155C109.757 131.618 102.429 129.907 98.9657 124.332C98.8468 124.14 98.7341 123.947 98.6275 123.752C102.222 128.878 109.239 130.359 114.623 127.014C120.006 123.67 121.788 116.722 118.784 111.229C118.912 111.411 119.035 111.598 119.154 111.789C122.618 117.364 120.906 124.691 115.331 128.155Z" fill="#F68E00"/>
<path d="M101.557 111.2C102.606 111.149 104.792 111.423 105.151 112.928C105.6 114.81 104.238 114.936 104.947 116.656C105.655 118.376 108.998 117.38 110.423 117.935C111.848 118.49 110.675 120.659 109.277 121.888C107.88 123.116 108.364 123.895 109.207 124.092C110.049 124.289 112.387 122.836 113.194 124.135C114.001 125.434 112.604 126.663 112.344 126.824" stroke="#F68E00" stroke-width="3"/>
<path d="M102.596 110.554C103.645 110.503 105.831 110.777 106.19 112.282C106.639 114.164 105.277 114.29 105.986 116.01C106.694 117.73 110.037 116.734 111.462 117.289C112.887 117.844 111.714 120.013 110.316 121.242C108.919 122.47 109.403 123.249 110.246 123.446C111.088 123.643 113.426 122.19 114.233 123.489C115.04 124.788 113.643 126.017 113.383 126.178" stroke="#FFEA94" stroke-width="3"/>
</g>
<g clip-path="url(#clip1)">
<path d="M129.373 412.309C132.551 419.659 129.17 428.195 121.819 431.373C117.944 433.049 113.74 432.901 110.166 431.31C109.227 430.893 108.332 430.375 107.497 429.766C105.48 428.292 103.818 426.277 102.755 423.819C99.5766 416.469 102.959 407.934 110.309 404.755C112.768 403.692 115.359 403.363 117.837 403.671C118.862 403.798 119.869 404.034 120.839 404.374C124.533 405.662 127.697 408.434 129.373 412.309Z" fill="#F0CD00"/>
<path d="M129.373 412.309C132.48 419.494 129.319 427.81 122.311 431.15C115.077 433.969 106.853 430.575 103.746 423.391C100.639 416.206 103.8 407.89 110.809 404.55C118.042 401.731 126.267 405.124 129.373 412.309Z" fill="#FFDE50"/>
<path d="M120.838 404.374L110.165 431.31C109.226 430.893 108.331 430.375 107.497 429.766L117.837 403.671C118.862 403.798 119.868 404.034 120.838 404.374Z" fill="#FFEA94"/>
<path d="M126.351 407.84L116.556 432.56C115.127 432.608 113.71 432.442 112.35 432.081L122.958 405.307C124.197 405.975 125.343 406.826 126.351 407.84Z" fill="#FFEA94"/>
<path d="M126.406 413.592C128.876 419.304 126.247 425.936 120.536 428.406C118.547 429.266 116.446 429.508 114.448 429.216C113.578 429.09 112.727 428.861 111.913 428.539C111.315 428.302 110.736 428.014 110.185 427.678C109.427 427.215 108.72 426.66 108.083 426.022C107.141 425.078 106.353 423.95 105.778 422.663C105.759 422.621 105.74 422.579 105.722 422.536C103.252 416.825 105.88 410.192 111.592 407.722C111.634 407.704 111.677 407.685 111.72 407.668C113.021 407.124 114.367 406.843 115.699 406.8C116.601 406.771 117.496 406.851 118.365 407.033C118.997 407.166 119.616 407.352 120.214 407.589C121.028 407.911 121.804 408.328 122.525 408.832C124.181 409.988 125.546 411.603 126.406 413.592Z" fill="#FAA300"/>
<path d="M120.214 407.589L111.913 428.539C111.315 428.302 110.736 428.014 110.185 427.678C109.427 427.215 108.72 426.66 108.083 426.022C107.141 425.078 106.353 423.95 105.778 422.663C105.759 422.621 105.74 422.579 105.722 422.536C103.252 416.825 105.88 410.192 111.592 407.722C111.634 407.704 111.677 407.685 111.72 407.668C113.021 407.124 114.367 406.843 115.699 406.8C116.601 406.771 117.496 406.851 118.365 407.033C118.997 407.166 119.616 407.352 120.214 407.589Z" fill="#FFBD00"/>
<path d="M126.406 413.592C128.875 419.304 126.247 425.936 120.536 428.406C120.34 428.491 120.143 428.57 119.945 428.642C125.254 425.987 127.622 419.613 125.237 414.097C122.852 408.582 116.586 405.941 111.015 407.991C111.204 407.897 111.396 407.807 111.592 407.722C117.303 405.253 123.936 407.881 126.406 413.592Z" fill="#F68E00"/>
<path d="M117.772 427.703L117.388 426.815L118.275 426.432L118.659 427.319C118.457 427.827 117.983 427.786 117.772 427.703Z" fill="#F68E00"/>
<path fill-rule="evenodd" clip-rule="evenodd" d="M116.861 415.458C118.909 414.503 122.967 415.363 124.137 418.07C125.308 420.776 124.058 423.931 121.351 425.102L120.937 425.281L120.05 425.664L118.275 426.432L117.388 426.815L115.935 427.443L113.54 428.479L112.51 426.098L113.819 425.532L110.603 418.095L109.123 414.672L108.643 413.562L107.334 414.128L106.864 413.042L106.371 411.902L110.219 410.238L110.277 410.213L111.107 409.854L111.994 409.471L112.881 409.087L114.183 408.524C115.805 408.542 117.565 408.835 118.524 411.053C119.483 413.271 117.899 414.857 116.861 415.458ZM114.616 410.979L110.816 412.622L112.236 415.906L116.036 414.262C116.585 413.998 116.942 413.21 116.406 411.969C116.022 411.082 115.298 410.684 114.616 410.979ZM120.411 422.929L116.082 424.801L113.716 419.328L118.045 417.456C119.554 416.804 121.312 417.5 121.964 419.009C122.617 420.518 121.92 422.276 120.411 422.929Z" fill="#F68E00"/>
<path d="M120.433 426.552L120.05 425.664L120.937 425.281L121.321 426.168C121.119 426.676 120.645 426.636 120.433 426.552Z" fill="#F68E00"/>
<path d="M110.277 410.213L110.219 410.238L109.906 409.514C109.99 409.302 110.285 408.928 110.793 409.13L111.107 409.854L110.277 410.213Z" fill="#F68E00"/>
<path d="M112.881 409.087L111.994 409.471L111.681 408.746C111.765 408.534 112.06 408.161 112.568 408.363L112.881 409.087Z" fill="#F68E00"/>
<path d="M118.467 427.696L118.083 426.809L118.97 426.425L119.354 427.312C119.153 427.82 118.679 427.78 118.467 427.696Z" fill="#FFEA94"/>
<path fill-rule="evenodd" clip-rule="evenodd" d="M117.557 415.451C120.074 414.363 123.199 414.283 124.833 418.063C126.003 420.769 124.753 423.924 122.046 425.095L121.632 425.274L120.745 425.658L118.97 426.425L118.083 426.809L116.631 427.436L114.235 428.472L113.206 426.091L114.515 425.525L111.299 418.088L109.819 414.665L109.339 413.555L108.029 414.121L107.56 413.035L107.067 411.895L110.915 410.231L110.972 410.206L111.802 409.847L112.689 409.464L113.577 409.08L114.609 408.634C116.824 407.676 118.442 409.249 119.219 411.046C119.997 412.844 119.225 414.73 117.557 415.451ZM115.312 410.972L111.512 412.616L112.931 415.899L116.731 414.255C117.28 413.991 117.638 413.204 117.101 411.962C116.717 411.075 115.993 410.678 115.312 410.972ZM121.107 422.922L116.778 424.794L114.411 419.321L118.74 417.449C120.249 416.797 122.007 417.494 122.66 419.002C123.312 420.511 122.615 422.269 121.107 422.922Z" fill="#FFEA94"/>
<path d="M121.129 426.545L120.745 425.658L121.632 425.274L122.016 426.161C121.814 426.669 121.34 426.629 121.129 426.545Z" fill="#FFEA94"/>
<path d="M110.972 410.206L110.915 410.231L110.602 409.507C110.685 409.295 110.98 408.922 111.489 409.123L111.802 409.847L110.972 410.206Z" fill="#FFEA94"/>
<path d="M113.577 409.08L112.689 409.464L112.376 408.739C112.46 408.528 112.755 408.154 113.263 408.356L113.577 409.08Z" fill="#FFEA94"/>
</g>
<defs>
<linearGradient id="paint0_linear" x1="183.588" y1="-49.0611" x2="-347.316" y2="545.177" gradientUnits="userSpaceOnUse">
<stop stop-color="#FF3D22"/>
<stop offset="1" stop-color="#FF8516"/>
</linearGradient>
<clipPath id="clip0">
<rect width="30.5867" height="30.5867" fill="white" transform="translate(113.98 97) rotate(58.1485)"/>
</clipPath>
<clipPath id="clip1">
<rect width="29" height="29" fill="white" transform="translate(97 410.51) rotate(-23.3847)"/>
</clipPath>
</defs>
</svg>
