<svg width="380" height="856" viewBox="0 0 380 856" fill="none" xmlns="http://www.w3.org/2000/svg">
<path d="M-55.4173 518.432C32.5387 464.682 162.809 968.083 130.957 805.84C99.115 643.646 89.4097 409.497 33.7597 434.142C-8.99714 453.076 65.5216 140.152 202.341 49.3367C309.234 -21.6144 -7.38183 119.206 -35.3329 69.0765C-76.7926 -5.27968 -92.0185 11.0951 -106.791 31.9192C-121.563 52.7433 -99.3101 273.546 -138.206 285.365" stroke="url(#paint0_linear)" stroke-dasharray="5 5"/>
<g clip-path="url(#clip0)">
<path d="M94.9993 208.208C86.235 213.653 74.7161 210.962 69.2711 202.198C66.4007 197.577 65.7911 192.192 67.1407 187.334C67.4946 186.059 67.9844 184.82 68.6027 183.64C70.0984 180.791 72.3503 178.29 75.2812 176.469C84.0455 171.024 95.5644 173.715 101.009 182.48C102.831 185.411 103.742 188.651 103.819 191.867C103.852 193.198 103.742 194.525 103.493 195.826C102.552 200.778 99.6195 205.337 94.9993 208.208Z" fill="#F0CD00"/>
<path d="M94.9993 208.207C86.4325 213.53 75.2345 211.079 69.6491 202.781C64.6841 194.097 67.4484 182.973 76.0151 177.651C84.5819 172.328 95.7799 174.779 101.365 183.077C106.33 191.761 103.566 202.885 94.9993 208.207Z" fill="#FFDE50"/>
<path d="M103.493 195.826L67.1404 187.334C67.4943 186.059 67.9841 184.82 68.6024 183.64L103.819 191.867C103.851 193.198 103.741 194.525 103.493 195.826Z" fill="#FFEA94"/>
<path d="M100.121 203.509L66.76 195.716C66.4276 193.903 66.3696 192.066 66.5723 190.264L102.705 198.704C102.089 200.41 101.223 202.031 100.121 203.509Z" fill="#FFEA94"/>
<path d="M92.8014 204.67C85.9913 208.901 77.04 206.81 72.809 200C71.3354 197.628 70.6289 194.996 70.6214 192.395C70.6176 191.262 70.7475 190.134 71.0041 189.036C71.1921 188.229 71.4497 187.437 71.7737 186.671C72.2199 185.616 72.7922 184.61 73.4851 183.677C74.5089 182.298 75.7969 181.079 77.3285 180.103C77.3782 180.07 77.4287 180.039 77.4792 180.007C84.2894 175.776 93.2403 177.867 97.4716 184.678C97.503 184.728 97.5348 184.779 97.5649 184.831C98.5053 186.385 99.1191 188.047 99.4265 189.737C99.634 190.88 99.7019 192.036 99.6347 193.179C99.5852 194.01 99.4654 194.833 99.2768 195.64C99.0208 196.738 98.6372 197.807 98.1317 198.821C96.9725 201.15 95.1734 203.196 92.8014 204.67Z" fill="#FAA300"/>
<path d="M99.2768 195.64L71.0041 189.036C71.1921 188.229 71.4497 187.437 71.7737 186.671C72.2199 185.616 72.7922 184.61 73.4851 183.677C74.5089 182.298 75.7969 181.079 77.3285 180.103C77.3782 180.07 77.4287 180.039 77.4792 180.007C84.2894 175.776 93.2403 177.867 97.4716 184.677C97.503 184.728 97.5348 184.779 97.5649 184.831C98.5053 186.385 99.1191 188.047 99.4265 189.737C99.634 190.88 99.7019 192.036 99.6347 193.179C99.5852 194.01 99.4654 194.833 99.2768 195.64Z" fill="#FFBD00"/>
<path d="M92.8009 204.669C85.9908 208.9 77.0395 206.809 72.8086 199.999C72.6633 199.765 72.5257 199.529 72.3954 199.291C76.7859 205.553 85.3591 207.362 91.9354 203.276C98.5117 199.19 100.688 190.703 97.0191 183.993C97.1754 184.215 97.3259 184.443 97.4712 184.677C101.702 191.487 99.6111 200.438 92.8009 204.669Z" fill="#F68E00"/>
<path d="M75.9739 183.957C77.2547 183.895 79.9259 184.229 80.3646 186.068C80.9129 188.367 79.249 188.521 80.1147 190.622C80.9804 192.724 85.0631 191.507 86.804 192.185C88.5449 192.863 87.1119 195.513 85.4048 197.013C83.6977 198.514 84.2893 199.466 85.3184 199.706C86.3475 199.947 89.204 198.172 90.1899 199.759C91.1758 201.346 89.4686 202.846 89.1513 203.044" stroke="#F68E00" stroke-width="3"/>
<path d="M77.2432 183.168C78.524 183.106 81.1952 183.44 81.6339 185.279C82.1822 187.578 80.5183 187.732 81.384 189.833C82.2497 191.935 86.3324 190.718 88.0733 191.396C89.8142 192.074 88.3812 194.724 86.6741 196.224C84.967 197.725 85.5586 198.677 86.5877 198.917C87.6168 199.158 90.4733 197.383 91.4592 198.97C92.4451 200.557 90.7379 202.057 90.4205 202.254" stroke="#FFEA94" stroke-width="3"/>
</g>
<g clip-path="url(#clip1)">
<path d="M117.998 576.322C122.613 586.993 117.703 599.384 107.032 603.998C101.406 606.431 95.3032 606.217 90.1133 603.907C88.7504 603.301 87.451 602.549 86.239 601.665C83.3115 599.525 80.8982 596.6 79.3551 593.032C74.7407 582.361 79.6506 569.97 90.3216 565.355C93.891 563.812 97.6525 563.334 101.251 563.781C102.739 563.966 104.2 564.309 105.608 564.801C110.971 566.671 115.566 570.696 117.998 576.322Z" fill="#F0CD00"/>
<path d="M117.999 576.322C122.509 586.752 117.92 598.826 107.746 603.674C97.2439 607.767 85.3043 602.84 80.7939 592.41C76.2835 581.979 80.8721 569.906 91.047 565.057C101.549 560.965 113.488 565.891 117.999 576.322Z" fill="#FFDE50"/>
<path d="M105.608 564.801L90.1131 603.907C88.7501 603.301 87.4507 602.549 86.2387 601.665L101.25 563.781C102.739 563.966 104.2 564.309 105.608 564.801Z" fill="#FFEA94"/>
<path d="M113.611 569.834L99.3911 605.721C97.316 605.791 95.2585 605.551 93.2838 605.026L108.685 566.156C110.484 567.126 112.147 568.361 113.611 569.834Z" fill="#FFEA94"/>
<path d="M113.691 578.184C117.276 586.476 113.461 596.105 105.169 599.691C102.281 600.94 99.2313 601.29 96.3308 600.867C95.0672 600.683 93.8322 600.352 92.6505 599.883C91.7822 599.54 90.9422 599.122 90.1423 598.633C89.0409 597.961 88.0142 597.156 87.0902 596.229C85.7227 594.86 84.5784 593.222 83.744 591.353C83.7158 591.292 83.6892 591.231 83.6626 591.169C80.0771 582.877 83.8917 573.248 92.1842 569.663C92.2458 569.636 92.3081 569.609 92.3703 569.584C94.2583 568.794 96.2133 568.386 98.1475 568.323C99.456 568.282 100.755 568.398 102.018 568.662C102.935 568.855 103.833 569.125 104.702 569.47C105.883 569.937 107.01 570.542 108.057 571.273C110.46 572.952 112.442 575.296 113.691 578.184Z" fill="#FAA300"/>
<path d="M104.702 569.47L92.6505 599.883C91.7822 599.54 90.9422 599.122 90.1423 598.633C89.0409 597.961 88.0142 597.156 87.0902 596.229C85.7227 594.86 84.5784 593.222 83.744 591.353C83.7158 591.292 83.6892 591.231 83.6626 591.169C80.0771 582.877 83.8917 573.248 92.1842 569.663C92.2458 569.636 92.3081 569.609 92.3703 569.584C94.2583 568.794 96.2133 568.386 98.1476 568.323C99.456 568.282 100.755 568.398 102.018 568.662C102.935 568.855 103.833 569.125 104.702 569.47Z" fill="#FFBD00"/>
<path d="M113.69 578.184C117.276 586.476 113.461 596.105 105.169 599.691C104.884 599.814 104.598 599.928 104.311 600.034C112.018 596.18 115.457 586.925 111.994 578.918C108.532 570.911 99.4338 567.077 91.3464 570.053C91.6203 569.916 91.8993 569.786 92.184 569.663C100.476 566.077 110.105 569.893 113.69 578.184Z" fill="#F68E00"/>
<path d="M101.156 598.669L100.599 597.381L101.887 596.824L102.444 598.112C102.152 598.85 101.463 598.791 101.156 598.669Z" fill="#F68E00"/>
<path fill-rule="evenodd" clip-rule="evenodd" d="M99.8344 580.893C102.808 579.507 108.698 580.755 110.398 584.684C112.097 588.614 110.282 593.194 106.352 594.893L105.751 595.153L104.463 595.71L101.887 596.824L100.599 597.381L98.4904 598.293L95.0126 599.797L93.5178 596.34L95.4184 595.518L90.7494 584.721L88.6008 579.752L87.9039 578.141L86.0033 578.962L85.3212 577.385L84.6057 575.73L90.1921 573.315L90.2756 573.279L91.4802 572.758L92.7683 572.201L94.0564 571.644L95.9456 570.827C98.3015 570.853 100.856 571.278 102.248 574.498C103.641 577.718 101.341 580.02 99.8344 580.893ZM96.5753 574.391L91.0584 576.777L93.1195 581.543L98.6364 579.157C99.4329 578.773 99.9523 577.63 99.173 575.828C98.616 574.54 97.5652 573.963 96.5753 574.391ZM104.988 591.739L98.7036 594.456L95.268 586.512L101.553 583.794C103.743 582.847 106.296 583.858 107.243 586.049C108.19 588.239 107.179 590.792 104.988 591.739Z" fill="#F68E00"/>
<path d="M105.02 596.999L104.463 595.71L105.751 595.153L106.308 596.442C106.016 597.179 105.328 597.12 105.02 596.999Z" fill="#F68E00"/>
<path d="M90.2756 573.279L90.1921 573.315L89.7374 572.263C89.8592 571.956 90.2874 571.414 91.0255 571.706L91.4802 572.758L90.2756 573.279Z" fill="#F68E00"/>
<path d="M94.0564 571.644L92.7683 572.201L92.3136 571.149C92.4354 570.842 92.8636 570.3 93.6017 570.592L94.0564 571.644Z" fill="#F68E00"/>
<path d="M102.165 598.66L101.608 597.372L102.896 596.815L103.453 598.103C103.161 598.841 102.473 598.781 102.165 598.66Z" fill="#FFEA94"/>
<path fill-rule="evenodd" clip-rule="evenodd" d="M100.844 580.883C104.498 579.303 109.035 579.188 111.407 584.674C113.107 588.604 111.292 593.184 107.362 594.884L106.761 595.144L105.473 595.701L102.896 596.815L101.608 597.372L99.4997 598.283L96.0218 599.787L94.5271 596.33L96.4276 595.509L91.7587 584.711L89.6101 579.743L88.9131 578.131L87.0126 578.953L86.3305 577.375L85.615 575.721L91.2014 573.305L91.2849 573.269L92.4895 572.748L93.7776 572.191L95.0657 571.634L96.5639 570.986C99.7807 569.595 102.129 571.879 103.258 574.488C104.386 577.098 103.265 579.836 100.844 580.883ZM97.5846 574.381L92.0677 576.767L94.1288 581.533L99.6457 579.147C100.442 578.764 100.962 577.62 100.182 575.818C99.6253 574.53 98.5744 573.953 97.5846 574.381ZM105.998 591.729L99.7129 594.447L96.2773 586.502L102.562 583.784C104.753 582.837 107.305 583.848 108.252 586.039C109.2 588.229 108.188 590.782 105.998 591.729Z" fill="#FFEA94"/>
<path d="M106.03 596.989L105.473 595.701L106.761 595.144L107.318 596.432C107.025 597.17 106.337 597.111 106.03 596.989Z" fill="#FFEA94"/>
<path d="M91.2849 573.269L91.2014 573.305L90.7466 572.253C90.8685 571.946 91.2967 571.404 92.0347 571.696L92.4895 572.748L91.2849 573.269Z" fill="#FFEA94"/>
<path d="M95.0657 571.634L93.7776 572.191L93.3228 571.139C93.4447 570.832 93.8729 570.29 94.6109 570.582L95.0657 571.634Z" fill="#FFEA94"/>
</g>
<defs>
<linearGradient id="paint0_linear" x1="176.184" y1="-11.8186" x2="-472.37" y2="714.104" gradientUnits="userSpaceOnUse">
<stop stop-color="#FF3D22"/>
<stop offset="1" stop-color="#FF8516"/>
</linearGradient>
<clipPath id="clip0">
<rect width="37.3648" height="37.3648" fill="white" transform="translate(91.1504 166.61) rotate(58.1485)"/>
</clipPath>
<clipPath id="clip1">
<rect width="42.1014" height="42.1014" fill="white" transform="translate(71 573.71) rotate(-23.3847)"/>
</clipPath>
</defs>
</svg>
