<svg width="1039" height="775" viewBox="0 0 1039 775" fill="none" xmlns="http://www.w3.org/2000/svg">
<path d="M464.708 620.859C592.109 653.081 940.935 542.761 957.728 444.308C978.718 321.241 956.917 207.311 916.319 131.943C891.018 84.9729 792.106 20.0746 628.574 83.8071C465.042 147.539 157.23 295.138 100.974 302.039C44.7189 308.941 17.1991 381.395 46.1065 413.47C75.0139 445.544 387.537 477.19 402.919 548.005" stroke="url(#paint0_linear)" stroke-dasharray="5 5"/>
<path d="M929 118C929 131.807 917.807 143 904 143C896.721 143 890.169 139.89 885.601 134.926C884.401 133.622 883.339 132.191 882.435 130.655C880.252 126.943 879 122.617 879 118C879 104.193 890.193 93 904 93C908.618 93 912.944 94.252 916.655 96.4357C918.191 97.3388 919.621 98.401 920.924 99.602C925.889 104.168 929 110.721 929 118Z" fill="#F0CD00"/>
<path d="M929 118C929 131.496 918.307 142.494 904.931 142.983C891.554 142.494 880.861 131.496 880.861 118C880.861 104.504 891.554 93.5061 904.931 93.0173C918.307 93.5061 929 104.504 929 118Z" fill="#FFDE50"/>
<path d="M920.924 99.6021L885.601 134.926C884.401 133.623 883.339 132.191 882.435 130.655L916.655 96.4358C918.191 97.3389 919.621 98.4011 920.924 99.6021Z" fill="#FFEA94"/>
<path d="M927.276 108.86L894.859 141.277C892.564 140.375 890.435 139.143 888.53 137.64L923.64 102.53C925.143 104.435 926.375 106.564 927.276 108.86Z" fill="#FFEA94"/>
<path d="M923.427 118C923.427 128.729 914.729 137.427 904 137.427C900.263 137.427 896.774 136.371 893.811 134.543C892.52 133.747 891.331 132.803 890.263 131.736C889.479 130.952 888.76 130.1 888.118 129.191C887.235 127.939 886.495 126.578 885.925 125.132C885.08 122.994 884.604 120.669 884.576 118.239C884.574 118.159 884.574 118.08 884.574 118C884.574 107.271 893.27 98.5735 904 98.5735C904.08 98.5735 904.16 98.5735 904.24 98.5755C906.67 98.6041 908.994 99.0806 911.132 99.9245C912.578 100.496 913.939 101.235 915.191 102.118C916.1 102.761 916.951 103.479 917.736 104.263C918.803 105.33 919.747 106.52 920.543 107.811C922.372 110.773 923.427 114.263 923.427 118Z" fill="#FAA300"/>
<path d="M917.736 104.263L890.263 131.736C889.479 130.952 888.76 130.1 888.118 129.191C887.235 127.939 886.495 126.578 885.925 125.132C885.08 122.994 884.604 120.669 884.576 118.239C884.574 118.159 884.574 118.08 884.574 118C884.574 107.271 893.27 98.5735 904 98.5735C904.08 98.5735 904.16 98.5735 904.24 98.5755C906.67 98.6041 908.994 99.0806 911.132 99.9245C912.578 100.496 913.939 101.235 915.191 102.118C916.1 102.761 916.951 103.479 917.736 104.263Z" fill="#FFBD00"/>
<path d="M923.426 118C923.426 128.729 914.728 137.427 903.999 137.427C903.631 137.427 903.266 137.416 902.902 137.396C913.121 136.828 921.231 128.36 921.231 118C921.231 107.64 913.121 99.1725 902.902 98.6041C903.266 98.5837 903.631 98.5735 903.999 98.5735C914.728 98.5735 923.426 107.271 923.426 118Z" fill="#F68E00"/>
<path d="M888 122.5C888.833 121 891.1 118.2 893.5 119C896.5 120 895.5 122 898.5 122.5C901.5 123 903 117.5 905 116C907 114.5 909 118 909.5 121C910 124 911.5 124 912.5 123C913.5 122 913.5 117.5 916 117.5C918.5 117.5 919 120.5 919 121" stroke="#F68E00" stroke-width="3"/>
<path d="M888 120.5C888.833 119 891.1 116.2 893.5 117C896.5 118 895.5 120 898.5 120.5C901.5 121 903 115.5 905 114C907 112.5 909 116 909.5 119C910 122 911.5 122 912.5 121C913.5 120 913.5 115.5 916 115.5C918.5 115.5 919 118.5 919 119" stroke="#FFEA94" stroke-width="3"/>
<g clip-path="url(#clip0)">
<path d="M661 78.5C661 89.8219 651.822 99 640.5 99C634.532 99 629.159 96.4496 625.413 92.3789C624.429 91.3104 623.558 90.1365 622.816 88.8772C621.027 85.8331 620 82.2862 620 78.5C620 67.1781 629.178 58 640.5 58C644.287 58 647.834 59.0267 650.877 60.8173C652.136 61.5578 653.31 62.4288 654.378 63.4137C658.449 67.1581 661 72.5316 661 78.5Z" fill="#F0CD00"/>
<path d="M661 78.4999C661 89.5666 652.232 98.5849 641.263 98.9857C630.295 98.5849 621.526 89.5666 621.526 78.4999C621.526 67.4333 630.295 58.415 641.263 58.0142C652.232 58.415 661 67.4333 661 78.4999Z" fill="#FFDE50"/>
<path d="M654.378 63.4136L625.413 92.3789C624.429 91.3104 623.558 90.1364 622.816 88.8772L650.877 60.8173C652.136 61.5578 653.309 62.4288 654.378 63.4136Z" fill="#FFEA94"/>
<path d="M659.586 71.0054L633.005 97.5868C631.123 96.8471 629.377 95.8372 627.814 94.6047L656.605 65.8143C657.837 67.3765 658.847 69.1228 659.586 71.0054Z" fill="#FFEA94"/>
<path d="M656.43 78.5001C656.43 87.2975 649.297 94.4298 640.5 94.4298C637.436 94.4298 634.574 93.5646 632.145 92.0652C631.087 91.4126 630.111 90.6386 629.236 89.7633C628.592 89.1207 628.003 88.4221 627.477 87.6765C626.752 86.6499 626.146 85.5337 625.678 84.348C624.985 82.595 624.595 80.689 624.572 78.6959C624.57 78.6306 624.57 78.5653 624.57 78.5001C624.57 69.7026 631.702 62.5703 640.5 62.5703C640.565 62.5703 640.631 62.5703 640.697 62.572C642.69 62.5954 644.595 62.9862 646.348 63.6781C647.534 64.1467 648.65 64.7525 649.676 65.4771C650.422 66.0043 651.12 66.5925 651.763 67.2359C652.638 68.1103 653.412 69.0868 654.065 70.1453C655.565 72.5743 656.43 75.4359 656.43 78.5001Z" fill="#FAA300"/>
<path d="M651.763 67.2359L629.236 89.7634C628.592 89.1207 628.003 88.4221 627.477 87.6765C626.752 86.6499 626.146 85.5337 625.678 84.348C624.985 82.595 624.595 80.689 624.572 78.6959C624.57 78.6306 624.57 78.5653 624.57 78.5001C624.57 69.7026 631.702 62.5703 640.5 62.5703C640.565 62.5703 640.631 62.5703 640.697 62.572C642.69 62.5954 644.595 62.9862 646.348 63.6781C647.534 64.1467 648.65 64.7525 649.676 65.4771C650.422 66.0043 651.12 66.5925 651.763 67.2359Z" fill="#FFBD00"/>
<path d="M656.429 78.5001C656.429 87.2975 649.297 94.4298 640.5 94.4298C640.198 94.4298 639.898 94.4215 639.6 94.4047C647.979 93.9387 654.63 86.9954 654.63 78.5001C654.63 70.0047 647.979 63.0615 639.6 62.5954C639.898 62.5787 640.198 62.5703 640.5 62.5703C649.297 62.5703 656.429 69.7026 656.429 78.5001Z" fill="#F68E00"/>
<path d="M637.308 91.9655V90.599H638.674V91.9655C638.128 92.5122 637.535 92.1933 637.308 91.9655Z" fill="#F68E00"/>
<path fill-rule="evenodd" clip-rule="evenodd" d="M642.997 75.5655C646.191 75.4755 650.974 78.8677 650.974 83.0372C650.974 87.2066 647.581 90.5988 643.412 90.5988L642.774 90.599H641.408H638.674H637.308L635.07 90.5988H631.38V86.9312H633.397V75.4755V70.2038V68.4937H631.38V66.8203V65.0646H637.308H637.396H638.674H640.041H641.408H643.412C645.508 65.9988 647.627 67.3655 647.627 70.7822C647.627 74.1988 644.681 75.3677 642.997 75.5655ZM642.597 68.4937H636.744V73.5508H642.597C643.458 73.5155 644.364 72.6944 644.364 70.7822C644.364 69.4155 643.647 68.4937 642.597 68.4937ZM643.412 87.2519H636.744V78.8225H643.412C645.736 78.8225 647.627 80.7132 647.627 83.0372C647.627 85.3612 645.736 87.2519 643.412 87.2519Z" fill="#F68E00"/>
<path d="M641.408 91.9657V90.599H642.774V91.9657C642.228 92.5122 641.635 92.1934 641.408 91.9657Z" fill="#F68E00"/>
<path d="M637.396 65.0646H637.308V63.9488C637.535 63.7211 638.128 63.4022 638.674 63.9488V65.0646H637.396Z" fill="#F68E00"/>
<path d="M641.408 65.0646H640.041V63.9488C640.269 63.7211 640.861 63.4022 641.408 63.9488V65.0646Z" fill="#F68E00"/>
<path d="M638.214 92.3469V90.9804H639.58V92.3469C639.034 92.8935 638.442 92.5746 638.214 92.3469Z" fill="#FFEA94"/>
<path fill-rule="evenodd" clip-rule="evenodd" d="M643.903 75.9468C647.78 75.9468 651.88 77.5976 651.88 83.4185C651.88 87.588 648.488 90.9802 644.318 90.9802L643.68 90.9804H642.314H639.58H638.214L635.977 90.9802H632.287V87.3126H634.303V75.8569V70.5852V68.8751H632.287V67.2016V65.4459H638.214H638.302H639.58H640.947H642.314H643.903C647.316 65.4459 648.533 68.3949 648.533 71.1635C648.533 73.9321 646.473 75.9468 643.903 75.9468ZM643.503 68.8751H637.65V73.9321H643.503C644.364 73.8968 645.27 73.0757 645.27 71.1635C645.27 69.7968 644.554 68.8751 643.503 68.8751ZM644.318 87.6332H637.65V79.2038H644.318C646.642 79.2038 648.533 81.0946 648.533 83.4185C648.533 85.7425 646.642 87.6332 644.318 87.6332Z" fill="#FFEA94"/>
<path d="M642.314 92.3471V90.9804H643.68V92.3471C643.134 92.8936 642.542 92.5748 642.314 92.3471Z" fill="#FFEA94"/>
<path d="M638.302 65.4459H638.214V64.3302C638.442 64.1024 639.034 63.7835 639.58 64.3302V65.4459H638.302Z" fill="#FFEA94"/>
<path d="M642.314 65.4459H640.947V64.3302C641.175 64.1024 641.767 63.7835 642.314 64.3302V65.4459Z" fill="#FFEA94"/>
</g>
<defs>
<linearGradient id="paint0_linear" x1="98.6439" y1="285.714" x2="833.651" y2="1091.04" gradientUnits="userSpaceOnUse">
<stop stop-color="#239D42"/>
<stop offset="1" stop-color="#E1E224"/>
</linearGradient>
<clipPath id="clip0">
<rect width="41" height="41" fill="white" transform="translate(620 58)"/>
</clipPath>
</defs>
</svg>
