<svg width="1920" height="583" viewBox="0 0 1920 583" fill="none" xmlns="http://www.w3.org/2000/svg">
<path d="M579.671 398.556C944.256 328.869 1937.98 397.923 1995.09 301.056C2066.47 179.973 1045.66 498.12 1044.09 398.556C1043.11 336.507 853.898 177.44 687.59 167.57C521.283 157.701 454.588 301.056 145.543 149.162C-96.4134 92.5564 -123.935 158.153 -113.412 206.053C-102.889 253.953 941.256 -98.6312 579.671 398.556Z" stroke="url(#paint0_linear)" stroke-dasharray="5 5"/>
<g clip-path="url(#clip0)">
<path d="M1887 342C1887 350.284 1880.28 357 1872 357C1867.63 357 1863.7 355.134 1860.96 352.155C1860.24 351.373 1859.6 350.514 1859.06 349.593C1857.75 347.365 1857 344.77 1857 342C1857 333.715 1863.72 327 1872 327C1874.77 327 1877.37 327.751 1879.59 329.061C1880.51 329.603 1881.37 330.24 1882.15 330.961C1885.13 333.701 1887 337.633 1887 342Z" fill="#F0CD00"/>
<path d="M1887 342C1887 350.097 1880.58 356.696 1872.56 356.989C1864.53 356.696 1858.12 350.097 1858.12 342C1858.12 333.902 1864.53 327.304 1872.56 327.01C1880.58 327.304 1887 333.902 1887 342Z" fill="#FFDE50"/>
<path d="M1882.15 330.961L1860.96 352.155C1860.24 351.373 1859.6 350.514 1859.06 349.593L1879.59 329.061C1880.51 329.603 1881.37 330.24 1882.15 330.961Z" fill="#FFEA94"/>
<path d="M1885.97 336.516L1866.52 355.966C1865.14 355.424 1863.86 354.685 1862.72 353.784L1883.78 332.718C1884.69 333.861 1885.42 335.138 1885.97 336.516Z" fill="#FFEA94"/>
<path d="M1883.66 342C1883.66 348.437 1878.44 353.656 1872 353.656C1869.76 353.656 1867.66 353.023 1865.89 351.925C1865.11 351.448 1864.4 350.882 1863.76 350.241C1863.29 349.771 1862.86 349.26 1862.47 348.714C1861.94 347.963 1861.5 347.146 1861.15 346.279C1860.65 344.996 1860.36 343.601 1860.35 342.143C1860.34 342.095 1860.34 342.047 1860.34 342C1860.34 335.563 1865.56 330.344 1872 330.344C1872.05 330.344 1872.1 330.344 1872.14 330.345C1873.6 330.362 1875 330.648 1876.28 331.154C1877.15 331.497 1877.96 331.94 1878.71 332.471C1879.26 332.856 1879.77 333.287 1880.24 333.758C1880.88 334.397 1881.45 335.112 1881.93 335.886C1883.02 337.664 1883.66 339.758 1883.66 342Z" fill="#FAA300"/>
<path d="M1880.24 333.758L1863.76 350.241C1863.29 349.771 1862.86 349.26 1862.47 348.714C1861.94 347.963 1861.5 347.146 1861.15 346.279C1860.65 344.996 1860.36 343.601 1860.35 342.143C1860.34 342.095 1860.34 342.047 1860.34 342C1860.34 335.563 1865.56 330.344 1872 330.344C1872.05 330.344 1872.1 330.344 1872.14 330.345C1873.6 330.362 1875 330.648 1876.28 331.154C1877.15 331.497 1877.96 331.94 1878.71 332.471C1879.26 332.856 1879.77 333.287 1880.24 333.758Z" fill="#FFBD00"/>
<path d="M1883.66 342C1883.66 348.437 1878.44 353.656 1872 353.656C1871.78 353.656 1871.56 353.649 1871.34 353.637C1877.47 353.296 1882.34 348.216 1882.34 342C1882.34 335.784 1877.47 330.703 1871.34 330.362C1871.56 330.35 1871.78 330.344 1872 330.344C1878.44 330.344 1883.66 335.563 1883.66 342Z" fill="#F68E00"/>
<path d="M1862.44 342.751H1863.94V341.086H1865.17V342.751H1866.67V343.876H1865.17V345.541H1863.94V343.876H1862.44V342.751ZM1869.17 346.135C1869.01 346.135 1868.83 346.123 1868.65 346.099C1868.47 346.081 1868.3 346.054 1868.13 346.018C1867.96 345.982 1867.81 345.943 1867.67 345.901C1867.54 345.859 1867.43 345.82 1867.35 345.784L1867.61 344.668C1867.77 344.734 1867.96 344.806 1868.2 344.884C1868.45 344.956 1868.75 344.992 1869.11 344.992C1869.53 344.992 1869.83 344.914 1870.02 344.758C1870.21 344.602 1870.31 344.392 1870.31 344.128C1870.31 343.966 1870.27 343.831 1870.2 343.723C1870.14 343.609 1870.04 343.519 1869.92 343.453C1869.8 343.381 1869.66 343.333 1869.49 343.309C1869.33 343.279 1869.16 343.264 1868.97 343.264H1868.45V342.184H1869.04C1869.17 342.184 1869.3 342.172 1869.42 342.148C1869.55 342.124 1869.66 342.085 1869.75 342.031C1869.85 341.971 1869.92 341.893 1869.98 341.797C1870.04 341.695 1870.07 341.569 1870.07 341.419C1870.07 341.305 1870.04 341.206 1870 341.122C1869.95 341.038 1869.88 340.969 1869.81 340.915C1869.73 340.861 1869.65 340.822 1869.55 340.798C1869.45 340.768 1869.35 340.753 1869.25 340.753C1868.99 340.753 1868.75 340.792 1868.53 340.87C1868.31 340.948 1868.11 341.044 1867.93 341.158L1867.46 340.177C1867.55 340.117 1867.66 340.054 1867.79 339.988C1867.92 339.922 1868.07 339.862 1868.22 339.808C1868.38 339.754 1868.54 339.709 1868.72 339.673C1868.9 339.637 1869.09 339.619 1869.28 339.619C1869.65 339.619 1869.97 339.664 1870.23 339.754C1870.5 339.838 1870.72 339.961 1870.9 340.123C1871.07 340.279 1871.2 340.465 1871.28 340.681C1871.37 340.891 1871.41 341.122 1871.41 341.374C1871.41 341.62 1871.34 341.86 1871.2 342.094C1871.06 342.322 1870.88 342.496 1870.64 342.616C1870.97 342.748 1871.22 342.946 1871.39 343.21C1871.57 343.468 1871.66 343.78 1871.66 344.146C1871.66 344.434 1871.61 344.701 1871.52 344.947C1871.42 345.187 1871.27 345.397 1871.07 345.577C1870.86 345.751 1870.6 345.889 1870.28 345.991C1869.97 346.087 1869.6 346.135 1869.17 346.135ZM1875.73 341.365C1875.73 341.929 1875.59 342.361 1875.3 342.661C1875.01 342.961 1874.62 343.111 1874.14 343.111C1873.65 343.111 1873.27 342.961 1872.98 342.661C1872.69 342.361 1872.55 341.929 1872.55 341.365C1872.55 340.801 1872.69 340.369 1872.98 340.069C1873.27 339.769 1873.65 339.619 1874.14 339.619C1874.62 339.619 1875.01 339.769 1875.3 340.069C1875.59 340.369 1875.73 340.801 1875.73 341.365ZM1874.71 341.365C1874.71 341.059 1874.66 340.837 1874.55 340.699C1874.44 340.561 1874.31 340.492 1874.14 340.492C1873.96 340.492 1873.82 340.561 1873.72 340.699C1873.61 340.837 1873.56 341.059 1873.56 341.365C1873.56 341.671 1873.61 341.896 1873.72 342.04C1873.82 342.178 1873.96 342.247 1874.14 342.247C1874.31 342.247 1874.44 342.178 1874.55 342.04C1874.66 341.896 1874.71 341.671 1874.71 341.365ZM1877.49 339.763H1878.74L1875.22 346H1873.97L1877.49 339.763ZM1880.18 344.398C1880.18 344.962 1880.03 345.394 1879.75 345.694C1879.46 345.994 1879.07 346.144 1878.58 346.144C1878.1 346.144 1877.71 345.994 1877.42 345.694C1877.14 345.394 1876.99 344.962 1876.99 344.398C1876.99 343.834 1877.14 343.402 1877.42 343.102C1877.71 342.802 1878.1 342.652 1878.58 342.652C1879.07 342.652 1879.46 342.802 1879.75 343.102C1880.03 343.402 1880.18 343.834 1880.18 344.398ZM1879.16 344.398C1879.16 344.092 1879.11 343.87 1879 343.732C1878.89 343.594 1878.75 343.525 1878.58 343.525C1878.41 343.525 1878.27 343.594 1878.16 343.732C1878.06 343.87 1878.01 344.092 1878.01 344.398C1878.01 344.704 1878.06 344.929 1878.16 345.073C1878.27 345.211 1878.41 345.28 1878.58 345.28C1878.75 345.28 1878.89 345.211 1879 345.073C1879.11 344.929 1879.16 344.704 1879.16 344.398Z" fill="#F68E00"/>
<path d="M1862.44 341.751H1863.94V340.086H1865.17V341.751H1866.67V342.876H1865.17V344.541H1863.94V342.876H1862.44V341.751ZM1869.17 345.135C1869.01 345.135 1868.83 345.123 1868.65 345.099C1868.47 345.081 1868.3 345.054 1868.13 345.018C1867.96 344.982 1867.81 344.943 1867.67 344.901C1867.54 344.859 1867.43 344.82 1867.35 344.784L1867.61 343.668C1867.77 343.734 1867.96 343.806 1868.2 343.884C1868.45 343.956 1868.75 343.992 1869.11 343.992C1869.53 343.992 1869.83 343.914 1870.02 343.758C1870.21 343.602 1870.31 343.392 1870.31 343.128C1870.31 342.966 1870.27 342.831 1870.2 342.723C1870.14 342.609 1870.04 342.519 1869.92 342.453C1869.8 342.381 1869.66 342.333 1869.49 342.309C1869.33 342.279 1869.16 342.264 1868.97 342.264H1868.45V341.184H1869.04C1869.17 341.184 1869.3 341.172 1869.42 341.148C1869.55 341.124 1869.66 341.085 1869.75 341.031C1869.85 340.971 1869.92 340.893 1869.98 340.797C1870.04 340.695 1870.07 340.569 1870.07 340.419C1870.07 340.305 1870.04 340.206 1870 340.122C1869.95 340.038 1869.88 339.969 1869.81 339.915C1869.73 339.861 1869.65 339.822 1869.55 339.798C1869.45 339.768 1869.35 339.753 1869.25 339.753C1868.99 339.753 1868.75 339.792 1868.53 339.87C1868.31 339.948 1868.11 340.044 1867.93 340.158L1867.46 339.177C1867.55 339.117 1867.66 339.054 1867.79 338.988C1867.92 338.922 1868.07 338.862 1868.22 338.808C1868.38 338.754 1868.54 338.709 1868.72 338.673C1868.9 338.637 1869.09 338.619 1869.28 338.619C1869.65 338.619 1869.97 338.664 1870.23 338.754C1870.5 338.838 1870.72 338.961 1870.9 339.123C1871.07 339.279 1871.2 339.465 1871.28 339.681C1871.37 339.891 1871.41 340.122 1871.41 340.374C1871.41 340.62 1871.34 340.86 1871.2 341.094C1871.06 341.322 1870.88 341.496 1870.64 341.616C1870.97 341.748 1871.22 341.946 1871.39 342.21C1871.57 342.468 1871.66 342.78 1871.66 343.146C1871.66 343.434 1871.61 343.701 1871.52 343.947C1871.42 344.187 1871.27 344.397 1871.07 344.577C1870.86 344.751 1870.6 344.889 1870.28 344.991C1869.97 345.087 1869.6 345.135 1869.17 345.135ZM1875.73 340.365C1875.73 340.929 1875.59 341.361 1875.3 341.661C1875.01 341.961 1874.62 342.111 1874.14 342.111C1873.65 342.111 1873.27 341.961 1872.98 341.661C1872.69 341.361 1872.55 340.929 1872.55 340.365C1872.55 339.801 1872.69 339.369 1872.98 339.069C1873.27 338.769 1873.65 338.619 1874.14 338.619C1874.62 338.619 1875.01 338.769 1875.3 339.069C1875.59 339.369 1875.73 339.801 1875.73 340.365ZM1874.71 340.365C1874.71 340.059 1874.66 339.837 1874.55 339.699C1874.44 339.561 1874.31 339.492 1874.14 339.492C1873.96 339.492 1873.82 339.561 1873.72 339.699C1873.61 339.837 1873.56 340.059 1873.56 340.365C1873.56 340.671 1873.61 340.896 1873.72 341.04C1873.82 341.178 1873.96 341.247 1874.14 341.247C1874.31 341.247 1874.44 341.178 1874.55 341.04C1874.66 340.896 1874.71 340.671 1874.71 340.365ZM1877.49 338.763H1878.74L1875.22 345H1873.97L1877.49 338.763ZM1880.18 343.398C1880.18 343.962 1880.03 344.394 1879.75 344.694C1879.46 344.994 1879.07 345.144 1878.58 345.144C1878.1 345.144 1877.71 344.994 1877.42 344.694C1877.14 344.394 1876.99 343.962 1876.99 343.398C1876.99 342.834 1877.14 342.402 1877.42 342.102C1877.71 341.802 1878.1 341.652 1878.58 341.652C1879.07 341.652 1879.46 341.802 1879.75 342.102C1880.03 342.402 1880.18 342.834 1880.18 343.398ZM1879.16 343.398C1879.16 343.092 1879.11 342.87 1879 342.732C1878.89 342.594 1878.75 342.525 1878.58 342.525C1878.41 342.525 1878.27 342.594 1878.16 342.732C1878.06 342.87 1878.01 343.092 1878.01 343.398C1878.01 343.704 1878.06 343.929 1878.16 344.073C1878.27 344.211 1878.41 344.28 1878.58 344.28C1878.75 344.28 1878.89 344.211 1879 344.073C1879.11 343.929 1879.16 343.704 1879.16 343.398Z" fill="#FFEA94"/>
</g>
<g clip-path="url(#clip1)">
<path d="M1729.67 346.868C1729.67 360.675 1718.48 371.868 1704.67 371.868C1697.39 371.868 1690.84 368.758 1686.27 363.793C1685.07 362.49 1684.01 361.059 1683.11 359.523C1680.92 355.811 1679.67 351.485 1679.67 346.868C1679.67 333.061 1690.86 321.868 1704.67 321.868C1709.29 321.868 1713.62 323.12 1717.33 325.304C1718.86 326.207 1720.29 327.269 1721.6 328.47C1726.56 333.036 1729.67 339.589 1729.67 346.868Z" fill="#F0CD00"/>
<path d="M1729.67 346.868C1729.67 360.364 1718.98 371.362 1705.6 371.851C1692.23 371.362 1681.53 360.364 1681.53 346.868C1681.53 333.372 1692.23 322.374 1705.6 321.885C1718.98 322.374 1729.67 333.372 1729.67 346.868Z" fill="#FFDE50"/>
<path d="M1721.6 328.47L1686.27 363.794C1685.07 362.49 1684.01 361.059 1683.11 359.523L1717.33 325.304C1718.86 326.207 1720.29 327.269 1721.6 328.47Z" fill="#FFEA94"/>
<path d="M1727.95 337.728L1695.53 370.144C1693.24 369.242 1691.11 368.011 1689.2 366.508L1724.31 331.397C1725.81 333.303 1727.05 335.432 1727.95 337.728Z" fill="#FFEA94"/>
<path d="M1724.1 346.868C1724.1 357.597 1715.4 366.294 1704.67 366.294C1700.94 366.294 1697.45 365.239 1694.48 363.411C1693.19 362.615 1692 361.671 1690.94 360.604C1690.15 359.82 1689.43 358.968 1688.79 358.059C1687.91 356.807 1687.17 355.445 1686.6 354C1685.75 351.862 1685.28 349.537 1685.25 347.107C1685.25 347.027 1685.25 346.948 1685.25 346.868C1685.25 336.139 1693.94 327.441 1704.67 327.441C1704.75 327.441 1704.83 327.441 1704.91 327.443C1707.34 327.472 1709.67 327.949 1711.8 328.792C1713.25 329.364 1714.61 330.103 1715.86 330.986C1716.77 331.629 1717.62 332.347 1718.41 333.131C1719.48 334.198 1720.42 335.388 1721.21 336.679C1723.04 339.641 1724.1 343.131 1724.1 346.868Z" fill="#FAA300"/>
<path d="M1718.41 333.131L1690.94 360.604C1690.15 359.82 1689.43 358.968 1688.79 358.059C1687.91 356.807 1687.17 355.445 1686.6 354C1685.75 351.862 1685.28 349.537 1685.25 347.107C1685.25 347.027 1685.25 346.948 1685.25 346.868C1685.25 336.139 1693.94 327.441 1704.67 327.441C1704.75 327.441 1704.83 327.441 1704.91 327.443C1707.34 327.472 1709.67 327.949 1711.8 328.792C1713.25 329.364 1714.61 330.103 1715.86 330.986C1716.77 331.629 1717.62 332.347 1718.41 333.131Z" fill="#FFBD00"/>
<path d="M1724.1 346.868C1724.1 357.597 1715.4 366.294 1704.67 366.294C1704.3 366.294 1703.94 366.284 1703.57 366.264C1713.79 365.695 1721.9 357.228 1721.9 346.868C1721.9 336.508 1713.79 328.04 1703.57 327.472C1703.94 327.452 1704.3 327.441 1704.67 327.441C1715.4 327.441 1724.1 336.139 1724.1 346.868Z" fill="#F68E00"/>
<path d="M1688.67 351.368C1689.51 349.868 1691.77 347.068 1694.17 347.868C1697.17 348.868 1696.17 350.868 1699.17 351.368C1702.17 351.868 1703.67 346.368 1705.67 344.868C1707.67 343.368 1709.67 346.868 1710.17 349.868C1710.67 352.868 1712.17 352.868 1713.17 351.868C1714.17 350.868 1714.17 346.368 1716.67 346.368C1719.17 346.368 1719.67 349.368 1719.67 349.868" stroke="#F68E00" stroke-width="3"/>
<path d="M1688.67 349.368C1689.51 347.868 1691.77 345.068 1694.17 345.868C1697.17 346.868 1696.17 348.868 1699.17 349.368C1702.17 349.868 1703.67 344.368 1705.67 342.868C1707.67 341.368 1709.67 344.868 1710.17 347.868C1710.67 350.868 1712.17 350.868 1713.17 349.868C1714.17 348.868 1714.17 344.368 1716.67 344.368C1719.17 344.368 1719.67 347.368 1719.67 347.868" stroke="#FFEA94" stroke-width="3"/>
</g>
<g clip-path="url(#clip2)">
<path d="M87.6719 181.868C87.6719 190.152 80.9562 196.868 72.6719 196.868C68.3048 196.868 64.3736 195.002 61.6325 192.023C60.9125 191.241 60.2752 190.382 59.7328 189.461C58.4232 187.234 57.6719 184.638 57.6719 181.868C57.6719 173.584 64.3877 166.868 72.6719 166.868C75.443 166.868 78.0383 167.619 80.265 168.929C81.1864 169.471 82.0448 170.109 82.8266 170.829C85.8052 173.569 87.6719 177.501 87.6719 181.868Z" fill="#F0CD00"/>
<path d="M87.672 181.868C87.672 189.966 81.2563 196.564 73.2304 196.858C65.2045 196.564 58.7888 189.966 58.7888 181.868C58.7888 173.77 65.2045 167.172 73.2304 166.878C81.2563 167.172 87.672 173.77 87.672 181.868Z" fill="#FFDE50"/>
<path d="M82.8266 170.829L61.6325 192.023C60.9125 191.241 60.2752 190.383 59.7327 189.461L80.265 168.929C81.1864 169.471 82.0448 170.109 82.8266 170.829Z" fill="#FFEA94"/>
<path d="M86.6373 176.384L67.1875 195.834C65.8105 195.293 64.5328 194.554 63.3897 193.652L84.4558 172.586C85.3577 173.729 86.0966 175.007 86.6373 176.384Z" fill="#FFEA94"/>
<path d="M84.3279 181.868C84.3279 188.305 79.1091 193.524 72.672 193.524C70.4299 193.524 68.3361 192.891 66.5587 191.794C65.7842 191.316 65.0703 190.75 64.4299 190.109C63.9591 189.639 63.5281 189.128 63.143 188.582C62.6128 187.831 62.1689 187.014 61.8267 186.147C61.3197 184.864 61.0344 183.469 61.0173 182.011C61.0161 181.963 61.0161 181.916 61.0161 181.868C61.0161 175.431 66.2342 170.212 72.672 170.212C72.7197 170.212 72.7681 170.212 72.8158 170.213C74.2742 170.23 75.6683 170.516 76.951 171.023C77.8185 171.365 78.6352 171.809 79.3865 172.339C79.932 172.725 80.4426 173.155 80.9134 173.626C81.5538 174.266 82.1201 174.98 82.5977 175.755C83.6948 177.532 84.3279 179.626 84.3279 181.868Z" fill="#FAA300"/>
<path d="M80.9134 173.626L64.4299 190.109C63.9591 189.639 63.5281 189.128 63.143 188.582C62.6128 187.831 62.1689 187.014 61.8267 186.147C61.3197 184.864 61.0344 183.469 61.0173 182.011C61.0161 181.963 61.0161 181.916 61.0161 181.868C61.0161 175.431 66.2342 170.212 72.672 170.212C72.7197 170.212 72.7681 170.212 72.8158 170.213C74.2742 170.23 75.6683 170.516 76.951 171.023C77.8185 171.365 78.6352 171.809 79.3865 172.339C79.932 172.725 80.4426 173.155 80.9134 173.626Z" fill="#FFBD00"/>
<path d="M84.3274 181.868C84.3274 188.305 79.1087 193.524 72.6715 193.524C72.4505 193.524 72.2313 193.518 72.0134 193.505C78.1444 193.164 83.0105 188.084 83.0105 181.868C83.0105 175.652 78.1444 170.571 72.0134 170.23C72.2313 170.218 72.4505 170.212 72.6715 170.212C79.1087 170.212 84.3274 175.431 84.3274 181.868Z" fill="#F68E00"/>
<path d="M63.1129 182.619H64.6159V180.954H65.8399V182.619H67.3429V183.744H65.8399V185.409H64.6159V183.744H63.1129V182.619ZM69.8392 186.003C69.6772 186.003 69.5062 185.991 69.3262 185.967C69.1462 185.949 68.9722 185.922 68.8042 185.886C68.6362 185.85 68.4832 185.811 68.3452 185.769C68.2072 185.727 68.0992 185.688 68.0212 185.652L68.2822 184.536C68.4382 184.602 68.6362 184.674 68.8762 184.752C69.1222 184.824 69.4252 184.86 69.7852 184.86C70.1992 184.86 70.5022 184.782 70.6942 184.626C70.8862 184.47 70.9822 184.26 70.9822 183.996C70.9822 183.834 70.9462 183.699 70.8742 183.591C70.8082 183.477 70.7152 183.387 70.5952 183.321C70.4752 183.249 70.3312 183.201 70.1632 183.177C70.0012 183.147 69.8272 183.132 69.6412 183.132H69.1192V182.052H69.7132C69.8452 182.052 69.9712 182.04 70.0912 182.016C70.2172 181.992 70.3282 181.953 70.4242 181.899C70.5202 181.839 70.5952 181.761 70.6492 181.665C70.7092 181.563 70.7392 181.437 70.7392 181.287C70.7392 181.173 70.7152 181.074 70.6672 180.99C70.6192 180.906 70.5562 180.837 70.4782 180.783C70.4062 180.729 70.3192 180.69 70.2172 180.666C70.1212 180.636 70.0222 180.621 69.9202 180.621C69.6622 180.621 69.4222 180.66 69.2002 180.738C68.9842 180.816 68.7862 180.912 68.6062 181.026L68.1292 180.045C68.2252 179.985 68.3362 179.922 68.4622 179.856C68.5942 179.79 68.7382 179.73 68.8942 179.676C69.0502 179.622 69.2152 179.577 69.3892 179.541C69.5692 179.505 69.7582 179.487 69.9562 179.487C70.3222 179.487 70.6372 179.532 70.9012 179.622C71.1712 179.706 71.3932 179.829 71.5672 179.991C71.7412 180.147 71.8702 180.333 71.9542 180.549C72.0382 180.759 72.0802 180.99 72.0802 181.242C72.0802 181.488 72.0112 181.728 71.8732 181.962C71.7352 182.19 71.5492 182.364 71.3152 182.484C71.6392 182.616 71.8882 182.814 72.0622 183.078C72.2422 183.336 72.3322 183.648 72.3322 184.014C72.3322 184.302 72.2842 184.569 72.1882 184.815C72.0922 185.055 71.9422 185.265 71.7382 185.445C71.5342 185.619 71.2732 185.757 70.9552 185.859C70.6432 185.955 70.2712 186.003 69.8392 186.003ZM76.4034 181.233C76.4034 181.797 76.2594 182.229 75.9714 182.529C75.6834 182.829 75.2964 182.979 74.8104 182.979C74.3244 182.979 73.9374 182.829 73.6494 182.529C73.3614 182.229 73.2174 181.797 73.2174 181.233C73.2174 180.669 73.3614 180.237 73.6494 179.937C73.9374 179.637 74.3244 179.487 74.8104 179.487C75.2964 179.487 75.6834 179.637 75.9714 179.937C76.2594 180.237 76.4034 180.669 76.4034 181.233ZM75.3864 181.233C75.3864 180.927 75.3324 180.705 75.2244 180.567C75.1164 180.429 74.9784 180.36 74.8104 180.36C74.6364 180.36 74.4954 180.429 74.3874 180.567C74.2854 180.705 74.2344 180.927 74.2344 181.233C74.2344 181.539 74.2854 181.764 74.3874 181.908C74.4954 182.046 74.6364 182.115 74.8104 182.115C74.9784 182.115 75.1164 182.046 75.2244 181.908C75.3324 181.764 75.3864 181.539 75.3864 181.233ZM78.1584 179.631H79.4094L75.8904 185.868H74.6394L78.1584 179.631ZM80.8494 184.266C80.8494 184.83 80.7054 185.262 80.4174 185.562C80.1294 185.862 79.7424 186.012 79.2564 186.012C78.7704 186.012 78.3834 185.862 78.0954 185.562C77.8074 185.262 77.6634 184.83 77.6634 184.266C77.6634 183.702 77.8074 183.27 78.0954 182.97C78.3834 182.67 78.7704 182.52 79.2564 182.52C79.7424 182.52 80.1294 182.67 80.4174 182.97C80.7054 183.27 80.8494 183.702 80.8494 184.266ZM79.8324 184.266C79.8324 183.96 79.7784 183.738 79.6704 183.6C79.5624 183.462 79.4244 183.393 79.2564 183.393C79.0824 183.393 78.9414 183.462 78.8334 183.6C78.7314 183.738 78.6804 183.96 78.6804 184.266C78.6804 184.572 78.7314 184.797 78.8334 184.941C78.9414 185.079 79.0824 185.148 79.2564 185.148C79.4244 185.148 79.5624 185.079 79.6704 184.941C79.7784 184.797 79.8324 184.572 79.8324 184.266Z" fill="#F68E00"/>
<path d="M63.1129 181.619H64.6159V179.954H65.8399V181.619H67.3429V182.744H65.8399V184.409H64.6159V182.744H63.1129V181.619ZM69.8392 185.003C69.6772 185.003 69.5062 184.991 69.3262 184.967C69.1462 184.949 68.9722 184.922 68.8042 184.886C68.6362 184.85 68.4832 184.811 68.3452 184.769C68.2072 184.727 68.0992 184.688 68.0212 184.652L68.2822 183.536C68.4382 183.602 68.6362 183.674 68.8762 183.752C69.1222 183.824 69.4252 183.86 69.7852 183.86C70.1992 183.86 70.5022 183.782 70.6942 183.626C70.8862 183.47 70.9822 183.26 70.9822 182.996C70.9822 182.834 70.9462 182.699 70.8742 182.591C70.8082 182.477 70.7152 182.387 70.5952 182.321C70.4752 182.249 70.3312 182.201 70.1632 182.177C70.0012 182.147 69.8272 182.132 69.6412 182.132H69.1192V181.052H69.7132C69.8452 181.052 69.9712 181.04 70.0912 181.016C70.2172 180.992 70.3282 180.953 70.4242 180.899C70.5202 180.839 70.5952 180.761 70.6492 180.665C70.7092 180.563 70.7392 180.437 70.7392 180.287C70.7392 180.173 70.7152 180.074 70.6672 179.99C70.6192 179.906 70.5562 179.837 70.4782 179.783C70.4062 179.729 70.3192 179.69 70.2172 179.666C70.1212 179.636 70.0222 179.621 69.9202 179.621C69.6622 179.621 69.4222 179.66 69.2002 179.738C68.9842 179.816 68.7862 179.912 68.6062 180.026L68.1292 179.045C68.2252 178.985 68.3362 178.922 68.4622 178.856C68.5942 178.79 68.7382 178.73 68.8942 178.676C69.0502 178.622 69.2152 178.577 69.3892 178.541C69.5692 178.505 69.7582 178.487 69.9562 178.487C70.3222 178.487 70.6372 178.532 70.9012 178.622C71.1712 178.706 71.3932 178.829 71.5672 178.991C71.7412 179.147 71.8702 179.333 71.9542 179.549C72.0382 179.759 72.0802 179.99 72.0802 180.242C72.0802 180.488 72.0112 180.728 71.8732 180.962C71.7352 181.19 71.5492 181.364 71.3152 181.484C71.6392 181.616 71.8882 181.814 72.0622 182.078C72.2422 182.336 72.3322 182.648 72.3322 183.014C72.3322 183.302 72.2842 183.569 72.1882 183.815C72.0922 184.055 71.9422 184.265 71.7382 184.445C71.5342 184.619 71.2732 184.757 70.9552 184.859C70.6432 184.955 70.2712 185.003 69.8392 185.003ZM76.4034 180.233C76.4034 180.797 76.2594 181.229 75.9714 181.529C75.6834 181.829 75.2964 181.979 74.8104 181.979C74.3244 181.979 73.9374 181.829 73.6494 181.529C73.3614 181.229 73.2174 180.797 73.2174 180.233C73.2174 179.669 73.3614 179.237 73.6494 178.937C73.9374 178.637 74.3244 178.487 74.8104 178.487C75.2964 178.487 75.6834 178.637 75.9714 178.937C76.2594 179.237 76.4034 179.669 76.4034 180.233ZM75.3864 180.233C75.3864 179.927 75.3324 179.705 75.2244 179.567C75.1164 179.429 74.9784 179.36 74.8104 179.36C74.6364 179.36 74.4954 179.429 74.3874 179.567C74.2854 179.705 74.2344 179.927 74.2344 180.233C74.2344 180.539 74.2854 180.764 74.3874 180.908C74.4954 181.046 74.6364 181.115 74.8104 181.115C74.9784 181.115 75.1164 181.046 75.2244 180.908C75.3324 180.764 75.3864 180.539 75.3864 180.233ZM78.1584 178.631H79.4094L75.8904 184.868H74.6394L78.1584 178.631ZM80.8494 183.266C80.8494 183.83 80.7054 184.262 80.4174 184.562C80.1294 184.862 79.7424 185.012 79.2564 185.012C78.7704 185.012 78.3834 184.862 78.0954 184.562C77.8074 184.262 77.6634 183.83 77.6634 183.266C77.6634 182.702 77.8074 182.27 78.0954 181.97C78.3834 181.67 78.7704 181.52 79.2564 181.52C79.7424 181.52 80.1294 181.67 80.4174 181.97C80.7054 182.27 80.8494 182.702 80.8494 183.266ZM79.8324 183.266C79.8324 182.96 79.7784 182.738 79.6704 182.6C79.5624 182.462 79.4244 182.393 79.2564 182.393C79.0824 182.393 78.9414 182.462 78.8334 182.6C78.7314 182.738 78.6804 182.96 78.6804 183.266C78.6804 183.572 78.7314 183.797 78.8334 183.941C78.9414 184.079 79.0824 184.148 79.2564 184.148C79.4244 184.148 79.5624 184.079 79.6704 183.941C79.7784 183.797 79.8324 183.572 79.8324 183.266Z" fill="#FFEA94"/>
</g>
<g clip-path="url(#clip3)">
<path d="M361.672 134.868C361.672 143.152 354.956 149.868 346.672 149.868C342.305 149.868 338.374 148.002 335.632 145.023C334.912 144.241 334.275 143.382 333.733 142.461C332.423 140.234 331.672 137.638 331.672 134.868C331.672 126.584 338.388 119.868 346.672 119.868C349.443 119.868 352.038 120.619 354.265 121.929C355.186 122.471 356.045 123.109 356.827 123.829C359.805 126.569 361.672 130.501 361.672 134.868Z" fill="#F0CD00"/>
<path d="M361.672 134.868C361.672 142.966 355.256 149.564 347.23 149.858C339.204 149.564 332.789 142.966 332.789 134.868C332.789 126.77 339.204 120.172 347.23 119.878C355.256 120.172 361.672 126.77 361.672 134.868Z" fill="#FFDE50"/>
<path d="M356.827 123.829L335.632 145.023C334.912 144.241 334.275 143.383 333.733 142.461L354.265 121.929C355.186 122.471 356.045 123.109 356.827 123.829Z" fill="#FFEA94"/>
<path d="M360.637 129.384L341.187 148.834C339.811 148.293 338.533 147.554 337.39 146.652L358.456 125.586C359.358 126.729 360.097 128.007 360.637 129.384Z" fill="#FFEA94"/>
<path d="M358.328 134.868C358.328 141.305 353.109 146.524 346.672 146.524C344.43 146.524 342.336 145.891 340.559 144.794C339.784 144.316 339.07 143.75 338.43 143.109C337.959 142.639 337.528 142.128 337.143 141.582C336.613 140.831 336.169 140.014 335.827 139.147C335.32 137.864 335.034 136.469 335.017 135.011C335.016 134.963 335.016 134.916 335.016 134.868C335.016 128.431 340.234 123.212 346.672 123.212C346.72 123.212 346.768 123.212 346.816 123.213C348.274 123.23 349.668 123.516 350.951 124.023C351.819 124.365 352.635 124.809 353.386 125.339C353.932 125.725 354.443 126.155 354.913 126.626C355.554 127.266 356.12 127.98 356.598 128.755C357.695 130.532 358.328 132.626 358.328 134.868Z" fill="#FAA300"/>
<path d="M354.913 126.626L338.43 143.109C337.959 142.639 337.528 142.128 337.143 141.582C336.613 140.831 336.169 140.014 335.827 139.147C335.32 137.864 335.034 136.469 335.017 135.011C335.016 134.963 335.016 134.916 335.016 134.868C335.016 128.431 340.234 123.212 346.672 123.212C346.72 123.212 346.768 123.212 346.816 123.213C348.274 123.23 349.668 123.516 350.951 124.023C351.819 124.365 352.635 124.809 353.386 125.339C353.932 125.725 354.443 126.155 354.913 126.626Z" fill="#FFBD00"/>
<path d="M358.327 134.868C358.327 141.305 353.109 146.524 346.671 146.524C346.45 146.524 346.231 146.518 346.013 146.505C352.144 146.164 357.01 141.084 357.01 134.868C357.01 128.652 352.144 123.571 346.013 123.23C346.231 123.218 346.45 123.212 346.671 123.212C353.109 123.212 358.327 128.431 358.327 134.868Z" fill="#F68E00"/>
<path d="M344.336 144.721V143.721H345.336V144.721C344.936 145.121 344.503 144.887 344.336 144.721Z" fill="#F68E00"/>
<path fill-rule="evenodd" clip-rule="evenodd" d="M348.499 132.721C350.836 132.655 354.336 135.137 354.336 138.188C354.336 141.239 351.853 143.721 348.803 143.721L348.336 143.721H347.336H345.336H344.336L342.699 143.721H339.999V141.037H341.475V132.655V128.798V127.546H339.999V126.322V125.037H344.336H344.401H345.336H346.336H347.336H348.803C350.336 125.721 351.887 126.721 351.887 129.221C351.887 131.721 349.731 132.576 348.499 132.721ZM348.206 127.546H343.923V131.247H348.206C348.836 131.221 349.499 130.62 349.499 129.221C349.499 128.221 348.975 127.546 348.206 127.546ZM348.803 141.272H343.923V135.104H348.803C350.503 135.104 351.887 136.487 351.887 138.188C351.887 139.888 350.503 141.272 348.803 141.272Z" fill="#F68E00"/>
<path d="M347.336 144.721V143.721H348.336V144.721C347.936 145.121 347.503 144.887 347.336 144.721Z" fill="#F68E00"/>
<path d="M344.401 125.037H344.336V124.221C344.503 124.054 344.936 123.821 345.336 124.221V125.037H344.401Z" fill="#F68E00"/>
<path d="M347.336 125.037H346.336V124.221C346.503 124.054 346.936 123.821 347.336 124.221V125.037Z" fill="#F68E00"/>
<path d="M344.999 145V144H345.999V145C345.599 145.4 345.166 145.166 344.999 145Z" fill="#FFEA94"/>
<path fill-rule="evenodd" clip-rule="evenodd" d="M349.162 133C351.999 133 354.999 134.208 354.999 138.467C354.999 141.518 352.516 144 349.466 144L348.999 144H347.999H345.999H344.999L343.362 144H340.662V141.316H342.138V132.934V129.077V127.825H340.662V126.601V125.316H344.999H345.064H345.999H346.999H347.999H349.162C351.659 125.316 352.55 127.474 352.55 129.5C352.55 131.526 351.042 133 349.162 133ZM348.87 127.825H344.587V131.526H348.87C349.499 131.5 350.162 130.899 350.162 129.5C350.162 128.5 349.638 127.825 348.87 127.825ZM349.466 141.551H344.587V135.383H349.466C351.166 135.383 352.55 136.766 352.55 138.467C352.55 140.167 351.166 141.551 349.466 141.551Z" fill="#FFEA94"/>
<path d="M347.999 145V144H348.999V145C348.599 145.4 348.166 145.167 347.999 145Z" fill="#FFEA94"/>
<path d="M345.064 125.316H344.999V124.5C345.166 124.333 345.599 124.1 345.999 124.5V125.316H345.064Z" fill="#FFEA94"/>
<path d="M347.999 125.316H346.999V124.5C347.166 124.333 347.599 124.1 347.999 124.5V125.316Z" fill="#FFEA94"/>
</g>
<defs>
<linearGradient id="paint0_linear" x1="117.293" y1="46.4959" x2="107.87" y2="756.496" gradientUnits="userSpaceOnUse">
<stop stop-color="#FF3D22"/>
<stop offset="1" stop-color="#FF8516"/>
</linearGradient>
<clipPath id="clip0">
<rect width="30" height="30" fill="white" transform="translate(1857 327)"/>
</clipPath>
<clipPath id="clip1">
<rect width="50" height="50" fill="white" transform="translate(1679.67 321.868)"/>
</clipPath>
<clipPath id="clip2">
<rect width="30" height="30" fill="white" transform="translate(57.6719 166.868)"/>
</clipPath>
<clipPath id="clip3">
<rect width="30" height="30" fill="white" transform="translate(331.672 119.868)"/>
</clipPath>
</defs>
</svg>
