<svg width="1848" height="426" viewBox="0 0 1848 426" fill="none" xmlns="http://www.w3.org/2000/svg">
<path d="M370.398 81.6459C298.129 30.8501 33.7305 19.6803 6.3697 87.6152C-27.8313 172.534 186.777 126.007 198.501 189.5C205.807 229.07 33.9212 431.492 144.937 420.326C255.952 409.159 630.42 64.4247 666.001 71.5001C701.581 78.5755 813.598 326.521 801.501 297C789.403 267.48 360.569 186.266 363.466 131.501" stroke="url(#paint0_linear)" stroke-dasharray="5 5"/>
<path d="M1127.5 49.0008C1228.64 115.121 1761.1 407.913 1814.7 348.226C1881.71 273.617 1447.59 93.405 1425.74 154.67C1415.47 183.464 1467.28 239.043 1296.24 224.166C1125.2 209.288 936.541 20.5872 859.824 16.9582C746.028 11.5754 753.889 40.4455 767.127 71.9417C780.365 103.438 1047.06 234.07 1033.02 286.627" stroke="url(#paint1_linear)" stroke-dasharray="5 5"/>
<g clip-path="url(#clip0)">
<path d="M1220 87.0001C1220 100.807 1208.81 112 1195 112C1187.72 112 1181.17 108.89 1176.6 103.926C1175.4 102.623 1174.34 101.191 1173.43 99.6552C1171.25 95.943 1170 91.6175 1170 87.0001C1170 73.193 1181.19 62.0001 1195 62.0001C1199.62 62.0001 1203.94 63.2522 1207.66 65.4358C1209.19 66.3389 1210.62 67.4011 1211.92 68.6022C1216.89 73.1685 1220 79.7215 1220 87.0001Z" fill="#F0CD00"/>
<path d="M1220 87.0001C1220 100.496 1209.31 111.494 1195.93 111.983C1182.55 111.494 1171.86 100.496 1171.86 87.0001C1171.86 73.5042 1182.55 62.5062 1195.93 62.0175C1209.31 62.5062 1220 73.5042 1220 87.0001Z" fill="#FFDE50"/>
<path d="M1211.92 68.6022L1176.6 103.926C1175.4 102.623 1174.34 101.191 1173.43 99.6552L1207.66 65.4359C1209.19 66.3389 1210.62 67.4012 1211.92 68.6022Z" fill="#FFEA94"/>
<path d="M1218.28 77.8603L1185.86 110.277C1183.56 109.375 1181.43 108.143 1179.53 106.64L1214.64 71.5297C1216.14 73.4348 1217.37 75.5644 1218.28 77.8603Z" fill="#FFEA94"/>
<path d="M1214.43 87.0001C1214.43 97.7287 1205.73 106.427 1195 106.427C1191.26 106.427 1187.77 105.372 1184.81 103.543C1183.52 102.747 1182.33 101.803 1181.26 100.736C1180.48 99.9522 1179.76 99.1001 1179.12 98.191C1178.23 96.9389 1177.49 95.5777 1176.92 94.1318C1176.08 91.994 1175.6 89.6695 1175.58 87.2389C1175.57 87.1593 1175.57 87.0797 1175.57 87.0001C1175.57 76.2716 1184.27 67.5736 1195 67.5736C1195.08 67.5736 1195.16 67.5736 1195.24 67.5756C1197.67 67.6042 1199.99 68.0808 1202.13 68.9246C1203.58 69.4961 1204.94 70.2348 1206.19 71.1185C1207.1 71.7614 1207.95 72.4787 1208.74 73.2634C1209.8 74.3297 1210.75 75.5205 1211.54 76.8114C1213.37 79.7736 1214.43 83.2634 1214.43 87.0001Z" fill="#FAA300"/>
<path d="M1208.74 73.2634L1181.26 100.736C1180.48 99.9522 1179.76 99.1001 1179.12 98.191C1178.23 96.9389 1177.49 95.5777 1176.92 94.1318C1176.08 91.994 1175.6 89.6695 1175.58 87.2389C1175.57 87.1593 1175.57 87.0797 1175.57 87.0001C1175.57 76.2716 1184.27 67.5736 1195 67.5736C1195.08 67.5736 1195.16 67.5736 1195.24 67.5756C1197.67 67.6042 1199.99 68.0808 1202.13 68.9246C1203.58 69.4961 1204.94 70.2348 1206.19 71.1185C1207.1 71.7614 1207.95 72.4787 1208.74 73.2634Z" fill="#FFBD00"/>
<path d="M1214.43 87.0001C1214.43 97.7287 1205.73 106.427 1195 106.427C1194.63 106.427 1194.27 106.416 1193.9 106.396C1204.12 105.828 1212.23 97.3603 1212.23 87.0001C1212.23 76.6399 1204.12 68.1726 1193.9 67.6042C1194.27 67.5838 1194.63 67.5736 1195 67.5736C1205.73 67.5736 1214.43 76.2716 1214.43 87.0001Z" fill="#F68E00"/>
<path d="M1179 91.5002C1179.83 90.0002 1182.1 87.2002 1184.5 88.0002C1187.5 89.0002 1186.5 91.0001 1189.5 91.5002C1192.5 92.0002 1194 86.5002 1196 85.0002C1198 83.5002 1200 87.0002 1200.5 90.0002C1201 93.0002 1202.5 93.0001 1203.5 92.0001C1204.5 91.0001 1204.5 86.5001 1207 86.5001C1209.5 86.5001 1210 89.5003 1210 90.0002" stroke="#F68E00" stroke-width="3"/>
<path d="M1179 89.5002C1179.83 88.0002 1182.1 85.2002 1184.5 86.0002C1187.5 87.0002 1186.5 89.0001 1189.5 89.5002C1192.5 90.0002 1194 84.5002 1196 83.0002C1198 81.5002 1200 85.0002 1200.5 88.0002C1201 91.0002 1202.5 91.0001 1203.5 90.0001C1204.5 89.0001 1204.5 84.5001 1207 84.5001C1209.5 84.5001 1210 87.5003 1210 88.0002" stroke="#FFEA94" stroke-width="3"/>
</g>
<g clip-path="url(#clip1)">
<path d="M56 57.0001C56 65.2844 49.2843 72.0001 41 72.0001C36.6329 72.0001 32.7016 70.134 29.9606 67.1554C29.2406 66.3736 28.6033 65.5146 28.0608 64.5932C26.7512 62.3658 26 59.7705 26 57.0001C26 48.7158 32.7157 42.0001 41 42.0001C43.771 42.0001 46.3663 42.7513 48.5931 44.0616C49.5145 44.6034 50.3729 45.2407 51.1547 45.9613C54.1333 48.7011 56 52.633 56 57.0001Z" fill="#F0CD00"/>
<path d="M56.0001 57.0001C56.0001 65.0976 49.5844 71.6964 41.5585 71.9897C33.5325 71.6964 27.1168 65.0976 27.1168 57.0001C27.1168 48.9025 33.5325 42.3038 41.5585 42.0105C49.5844 42.3038 56.0001 48.9025 56.0001 57.0001Z" fill="#FFDE50"/>
<path d="M51.1547 45.9613L29.9606 67.1554C29.2406 66.3736 28.6032 65.5146 28.0608 64.5932L48.593 44.0615C49.5145 44.6034 50.3728 45.2407 51.1547 45.9613Z" fill="#FFEA94"/>
<path d="M54.9653 51.5162L35.5155 70.966C34.1386 70.4248 32.8608 69.6858 31.7178 68.784L52.7839 47.7178C53.6857 48.8609 54.4247 50.1387 54.9653 51.5162Z" fill="#FFEA94"/>
<path d="M52.656 57.0001C52.656 63.4372 47.4372 68.656 41 68.656C38.758 68.656 36.6641 68.023 34.8868 66.9258C34.1123 66.4483 33.3984 65.8819 32.758 65.2415C32.2872 64.7713 31.8562 64.2601 31.4711 63.7146C30.9409 62.9634 30.497 62.1466 30.1547 61.2791C29.6478 59.9964 29.3625 58.6017 29.3453 57.1434C29.3441 57.0956 29.3441 57.0479 29.3441 57.0001C29.3441 50.563 34.5623 45.3442 41 45.3442C41.0478 45.3442 41.0962 45.3442 41.1439 45.3454C42.6023 45.3625 43.9964 45.6485 45.279 46.1548C46.1466 46.4976 46.9633 46.9409 47.7145 47.4711C48.26 47.8568 48.7706 48.2872 49.2415 48.7581C49.8819 49.3979 50.4482 50.1123 50.9257 50.8868C52.0229 52.6642 52.656 54.7581 52.656 57.0001Z" fill="#FAA300"/>
<path d="M49.2415 48.7581L32.758 65.2415C32.2872 64.7713 31.8562 64.2601 31.4711 63.7146C30.9409 62.9634 30.497 62.1466 30.1547 61.2791C29.6478 59.9964 29.3625 58.6017 29.3453 57.1434C29.3441 57.0956 29.3441 57.0478 29.3441 57.0001C29.3441 50.563 34.5623 45.3442 41 45.3442C41.0478 45.3442 41.0962 45.3442 41.1439 45.3454C42.6023 45.3625 43.9964 45.6485 45.279 46.1548C46.1466 46.4976 46.9633 46.9409 47.7145 47.4711C48.26 47.8568 48.7706 48.2872 49.2415 48.7581Z" fill="#FFBD00"/>
<path d="M52.6555 57.0001C52.6555 63.4372 47.4367 68.656 40.9996 68.656C40.7786 68.656 40.5594 68.6499 40.3414 68.6376C46.4724 68.2966 51.3386 63.2162 51.3386 57.0001C51.3386 50.784 46.4724 45.7036 40.3414 45.3625C40.5594 45.3503 40.7786 45.3442 40.9996 45.3442C47.4367 45.3442 52.6555 50.563 52.6555 57.0001Z" fill="#F68E00"/>
<path d="M31.441 57.7511H32.944V56.0861H34.168V57.7511H35.671V58.8761H34.168V60.5411H32.944V58.8761H31.441V57.7511ZM38.1672 61.1351C38.0052 61.1351 37.8342 61.1231 37.6542 61.0991C37.4742 61.0811 37.3002 61.0541 37.1322 61.0181C36.9642 60.9821 36.8112 60.9431 36.6732 60.9011C36.5352 60.8591 36.4272 60.8201 36.3492 60.7841L36.6102 59.6681C36.7662 59.7341 36.9642 59.8061 37.2042 59.8841C37.4502 59.9561 37.7532 59.9921 38.1132 59.9921C38.5272 59.9921 38.8302 59.9141 39.0222 59.7581C39.2142 59.6021 39.3102 59.3921 39.3102 59.1281C39.3102 58.9661 39.2742 58.8311 39.2022 58.7231C39.1362 58.6091 39.0432 58.5191 38.9232 58.4531C38.8032 58.3811 38.6592 58.3331 38.4912 58.3091C38.3292 58.2791 38.1552 58.2641 37.9692 58.2641H37.4472V57.1841H38.0412C38.1732 57.1841 38.2992 57.1721 38.4192 57.1481C38.5452 57.1241 38.6562 57.0851 38.7522 57.0311C38.8482 56.9711 38.9232 56.8931 38.9772 56.7971C39.0372 56.6951 39.0672 56.5691 39.0672 56.4191C39.0672 56.3051 39.0432 56.2061 38.9952 56.1221C38.9472 56.0381 38.8842 55.9691 38.8062 55.9151C38.7342 55.8611 38.6472 55.8221 38.5452 55.7981C38.4492 55.7681 38.3502 55.7531 38.2482 55.7531C37.9902 55.7531 37.7502 55.7921 37.5282 55.8701C37.3122 55.9481 37.1142 56.0441 36.9342 56.1581L36.4572 55.1771C36.5532 55.1171 36.6642 55.0541 36.7902 54.9881C36.9222 54.9221 37.0662 54.8621 37.2222 54.8081C37.3782 54.7541 37.5432 54.7091 37.7172 54.6731C37.8972 54.6371 38.0862 54.6191 38.2842 54.6191C38.6502 54.6191 38.9652 54.6641 39.2292 54.7541C39.4992 54.8381 39.7212 54.9611 39.8952 55.1231C40.0692 55.2791 40.1982 55.4651 40.2822 55.6811C40.3662 55.8911 40.4082 56.1221 40.4082 56.3741C40.4082 56.6201 40.3392 56.8601 40.2012 57.0941C40.0632 57.3221 39.8772 57.4961 39.6432 57.6161C39.9672 57.7481 40.2162 57.9461 40.3902 58.2101C40.5702 58.4681 40.6602 58.7801 40.6602 59.1461C40.6602 59.4341 40.6122 59.7011 40.5162 59.9471C40.4202 60.1871 40.2702 60.3971 40.0662 60.5771C39.8622 60.7511 39.6012 60.8891 39.2832 60.9911C38.9712 61.0871 38.5992 61.1351 38.1672 61.1351ZM44.7315 56.3651C44.7315 56.9291 44.5875 57.3611 44.2995 57.6611C44.0115 57.9611 43.6245 58.1111 43.1385 58.1111C42.6525 58.1111 42.2655 57.9611 41.9775 57.6611C41.6895 57.3611 41.5455 56.9291 41.5455 56.3651C41.5455 55.8011 41.6895 55.3691 41.9775 55.0691C42.2655 54.7691 42.6525 54.6191 43.1385 54.6191C43.6245 54.6191 44.0115 54.7691 44.2995 55.0691C44.5875 55.3691 44.7315 55.8011 44.7315 56.3651ZM43.7145 56.3651C43.7145 56.0591 43.6605 55.8371 43.5525 55.6991C43.4445 55.5611 43.3065 55.4921 43.1385 55.4921C42.9645 55.4921 42.8235 55.5611 42.7155 55.6991C42.6135 55.8371 42.5625 56.0591 42.5625 56.3651C42.5625 56.6711 42.6135 56.8961 42.7155 57.0401C42.8235 57.1781 42.9645 57.2471 43.1385 57.2471C43.3065 57.2471 43.4445 57.1781 43.5525 57.0401C43.6605 56.8961 43.7145 56.6711 43.7145 56.3651ZM46.4865 54.7631H47.7375L44.2185 61.0001H42.9675L46.4865 54.7631ZM49.1775 59.3981C49.1775 59.9621 49.0335 60.3941 48.7455 60.6941C48.4575 60.9941 48.0705 61.1441 47.5845 61.1441C47.0985 61.1441 46.7115 60.9941 46.4235 60.6941C46.1355 60.3941 45.9915 59.9621 45.9915 59.3981C45.9915 58.8341 46.1355 58.4021 46.4235 58.1021C46.7115 57.8021 47.0985 57.6521 47.5845 57.6521C48.0705 57.6521 48.4575 57.8021 48.7455 58.1021C49.0335 58.4021 49.1775 58.8341 49.1775 59.3981ZM48.1605 59.3981C48.1605 59.0921 48.1065 58.8701 47.9985 58.7321C47.8905 58.5941 47.7525 58.5251 47.5845 58.5251C47.4105 58.5251 47.2695 58.5941 47.1615 58.7321C47.0595 58.8701 47.0085 59.0921 47.0085 59.3981C47.0085 59.7041 47.0595 59.9291 47.1615 60.0731C47.2695 60.2111 47.4105 60.2801 47.5845 60.2801C47.7525 60.2801 47.8905 60.2111 47.9985 60.0731C48.1065 59.9291 48.1605 59.7041 48.1605 59.3981Z" fill="#F68E00"/>
<path d="M31.441 56.7511H32.944V55.0861H34.168V56.7511H35.671V57.8761H34.168V59.5411H32.944V57.8761H31.441V56.7511ZM38.1672 60.1351C38.0052 60.1351 37.8342 60.1231 37.6542 60.0991C37.4742 60.0811 37.3002 60.0541 37.1322 60.0181C36.9642 59.9821 36.8112 59.9431 36.6732 59.9011C36.5352 59.8591 36.4272 59.8201 36.3492 59.7841L36.6102 58.6681C36.7662 58.7341 36.9642 58.8061 37.2042 58.8841C37.4502 58.9561 37.7532 58.9921 38.1132 58.9921C38.5272 58.9921 38.8302 58.9141 39.0222 58.7581C39.2142 58.6021 39.3102 58.3921 39.3102 58.1281C39.3102 57.9661 39.2742 57.8311 39.2022 57.7231C39.1362 57.6091 39.0432 57.5191 38.9232 57.4531C38.8032 57.3811 38.6592 57.3331 38.4912 57.3091C38.3292 57.2791 38.1552 57.2641 37.9692 57.2641H37.4472V56.1841H38.0412C38.1732 56.1841 38.2992 56.1721 38.4192 56.1481C38.5452 56.1241 38.6562 56.0851 38.7522 56.0311C38.8482 55.9711 38.9232 55.8931 38.9772 55.7971C39.0372 55.6951 39.0672 55.5691 39.0672 55.4191C39.0672 55.3051 39.0432 55.2061 38.9952 55.1221C38.9472 55.0381 38.8842 54.9691 38.8062 54.9151C38.7342 54.8611 38.6472 54.8221 38.5452 54.7981C38.4492 54.7681 38.3502 54.7531 38.2482 54.7531C37.9902 54.7531 37.7502 54.7921 37.5282 54.8701C37.3122 54.9481 37.1142 55.0441 36.9342 55.1581L36.4572 54.1771C36.5532 54.1171 36.6642 54.0541 36.7902 53.9881C36.9222 53.9221 37.0662 53.8621 37.2222 53.8081C37.3782 53.7541 37.5432 53.7091 37.7172 53.6731C37.8972 53.6371 38.0862 53.6191 38.2842 53.6191C38.6502 53.6191 38.9652 53.6641 39.2292 53.7541C39.4992 53.8381 39.7212 53.9611 39.8952 54.1231C40.0692 54.2791 40.1982 54.4651 40.2822 54.6811C40.3662 54.8911 40.4082 55.1221 40.4082 55.3741C40.4082 55.6201 40.3392 55.8601 40.2012 56.0941C40.0632 56.3221 39.8772 56.4961 39.6432 56.6161C39.9672 56.7481 40.2162 56.9461 40.3902 57.2101C40.5702 57.4681 40.6602 57.7801 40.6602 58.1461C40.6602 58.4341 40.6122 58.7011 40.5162 58.9471C40.4202 59.1871 40.2702 59.3971 40.0662 59.5771C39.8622 59.7511 39.6012 59.8891 39.2832 59.9911C38.9712 60.0871 38.5992 60.1351 38.1672 60.1351ZM44.7315 55.3651C44.7315 55.9291 44.5875 56.3611 44.2995 56.6611C44.0115 56.9611 43.6245 57.1111 43.1385 57.1111C42.6525 57.1111 42.2655 56.9611 41.9775 56.6611C41.6895 56.3611 41.5455 55.9291 41.5455 55.3651C41.5455 54.8011 41.6895 54.3691 41.9775 54.0691C42.2655 53.7691 42.6525 53.6191 43.1385 53.6191C43.6245 53.6191 44.0115 53.7691 44.2995 54.0691C44.5875 54.3691 44.7315 54.8011 44.7315 55.3651ZM43.7145 55.3651C43.7145 55.0591 43.6605 54.8371 43.5525 54.6991C43.4445 54.5611 43.3065 54.4921 43.1385 54.4921C42.9645 54.4921 42.8235 54.5611 42.7155 54.6991C42.6135 54.8371 42.5625 55.0591 42.5625 55.3651C42.5625 55.6711 42.6135 55.8961 42.7155 56.0401C42.8235 56.1781 42.9645 56.2471 43.1385 56.2471C43.3065 56.2471 43.4445 56.1781 43.5525 56.0401C43.6605 55.8961 43.7145 55.6711 43.7145 55.3651ZM46.4865 53.7631H47.7375L44.2185 60.0001H42.9675L46.4865 53.7631ZM49.1775 58.3981C49.1775 58.9621 49.0335 59.3941 48.7455 59.6941C48.4575 59.9941 48.0705 60.1441 47.5845 60.1441C47.0985 60.1441 46.7115 59.9941 46.4235 59.6941C46.1355 59.3941 45.9915 58.9621 45.9915 58.3981C45.9915 57.8341 46.1355 57.4021 46.4235 57.1021C46.7115 56.8021 47.0985 56.6521 47.5845 56.6521C48.0705 56.6521 48.4575 56.8021 48.7455 57.1021C49.0335 57.4021 49.1775 57.8341 49.1775 58.3981ZM48.1605 58.3981C48.1605 58.0921 48.1065 57.8701 47.9985 57.7321C47.8905 57.5941 47.7525 57.5251 47.5845 57.5251C47.4105 57.5251 47.2695 57.5941 47.1615 57.7321C47.0595 57.8701 47.0085 58.0921 47.0085 58.3981C47.0085 58.7041 47.0595 58.9291 47.1615 59.0731C47.2695 59.2111 47.4105 59.2801 47.5845 59.2801C47.7525 59.2801 47.8905 59.2111 47.9985 59.0731C48.1065 58.9291 48.1605 58.7041 48.1605 58.3981Z" fill="#FFEA94"/>
</g>
<g clip-path="url(#clip2)">
<path d="M666 245C666 253.284 659.284 260 651 260C646.633 260 642.702 258.134 639.961 255.155C639.241 254.374 638.603 253.515 638.061 252.593C636.751 250.366 636 247.771 636 245C636 236.716 642.716 230 651 230C653.771 230 656.366 230.751 658.593 232.062C659.514 232.603 660.373 233.241 661.155 233.961C664.133 236.701 666 240.633 666 245Z" fill="#F0CD00"/>
<path d="M666 245C666 253.098 659.584 259.696 651.558 259.99C643.533 259.696 637.117 253.098 637.117 245C637.117 236.903 643.533 230.304 651.558 230.01C659.584 230.304 666 236.903 666 245Z" fill="#FFDE50"/>
<path d="M661.155 233.961L639.961 255.155C639.241 254.374 638.603 253.515 638.061 252.593L658.593 232.062C659.514 232.603 660.373 233.241 661.155 233.961Z" fill="#FFEA94"/>
<path d="M664.965 239.516L645.516 258.966C644.139 258.425 642.861 257.686 641.718 256.784L662.784 235.718C663.686 236.861 664.425 238.139 664.965 239.516Z" fill="#FFEA94"/>
<path d="M662.656 245C662.656 251.437 657.437 256.656 651 256.656C648.758 256.656 646.664 256.023 644.887 254.926C644.112 254.448 643.398 253.882 642.758 253.242C642.287 252.771 641.856 252.26 641.471 251.715C640.941 250.963 640.497 250.147 640.155 249.279C639.648 247.996 639.363 246.602 639.345 245.143C639.344 245.096 639.344 245.048 639.344 245C639.344 238.563 644.562 233.344 651 233.344C651.048 233.344 651.096 233.344 651.144 233.345C652.602 233.363 653.996 233.649 655.279 234.155C656.147 234.498 656.963 234.941 657.715 235.471C658.26 235.857 658.771 236.287 659.242 236.758C659.882 237.398 660.448 238.112 660.926 238.887C662.023 240.664 662.656 242.758 662.656 245Z" fill="#FAA300"/>
<path d="M659.242 236.758L642.758 253.242C642.287 252.771 641.856 252.26 641.471 251.715C640.941 250.963 640.497 250.147 640.155 249.279C639.648 247.996 639.363 246.602 639.345 245.143C639.344 245.096 639.344 245.048 639.344 245C639.344 238.563 644.562 233.344 651 233.344C651.048 233.344 651.096 233.344 651.144 233.345C652.602 233.363 653.996 233.649 655.279 234.155C656.147 234.498 656.963 234.941 657.715 235.471C658.26 235.857 658.771 236.287 659.242 236.758Z" fill="#FFBD00"/>
<path d="M662.655 245C662.655 251.437 657.437 256.656 651 256.656C650.779 256.656 650.559 256.65 650.341 256.638C656.472 256.297 661.339 251.216 661.339 245C661.339 238.784 656.472 233.704 650.341 233.363C650.559 233.35 650.779 233.344 651 233.344C657.437 233.344 662.655 238.563 662.655 245Z" fill="#F68E00"/>
<path d="M648.664 254.853V253.853H649.664V254.853C649.264 255.253 648.831 255.02 648.664 254.853Z" fill="#F68E00"/>
<path fill-rule="evenodd" clip-rule="evenodd" d="M652.827 242.853C655.164 242.787 658.664 245.269 658.664 248.32C658.664 251.371 656.182 253.853 653.131 253.853L652.664 253.853H651.664H649.664H648.664L647.027 253.853H644.327V251.169H645.803V242.787V238.93V237.678H644.327V236.454V235.169H648.664H648.729H649.664H650.664H651.664H653.131C654.664 235.853 656.215 236.853 656.215 239.353C656.215 241.853 654.059 242.708 652.827 242.853ZM652.535 237.678H648.252V241.379H652.535C653.164 241.353 653.827 240.752 653.827 239.353C653.827 238.353 653.303 237.678 652.535 237.678ZM653.131 251.404H648.252V245.236H653.131C654.831 245.236 656.215 246.62 656.215 248.32C656.215 250.02 654.831 251.404 653.131 251.404Z" fill="#F68E00"/>
<path d="M651.664 254.853V253.853H652.664V254.853C652.264 255.253 651.831 255.02 651.664 254.853Z" fill="#F68E00"/>
<path d="M648.729 235.169H648.664V234.353C648.831 234.186 649.264 233.953 649.664 234.353V235.169H648.729Z" fill="#F68E00"/>
<path d="M651.664 235.169H650.664V234.353C650.831 234.186 651.264 233.953 651.664 234.353V235.169Z" fill="#F68E00"/>
<path d="M649.327 255.132V254.132H650.327V255.132C649.927 255.532 649.494 255.299 649.327 255.132Z" fill="#FFEA94"/>
<path fill-rule="evenodd" clip-rule="evenodd" d="M653.49 243.132C656.327 243.132 659.327 244.34 659.327 248.599C659.327 251.65 656.845 254.132 653.794 254.132L653.327 254.132H652.327H650.327H649.327L647.69 254.132H644.99V251.448H646.466V243.066V239.209V237.957H644.99V236.733V235.448H649.327H649.392H650.327H651.327H652.327H653.49C655.988 235.448 656.878 237.606 656.878 239.632C656.878 241.658 655.37 243.132 653.49 243.132ZM653.198 237.957H648.915V241.658H653.198C653.827 241.632 654.49 241.031 654.49 239.632C654.49 238.632 653.966 237.957 653.198 237.957ZM653.794 251.683H648.915V245.515H653.794C655.494 245.515 656.878 246.899 656.878 248.599C656.878 250.3 655.494 251.683 653.794 251.683Z" fill="#FFEA94"/>
<path d="M652.327 255.132V254.132H653.327V255.132C652.927 255.532 652.494 255.299 652.327 255.132Z" fill="#FFEA94"/>
<path d="M649.392 235.448H649.327V234.632C649.494 234.465 649.927 234.232 650.327 234.632V235.448H649.392Z" fill="#FFEA94"/>
<path d="M652.327 235.448H651.327V234.632C651.494 234.465 651.927 234.232 652.327 234.632V235.448Z" fill="#FFEA94"/>
</g>
<defs>
<linearGradient id="paint0_linear" x1="724.988" y1="380.941" x2="400.026" y2="-378.645" gradientUnits="userSpaceOnUse">
<stop stop-color="#239D42"/>
<stop offset="1" stop-color="#E1E224"/>
</linearGradient>
<linearGradient id="paint1_linear" x1="872.383" y1="29.7446" x2="902.333" y2="598.45" gradientUnits="userSpaceOnUse">
<stop stop-color="#FF3D22"/>
<stop offset="1" stop-color="#FF8516"/>
</linearGradient>
<clipPath id="clip0">
<rect width="50" height="50" fill="white" transform="translate(1170 62.0001)"/>
</clipPath>
<clipPath id="clip1">
<rect width="30" height="30" fill="white" transform="translate(26 42.0001)"/>
</clipPath>
<clipPath id="clip2">
<rect width="30" height="30" fill="white" transform="translate(636 230)"/>
</clipPath>
</defs>
</svg>
